<svg xmlns="http://www.w3.org/2000/svg" viewBox="0 0 94.97 96.52"><defs><style>.cls-1{opacity:0.45;}.cls-2{fill:none;}.cls-3{fill:#2f2f2f;}.cls-4{fill:#acadac;opacity:0.2;}.cls-5{fill:#ffc20e;}</style></defs><title>ASNs-light</title><g id="Layer_2" data-name="Layer 2"><g id="guides"><g class="cls-1"><rect class="cls-2" x="0.31" y="1.86" width="94.67" height="94.67" rx="21.4" ry="21.4"/><rect class="cls-2" x="15.13" y="12.36" width="65.01" height="73.66"/><circle class="cls-2" cx="47.64" cy="49.19" r="36.83"/><rect class="cls-2" x="15.13" y="12.36" width="65.01" height="73.66" transform="translate(96.83 1.55) rotate(90)"/><line class="cls-2" x1="0.31" y1="1.86" x2="94.97" y2="96.52"/><line class="cls-2" x1="94.97" y1="1.86" x2="0.31" y2="96.52"/><rect class="cls-2" x="0.31" y="1.86" width="94.67" height="94.67"/></g></g><g id="Icons"><g id="ASN"><path class="cls-3" d="M37.21,42.1a.75.75,0,0,1-.71-.5L35.58,39,33,39.9a.75.75,0,1,1-.5-1.41l3.34-1.18a.75.75,0,0,1,1,.46l1.18,3.34a.75.75,0,0,1-.46,1A.73.73,0,0,1,37.21,42.1Z"/><path class="cls-3" d="M26.12,57.21a.75.75,0,0,1-.33-.07.73.73,0,0,1-.38-.43l-1.17-3.33a.75.75,0,0,1,.45-1,.76.76,0,0,1,1,.46l.92,2.63,2.63-.93a.76.76,0,0,1,1,.46.75.75,0,0,1-.46,1l-3.33,1.17A.77.77,0,0,1,26.12,57.21Z"/><path class="cls-3" d="M26.63,55.91a.77.77,0,0,1-.36-.09.75.75,0,0,1-.3-1l8.87-16.17a.75.75,0,0,1,1-.29.74.74,0,0,1,.3,1L27.29,55.52A.76.76,0,0,1,26.63,55.91Z"/><path class="cls-3" d="M60.67,36.42a1.18,1.18,0,0,1-.25,0,.76.76,0,0,1-.46-1l1.18-3.34a.75.75,0,0,1,1-.45l3.34,1.17a.75.75,0,1,1-.5,1.41l-2.63-.92-.92,2.63A.75.75,0,0,1,60.67,36.42Z"/><path class="cls-3" d="M69.56,47.75a.77.77,0,0,1-.25,0L66,46.54a.75.75,0,0,1,.5-1.42l2.62.93L70,43.42a.75.75,0,1,1,1.41.5l-1.17,3.33A.75.75,0,0,1,69.56,47.75Z"/><path class="cls-3" d="M68.84,46.16a.76.76,0,0,1-.66-.39L62,34.39a.75.75,0,0,1,1.32-.72l6.2,11.38a.75.75,0,0,1-.3,1A.77.77,0,0,1,68.84,46.16Z"/><path class="cls-3" d="M55.32,78.41a.75.75,0,0,1-.43-.13.76.76,0,0,1-.19-1l1.36-2-2-1.36a.75.75,0,0,1-.19-1,.76.76,0,0,1,1-.19l2.56,1.79a.74.74,0,0,1,.19,1l-1.78,2.57A.75.75,0,0,1,55.32,78.41Z"/><path class="cls-3" d="M40.78,81.94a.72.72,0,0,1-.42-.13L37.79,80a.74.74,0,0,1-.19-1l1.79-2.57a.75.75,0,0,1,1-.19.76.76,0,0,1,.19,1l-1.36,2,2,1.36a.74.74,0,0,1,.19,1A.75.75,0,0,1,40.78,81.94Z"/><path class="cls-3" d="M40,79.88a.75.75,0,0,1-.73-.58.76.76,0,0,1,.56-.9l15.89-3.71a.75.75,0,0,1,.34,1.46L40.16,79.86A.47.47,0,0,1,40,79.88Z"/><g id="ASN3"><polyline class="cls-4" points="79.58 71.29 85.95 69.12 90.87 66.63 89.63 71.07 85.62 76.84 79.58 74.32"/><path class="cls-3" d="M65.47,74.38c-4,0-7-.83-7.52-2.84-.3-1.12.21-2.34,1.52-3.63a.75.75,0,0,1,1.06,0,.75.75,0,0,1,0,1.06c-.88.86-1.28,1.64-1.13,2.18C59.9,73,67,73.9,77.5,71.1a47.08,47.08,0,0,0,11.86-4.77c3.16-1.93,4.06-3.45,3.85-4.22a2.59,2.59,0,0,0-2.43-1.31.75.75,0,0,1,0-1.5,4,4,0,0,1,3.88,2.42c.47,1.76-1.09,3.8-4.52,5.89a48.74,48.74,0,0,1-12.25,4.94A51,51,0,0,1,65.47,74.38Z"/><path class="cls-3" d="M89.07,78.31c-4,0-11.07-4-17-8.75a54,54,0,0,1-9.86-9.92c-2.48-3.43-3.18-6-2-7.42.85-1.06,2.49-1.28,4.88-.64a.51.51,0,0,1,.17.07l.51.29A.75.75,0,0,1,66,53a.74.74,0,0,1-1,.28L64.53,53c-1.64-.42-2.81-.36-3.23.15s-.22,2.43,2.08,5.61A53.1,53.1,0,0,0,73,68.39c9,7.2,16.23,9.52,17.44,8,.38-.48.21-2-1.06-4.06a.54.54,0,0,1,0-.11l-.36-.88a.75.75,0,0,1,1.39-.56l.34.83c1.48,2.49,1.82,4.57.91,5.71A3,3,0,0,1,89.07,78.31Z"/><path class="cls-3" d="M75.4,81.06A16.38,16.38,0,1,1,81.24,80,16.3,16.3,0,0,1,75.4,81.06Zm0-31.16A14.83,14.83,0,1,0,88.94,70.77h0A14.83,14.83,0,0,0,75.43,49.9Z"/><path class="cls-3" d="M68.75,82.2A4,4,0,0,1,67,81.82c-1.52-.73-2.49-2.41-2.8-4.86a.75.75,0,0,1,1.49-.19c.17,1.34.64,3.07,2,3.69,1.48.71,3.76-.18,6.25-2.45a35,35,0,0,0,7.4-10.55c4.53-9.51,4.45-17.4,1.52-18.8-1.32-.62-3,.1-4.12.82a.75.75,0,0,1-.79-1.28c2.11-1.31,4-1.62,5.55-.89,4.16,2,3.81,11.12-.81,20.79a36.09,36.09,0,0,1-7.74,11C72.68,81.15,70.56,82.2,68.75,82.2Z"/><circle class="cls-5" cx="78.86" cy="72.6" r="3.48"/><path class="cls-3" d="M78.85,76.84a4.16,4.16,0,0,1-1.72-.37,4.24,4.24,0,1,1,5.59-2.14h0a4.25,4.25,0,0,1-2.35,2.23A4.44,4.44,0,0,1,78.85,76.84Zm0-7a2.73,2.73,0,1,0,1,5.29,2.79,2.79,0,0,0,1.52-1.44h0a2.71,2.71,0,0,0,.06-2.09A2.66,2.66,0,0,0,80,70.11,2.74,2.74,0,0,0,78.86,69.87Z"/></g><g id="ASN1"><path class="cls-4" d="M25.29,68.74l-2.2,14.6,2.2,1.74L30.6,86a28.54,28.54,0,0,0,1.6-2.5c.35-.72,1.73-5.43,1.73-5.43s-.19-4.21-.31-4.78-2.23-5.43-2.23-5.43Z"/><path class="cls-3" d="M16,95.24a2.71,2.71,0,0,1-.4,0c-1.24-.21-2.19-1.34-2.82-3.35a.75.75,0,0,1,.49-.94.76.76,0,0,1,.94.49c.44,1.39,1,2.22,1.64,2.32,1.9.33,5.68-5.78,7.5-16.47s.28-17.7-1.62-18c-.56-.09-1.3.38-2.09,1.35l-.67.75a.76.76,0,0,1-1.06,0,.73.73,0,0,1-.05-1l.64-.73c1.15-1.41,2.33-2,3.48-1.85,3.92.67,4.39,10.68,2.85,19.76C23.37,86.27,19.82,95.24,16,95.24Z"/><path class="cls-3" d="M32.44,86.43c-4.21,0-10.56-1.83-16.32-4.38A54.44,54.44,0,0,1,4.06,75C.79,72.28-.54,70,.2,68.31c.55-1.24,2.07-1.87,4.54-1.87h.68a.75.75,0,1,1,0,1.5H4.75c-1.78,0-2.91.36-3.18,1S2,71.31,5,73.8a52.76,52.76,0,0,0,11.72,6.88c10.55,4.66,18.11,5.07,18.89,3.3.32-.72-.44-2.09-2-3.66a.75.75,0,0,1,0-1.06.75.75,0,0,1,1.06,0c2.2,2.14,3,3.94,2.38,5.34S34.76,86.43,32.44,86.43Z"/><path class="cls-3" d="M18.38,92.72a17.35,17.35,0,0,1-2.67-.21A16.33,16.33,0,1,1,34.46,79h0A16.32,16.32,0,0,1,18.38,92.72Zm-.06-31.16A14.83,14.83,0,1,0,33,78.79h0a14.82,14.82,0,0,0-12.24-17A15.29,15.29,0,0,0,18.32,61.56Z"/><path class="cls-3" d="M9.13,90.22c-3.16,0-5.33-.94-6.26-2.72C.73,83.42,6.29,76.42,15.53,71.58a34.42,34.42,0,0,1,12.48-4c4-.35,6.74.59,7.82,2.64.78,1.5.57,3.41-.61,5.54l-.65,1.1a.74.74,0,0,1-1,.27.75.75,0,0,1-.27-1L33.92,75c.63-1.15,1.26-2.81.58-4.1-.77-1.46-3.09-2.13-6.36-1.85a33.09,33.09,0,0,0-11.91,3.85c-9.06,4.75-13.54,11-12,13.89.67,1.28,2.53,2,5.2,1.91a.8.8,0,0,1,.76.74.74.74,0,0,1-.74.76Z"/><circle class="cls-5" cx="24.44" cy="68.98" r="3.48"/><path class="cls-3" d="M24.43,73.21a4.22,4.22,0,1,1,3.88-2.5h0A4.26,4.26,0,0,1,24.43,73.21Zm0-7a2.71,2.71,0,1,0,1.11.23A2.69,2.69,0,0,0,24.44,66.25Z"/><circle class="cls-5" cx="10.48" cy="77.13" r="3.48"/><path class="cls-3" d="M10.48,81.37A4.29,4.29,0,0,1,8.76,81a4.23,4.23,0,1,1,3.23.09A4.39,4.39,0,0,1,10.48,81.37Zm0-7a2.73,2.73,0,1,0,1,5.29A2.79,2.79,0,0,0,13,78.25h0a2.74,2.74,0,0,0-1.39-3.61A2.7,2.7,0,0,0,10.49,74.4Z"/><circle class="cls-5" cx="21.8" cy="85.08" r="3.48"/><path class="cls-3" d="M21.8,89.32A4.2,4.2,0,0,1,20.08,89a4.24,4.24,0,0,1-2.14-5.59,4.23,4.23,0,0,1,5.59-2.14,4.24,4.24,0,0,1,2.14,5.59h0A4.24,4.24,0,0,1,21.8,89.32Zm0-7a2.78,2.78,0,0,0-1,.18A2.73,2.73,0,1,0,24.3,86.2h0a2.74,2.74,0,0,0-2.49-3.85Z"/></g><g id="ASN2"><polyline class="cls-4" points="40.9 26.16 42.15 33.62 51.01 28.52 49.69 25.93 44.08 24.55"/><path class="cls-3" d="M38,34.83a3.15,3.15,0,0,1-2.57-1c-.79-1-.76-2.45.09-4.38a.75.75,0,0,1,1-.38.76.76,0,0,1,.39,1c-.59,1.33-.7,2.33-.3,2.82,1.21,1.5,8.08-.6,16.5-7.42A46.92,46.92,0,0,0,62,16.27c2.1-3,2.3-4.8,1.8-5.42-.36-.45-1.23-.58-2.46-.37A.75.75,0,0,1,61.05,9c1.84-.31,3.14,0,3.87.9,1.15,1.42.55,3.91-1.72,7.22A48.6,48.6,0,0,1,54,26.62C48.47,31.12,41.84,34.83,38,34.83Z"/><path class="cls-3" d="M60,27.93A55.82,55.82,0,0,1,46.69,26c-9.44-2.45-18.93-7.13-17.93-11,.34-1.32,1.75-2.18,4.19-2.58a.75.75,0,0,1,.24,1.48c-1.72.28-2.81.82-3,1.47-.49,1.87,5.69,6.26,16.86,9.16s18.69,2.08,19.18.21c.2-.77-.78-2-2.62-3.28a.74.74,0,0,1-.18-1,.75.75,0,0,1,1-.19C67,22,68.09,23.65,67.7,25.13,67.19,27.11,64.15,27.93,60,27.93Z"/><path class="cls-3" d="M48,35.5A16.33,16.33,0,1,1,64.3,19.18,16.35,16.35,0,0,1,48,35.5ZM48,4.35A14.83,14.83,0,1,0,62.8,19.18,14.84,14.84,0,0,0,48,4.35Z"/><path class="cls-3" d="M46.55,38.79a4.21,4.21,0,0,1-.5,0c-2.3-.29-4.14-2.67-5.16-6.68a37.7,37.7,0,0,1-.5-13.73C41.78,7.49,46.45-.56,51,0c1.68.22,3.12,1.54,4.18,3.83l.44,1a.75.75,0,0,1-1.38.59l-.43-1c-.57-1.24-1.56-2.77-3-2.95-3.19-.39-7.59,6.32-9,17a36.18,36.18,0,0,0,.46,13.16c.85,3.33,2.28,5.36,3.91,5.57,1.43.18,3-1,4.56-3.36a.75.75,0,0,1,1.26.81C50.34,37.39,48.45,38.79,46.55,38.79Z"/><circle class="cls-5" cx="40.9" cy="23.14" r="3.48"/><path class="cls-3" d="M40.9,27.37A4.17,4.17,0,0,1,39.17,27a4.23,4.23,0,1,1,3.45-7.73,4.23,4.23,0,0,1-1.72,8.1Zm0-7a2.73,2.73,0,0,0-1.12,5.23,2.73,2.73,0,0,0,2.1.06,2.67,2.67,0,0,0,1.51-1.44h0A2.73,2.73,0,0,0,42,20.64,2.74,2.74,0,0,0,40.9,20.4Z"/><circle class="cls-5" cx="42.97" cy="10.93" r="3.48"/><path class="cls-3" d="M43,15.17a4.23,4.23,0,1,1,3.87-2.51,4.27,4.27,0,0,1-2.36,2.23A4.16,4.16,0,0,1,43,15.17Zm0-7a2.73,2.73,0,0,0-1.11,5.23A2.73,2.73,0,1,0,43,8.2Z"/><circle class="cls-5" cx="53.58" cy="26.16" r="3.48"/><path class="cls-3" d="M53.57,30.4a4.23,4.23,0,1,1,1.73-8.1,4.24,4.24,0,0,1,2.15,5.59h0A4.27,4.27,0,0,1,53.57,30.4Zm0-7a2.75,2.75,0,1,0,1.11.24A2.71,2.71,0,0,0,53.58,23.43Z"/></g><circle class="cls-5" cx="67.8" cy="64.76" r="3.48"/><path class="cls-3" d="M67.79,69a4.15,4.15,0,0,1-1.71-.37,4.23,4.23,0,1,1,5.67-5.38,4.19,4.19,0,0,1-.08,3.24A4.26,4.26,0,0,1,67.79,69Zm0-7a2.73,2.73,0,0,0-1.11,5.23,2.73,2.73,0,0,0,3.61-1.38h0a2.74,2.74,0,0,0-1.39-3.61A2.71,2.71,0,0,0,67.8,62Z"/></g></g></g></svg>