<svg xmlns="http://www.w3.org/2000/svg" viewBox="0 0 94.67 94.67"><defs><style>.cls-1{opacity:0.45;}.cls-2{fill:none;}.cls-3{fill:#acadac;opacity:0.2;}.cls-4{fill:#2f2f2f;}.cls-5{fill:#efefef;}.cls-6{fill:#ffc20e;}</style></defs><title>Botnets-light</title><g id="Layer_2" data-name="Layer 2"><g id="guides"><g class="cls-1"><rect class="cls-2" width="94.67" height="94.67" rx="21.4" ry="21.4"/><rect class="cls-2" x="14.83" y="10.5" width="65.01" height="73.66"/><circle class="cls-2" cx="47.33" cy="47.33" r="36.83"/><rect class="cls-2" x="14.83" y="10.5" width="65.01" height="73.66" transform="translate(94.67 0) rotate(90)"/><line class="cls-2" x2="94.67" y2="94.67"/><line class="cls-2" x1="94.67" y2="94.67"/><rect class="cls-2" width="94.67" height="94.67"/></g></g><g id="Icons"><g id="Botnets"><path class="cls-3" d="M38.31,17.57l4.86,3.06A8.08,8.08,0,0,0,47.39,22h.06a8.06,8.06,0,0,0,4.29-1.36l4.65-3V16.23s-6.13,2.48-9,2.48S38.86,16,38.86,16"/><path class="cls-3" d="M71.85,41.54l-1.24-4.89-2.14-5.53-2.72-2.34-8.65-2.1h0c4.37-4.89,4.65-12.41,4.65-12.41l-5,1.12-.5,4.69s-1.73,8-8.79,7.71S38.32,19.73,38,15.4l-5-1.12s.26,7.26,4.51,12.14c-1,.27-8.54,2.2-9.38,2.89a15.22,15.22,0,0,0-3.73,6.35c-.77,2.82-2.18,5.93-1.3,8.48s7.15,10.67,7.15,10.67l0-21.11,33.48.07.74,1,0,19.63,3.76-4.34s4-4.17,3.6-4.57S71.85,41.54,71.85,41.54Z"/><path class="cls-4" d="M47.35,28.55C42,28.55,37.58,23,37.58,16.1a.75.75,0,1,1,1.5,0c0,6,3.71,11,8.27,11s8.28-4.92,8.28-10.95a.75.75,0,0,1,1.5,0C57.13,23,52.75,28.55,47.35,28.55Z"/><path class="cls-4" d="M30.26,53.1a.75.75,0,0,1-.75-.75V34.82A1.87,1.87,0,0,1,31.37,33h32a1.87,1.87,0,0,1,1.86,1.87V52.23a.75.75,0,1,1-1.5,0V34.82a.36.36,0,0,0-.36-.37h-32a.36.36,0,0,0-.36.37V52.35A.76.76,0,0,1,30.26,53.1Z"/><path class="cls-5" d="M63.15,55.56H31.56a1.31,1.31,0,0,1-1.3-1.31v-1.7l34.19-.07v1.77A1.31,1.31,0,0,1,63.15,55.56Z"/><path class="cls-4" d="M63.15,56.31H31.56a2.05,2.05,0,0,1-2-2.06v-1.7a.75.75,0,0,1,.75-.75l34.19-.07a.67.67,0,0,1,.53.21.79.79,0,0,1,.22.54v1.77A2.05,2.05,0,0,1,63.15,56.31ZM31,53.3v1a.56.56,0,0,0,.55.56H63.15a.56.56,0,0,0,.55-.56v-1Z"/><path class="cls-4" d="M30.08,54.62a.74.74,0,0,1-.55-.24L24.6,49a10.33,10.33,0,0,1-2.05-9.38l1.61-5.85a9.11,9.11,0,0,1,7-6.56l6.3-1.27a.75.75,0,0,1,.29,1.48L31.5,28.66a7.66,7.66,0,0,0-5.9,5.49L24,40a8.79,8.79,0,0,0,1.74,8l4.9,5.38a.75.75,0,0,1-.05,1.06A.73.73,0,0,1,30.08,54.62Z"/><path class="cls-4" d="M64.63,54.62a.77.77,0,0,1-.51-.19.76.76,0,0,1,0-1.06L69,48a8.81,8.81,0,0,0,1.72-8l-1.61-5.85a7.66,7.66,0,0,0-5.9-5.49L56.92,27.4a.75.75,0,0,1,.29-1.48l6.3,1.27a9.11,9.11,0,0,1,7,6.56l1.61,5.85a10.3,10.3,0,0,1-2,9.35l-4.95,5.43A.74.74,0,0,1,64.63,54.62Z"/><path class="cls-4" d="M61.61,14.89a.77.77,0,0,1-.59-.28L53.5,5A7.67,7.67,0,0,0,41.21,5l-7.52,9.59a.75.75,0,0,1-1,.12.74.74,0,0,1-.13-1.05L40,4.09a9.18,9.18,0,0,1,14.65,0l7.52,9.59a.74.74,0,0,1-.13,1.05A.72.72,0,0,1,61.61,14.89Z"/><path class="cls-4" d="M47.42,19.46a9.75,9.75,0,0,1-3.21-.54l-8.32-3.21a.75.75,0,0,1,.54-1.4l8.29,3.2a8.35,8.35,0,0,0,5.43,0l8.12-3.19a.76.76,0,0,1,1,.42.75.75,0,0,1-.43,1l-8.15,3.21A10.08,10.08,0,0,1,47.42,19.46Z"/><path class="cls-4" d="M43,30.84a.74.74,0,0,1-.25-.05c-6.08-2.24-10.49-9.18-10.49-16.51a.75.75,0,0,1,1.5,0c0,6.72,4,13.07,9.5,15.1A.75.75,0,0,1,43,30.84Z"/><path class="cls-4" d="M51.7,30.84a.75.75,0,0,1-.25-1.46C57,27.35,61,21,61,14.28a.75.75,0,0,1,1.5,0C62.45,21.61,58,28.55,52,30.79A.75.75,0,0,1,51.7,30.84Z"/><path class="cls-4" d="M47.35,11.92a.38.38,0,0,1-.37-.38V3.78a.38.38,0,0,1,.75,0v7.76A.38.38,0,0,1,47.35,11.92Z"/><path class="cls-4" d="M47.35,16.42A.38.38,0,0,1,47,16V13.73a.38.38,0,1,1,.75,0V16A.38.38,0,0,1,47.35,16.42Z"/><path class="cls-4" d="M28,44.51H27a1.46,1.46,0,1,1,0-2.91h3.23a.37.37,0,0,1,.37.37.38.38,0,0,1-.37.38H27a.71.71,0,1,0,0,1.41H28a.38.38,0,0,1,.38.38A.37.37,0,0,1,28,44.51Z"/><path class="cls-4" d="M30.16,40.24H28a.36.36,0,0,1-.37-.37.37.37,0,0,1,.37-.38h2.13a.38.38,0,0,1,.37.38A.37.37,0,0,1,30.16,40.24Z"/><path class="cls-4" d="M67.75,44.51H66.68a.37.37,0,0,1-.38-.37.38.38,0,0,1,.38-.38h1.07a.71.71,0,1,0,0-1.41H64.52a.38.38,0,0,1-.37-.38.37.37,0,0,1,.37-.37h3.23a1.46,1.46,0,1,1,0,2.91Z"/><path class="cls-4" d="M66.68,40.24H64.55a.36.36,0,0,1-.37-.37.37.37,0,0,1,.37-.38h2.13a.38.38,0,0,1,.37.38A.37.37,0,0,1,66.68,40.24Z"/><path class="cls-4" d="M19.66,70.41a.75.75,0,0,1-.75-.75V67.25A4.29,4.29,0,0,1,23.19,63H40.61a2.79,2.79,0,0,0,2.79-2.79V58a.75.75,0,0,1,1.5,0v2.18a4.29,4.29,0,0,1-4.29,4.29H23.19a2.79,2.79,0,0,0-2.78,2.79v2.41A.76.76,0,0,1,19.66,70.41Z"/><path class="cls-4" d="M19.66,71.43a.73.73,0,0,1-.53-.22l-2.5-2.5a.74.74,0,0,1,0-1.06.75.75,0,0,1,1.06,0l2,2,2-2a.75.75,0,0,1,1.06,1.06l-2.5,2.5A.74.74,0,0,1,19.66,71.43Z"/><path class="cls-4" d="M75.05,70.41a.76.76,0,0,1-.75-.75V67.25a2.79,2.79,0,0,0-2.78-2.79H54.09a4.29,4.29,0,0,1-4.28-4.29V58a.75.75,0,0,1,1.5,0v2.18A2.79,2.79,0,0,0,54.09,63H71.52a4.29,4.29,0,0,1,4.28,4.29v2.41A.75.75,0,0,1,75.05,70.41Z"/><path class="cls-4" d="M75.05,71.43a.74.74,0,0,1-.53-.22L72,68.71a.75.75,0,0,1,1.06-1.06l2,2,2-2a.75.75,0,0,1,1.06,1.06l-2.5,2.5A.73.73,0,0,1,75.05,71.43Z"/><path class="cls-6" d="M53.87,42.49a4.3,4.3,0,0,0-2.92-1,4.19,4.19,0,0,0,.7-2.35,4.3,4.3,0,0,0-1.79-3.49c-.11-.07-.24.06-.16.16a3,3,0,0,1,.69,2.34,3.06,3.06,0,0,1-6.1-.37,3,3,0,0,1,.72-2,.11.11,0,0,0-.15-.16,4.29,4.29,0,0,0-1.1,5.84,4.29,4.29,0,0,0-4.43,5,.12.12,0,0,0,.23,0,3.06,3.06,0,1,1,3.31,3.31.12.12,0,0,0,0,.23,4.28,4.28,0,0,0,3.74-1.2,4.44,4.44,0,0,0,.74-1,4.49,4.49,0,0,0,.75,1,4.28,4.28,0,0,0,3.74,1.2.12.12,0,0,0,0-.23,3,3,0,0,1-2.13-1.15,3.06,3.06,0,1,1,5.45-2.16.12.12,0,0,0,.23,0A4.29,4.29,0,0,0,53.87,42.49ZM47.35,45.1a1.57,1.57,0,1,1,1.57-1.57A1.56,1.56,0,0,1,47.35,45.1Z"/><path class="cls-6" d="M47.35,48.31a4.78,4.78,0,1,1,4.78-4.78A4.78,4.78,0,0,1,47.35,48.31Zm0-8.8a4,4,0,1,0,4,4A4,4,0,0,0,47.35,39.51Z"/><rect class="cls-3" x="84.34" y="76.96" width="2.7" height="13"/><rect class="cls-3" x="29.25" y="76.96" width="2.7" height="13"/><path class="cls-5" d="M91.22,93.51H58.5a2.72,2.72,0,0,1-2.42-2.75h0l37.56-.07A2.79,2.79,0,0,1,91.22,93.51Z"/><path class="cls-4" d="M87.8,91.22a.75.75,0,0,1-.75-.75V77H62.67V90.47a.75.75,0,0,1-1.5,0V76.23a.76.76,0,0,1,.75-.75H87.8a.75.75,0,0,1,.75.75V90.47A.74.74,0,0,1,87.8,91.22Z"/><path class="cls-4" d="M59.23,91.33a.75.75,0,0,1-.75-.75v-16a1.77,1.77,0,0,1,1.77-1.77H89.47a1.78,1.78,0,0,1,1.78,1.77V90.46a.75.75,0,0,1-1.5,0V74.54a.28.28,0,0,0-.28-.27H60.25a.27.27,0,0,0-.27.27v16A.76.76,0,0,1,59.23,91.33Z"/><path class="cls-4" d="M91.22,94.26H58.5a3.49,3.49,0,0,1-3.17-3.5.75.75,0,0,1,.75-.75l37.56-.07h0a.75.75,0,0,1,.75.75C94.39,92.38,93,94.26,91.22,94.26ZM57,91.51a1.79,1.79,0,0,0,1.52,1.25H91.22a1.86,1.86,0,0,0,1.53-1.32Z"/><path class="cls-6" d="M79.59,83.09a3.07,3.07,0,0,0-2.12-.71,3.12,3.12,0,0,0-.79-4.24c-.08,0-.18,0-.12.12a2.22,2.22,0,1,1-3.92,1.43,2.16,2.16,0,0,1,.52-1.43.08.08,0,0,0-.11-.12,3.09,3.09,0,0,0-.8,4.24A3.12,3.12,0,0,0,69,86a.08.08,0,0,0,.16,0,2.19,2.19,0,0,1,.64-1.37,2.22,2.22,0,1,1,1.77,3.78.08.08,0,0,0,0,.16,3.1,3.1,0,0,0,2.71-.87,3.14,3.14,0,0,0,.54-.73,3.11,3.11,0,0,0,3.26,1.6.08.08,0,0,0,0-.16,2.22,2.22,0,1,1,1.77-3.78A2.14,2.14,0,0,1,80.52,86a.08.08,0,0,0,.16,0A3.09,3.09,0,0,0,79.59,83.09ZM74.86,85A1.14,1.14,0,1,1,76,83.84,1.14,1.14,0,0,1,74.86,85Z"/><path class="cls-6" d="M74.86,87.41a3.57,3.57,0,1,1,3.57-3.57A3.57,3.57,0,0,1,74.86,87.41Zm0-6.38a2.82,2.82,0,1,0,2.82,2.81A2.82,2.82,0,0,0,74.86,81Z"/><path class="cls-5" d="M36.21,93.51H3.48a2.73,2.73,0,0,1-2.42-2.75h0l37.57-.07A2.79,2.79,0,0,1,36.21,93.51Z"/><path class="cls-4" d="M6.9,91.22a.75.75,0,0,1-.75-.75V76.23a.76.76,0,0,1,.75-.75H32.79a.79.79,0,0,1,.54.22.74.74,0,0,1,.21.53V90.47a.75.75,0,0,1-1.5,0V77H7.65V90.47A.74.74,0,0,1,6.9,91.22Z"/><path class="cls-4" d="M4.21,91.33a.76.76,0,0,1-.75-.75v-16a1.78,1.78,0,0,1,1.77-1.77H34.46a1.77,1.77,0,0,1,1.77,1.77V90.46a.75.75,0,0,1-1.5,0V74.54a.27.27,0,0,0-.27-.27H5.23a.27.27,0,0,0-.27.27v16A.75.75,0,0,1,4.21,91.33Z"/><path class="cls-4" d="M36.21,94.26H3.48a3.49,3.49,0,0,1-3.17-3.5A.76.76,0,0,1,1.06,90l37.57-.07h0a.75.75,0,0,1,.75.75C39.38,92.38,38,94.26,36.21,94.26ZM2,91.51a1.79,1.79,0,0,0,1.51,1.25H36.21a1.85,1.85,0,0,0,1.52-1.32Z"/><path class="cls-6" d="M24.58,83.09a3.08,3.08,0,0,0-2.12-.71,3.09,3.09,0,0,0,.51-1.7,3.14,3.14,0,0,0-1.3-2.54c-.08,0-.18,0-.12.12a2.22,2.22,0,1,1-3.92,1.43,2.16,2.16,0,0,1,.52-1.43c.06-.07,0-.18-.11-.12a3.09,3.09,0,0,0-.8,4.24,3.08,3.08,0,0,0-2.12.71A3.11,3.11,0,0,0,14,86a.09.09,0,0,0,.17,0,2.14,2.14,0,0,1,.64-1.37,2.22,2.22,0,1,1,1.77,3.78.08.08,0,0,0,0,.16A3.11,3.11,0,0,0,19.85,87a3.14,3.14,0,0,0,.54.73,3.1,3.1,0,0,0,2.71.87.08.08,0,0,0,0-.16A2.22,2.22,0,1,1,25.51,86a.08.08,0,0,0,.16,0A3.09,3.09,0,0,0,24.58,83.09ZM19.85,85A1.14,1.14,0,1,1,21,83.84,1.14,1.14,0,0,1,19.85,85Z"/><path class="cls-6" d="M19.85,87.41a3.57,3.57,0,1,1,3.57-3.57A3.57,3.57,0,0,1,19.85,87.41Zm0-6.38a2.82,2.82,0,1,0,2.82,2.81A2.81,2.81,0,0,0,19.85,81Z"/></g></g></g></svg>