<svg xmlns="http://www.w3.org/2000/svg" viewBox="0 0 94.85 94.67"><defs><style>.cls-1{isolation:isolate;}.cls-2{opacity:0.45;}.cls-3{fill:none;}.cls-4,.cls-6{fill:#acadac;}.cls-4{opacity:0.2;}.cls-5{fill:#ffc20e;}.cls-6{opacity:0.16;}.cls-7{fill:#2f2f2f;}.cls-8,.cls-9{fill:#efefef;}.cls-9{mix-blend-mode:multiply;}</style></defs><title>Bots-light</title><g class="cls-1"><g id="Layer_2" data-name="Layer 2"><g id="guides"><g class="cls-2"><rect class="cls-3" x="0.11" width="94.67" height="94.67" rx="21.4" ry="21.4"/><rect class="cls-3" x="14.93" y="10.5" width="65.01" height="73.66"/><circle class="cls-3" cx="47.44" cy="47.33" r="36.83"/><rect class="cls-3" x="14.93" y="10.5" width="65.01" height="73.66" transform="translate(94.77 -0.11) rotate(90)"/><line class="cls-3" x1="0.11" x2="94.77" y2="94.67"/><line class="cls-3" x1="94.77" x2="0.11" y2="94.67"/><rect class="cls-3" x="0.11" width="94.67" height="94.67"/></g></g><g id="Icons"><g id="Bots-light_bg" data-name="Bots-light bg"><rect class="cls-4" x="77.82" y="28.4" width="4.35" height="40.62"/><path class="cls-5" d="M60.21,47.91A8.48,8.48,0,0,0,54.48,46a8.42,8.42,0,0,0-2.15-11.45.22.22,0,0,0-.3.32,6,6,0,1,1-10.61,3.85,5.93,5.93,0,0,1,1.41-3.85.23.23,0,0,0-.3-.33A8.4,8.4,0,0,0,40.38,46,8.4,8.4,0,0,0,31.7,55.8a.22.22,0,0,0,.44,0,6,6,0,0,1,10.68-3.2,6,6,0,0,1-4.18,9.71.22.22,0,0,0,0,.44,8.41,8.41,0,0,0,8.79-4.33,8.37,8.37,0,0,0,8.79,4.33.22.22,0,0,0,0-.44A6,6,0,1,1,61,52.07a5.92,5.92,0,0,1,1.73,3.71.22.22,0,0,0,.44,0A8.4,8.4,0,0,0,60.21,47.91ZM47.43,53A3.07,3.07,0,1,1,50.49,50,3.06,3.06,0,0,1,47.43,53Z"/><path class="cls-5" d="M47.43,59.33A9.37,9.37,0,1,1,56.8,50,9.39,9.39,0,0,1,47.43,59.33Zm0-17.24A7.87,7.87,0,1,0,55.3,50,7.89,7.89,0,0,0,47.43,42.09Z"/><path class="cls-6" d="M36.08,69.91H58.77a0,0,0,0,1,0,0v0A2.77,2.77,0,0,1,56,72.68H38.86a2.77,2.77,0,0,1-2.77-2.77v0A0,0,0,0,1,36.08,69.91Z"/><path class="cls-7" d="M82.87,69.91h0a.75.75,0,0,1-.75-.75V28.38H12.73V69.16a.75.75,0,0,1-1.5,0v-41a1.28,1.28,0,0,1,1.28-1.29H82.34a1.28,1.28,0,0,1,1.28,1.29v41A.74.74,0,0,1,82.87,69.91Z"/><path class="cls-7" d="M9,52.56a.38.38,0,0,1-.37-.38L8.53,34.41A.37.37,0,0,1,8.9,34h0a.38.38,0,0,1,.38.37l.14,17.78a.38.38,0,0,1-.37.38Z"/><path class="cls-7" d="M8.9,65.1a.36.36,0,0,1-.37-.37v-9.3a.37.37,0,0,1,.37-.38.38.38,0,0,1,.38.38v9.3A.37.37,0,0,1,8.9,65.1Z"/><path class="cls-8" d="M88.45,76.12H6.4A5.65,5.65,0,0,1,.75,70.47v-.6L94.1,69.7v.77A5.65,5.65,0,0,1,88.45,76.12Z"/><path class="cls-7" d="M88.45,76.87H6.4A6.41,6.41,0,0,1,0,70.47v-.6a.74.74,0,0,1,.75-.75L94.1,69h0a.74.74,0,0,1,.53.21.79.79,0,0,1,.22.54v.77A6.41,6.41,0,0,1,88.45,76.87ZM1.5,70.61a4.91,4.91,0,0,0,4.9,4.76H88.45a4.9,4.9,0,0,0,4.9-4.9v0Z"/><path class="cls-9" d="M36.08,69.91H58.77a0,0,0,0,1,0,0v0A2.77,2.77,0,0,1,56,72.68H38.86a2.77,2.77,0,0,1-2.77-2.77v0A0,0,0,0,1,36.08,69.91Z"/><path class="cls-7" d="M56,73.18H38.86a3.28,3.28,0,0,1-3.28-3.27.5.5,0,0,1,.5-.5H58.77a.5.5,0,0,1,.5.5A3.28,3.28,0,0,1,56,73.18ZM36.64,70.41a2.28,2.28,0,0,0,2.22,1.77H56a2.27,2.27,0,0,0,2.21-1.77Z"/><path class="cls-7" d="M51.5,25.27H47.43a.5.5,0,0,1-.5-.5.5.5,0,0,1,.5-.5H51.5a.51.51,0,0,1,.5.5A.5.5,0,0,1,51.5,25.27Z"/><circle class="cls-7" cx="44.37" cy="24.77" r="1.01"/><rect class="cls-4" x="0.26" y="76.76" width="94.34" height="7.38"/><path class="cls-7" d="M6.17,70.17a.76.76,0,0,1-.75-.75V24.31a3.23,3.23,0,0,1,3.23-3.23H86.2a3.23,3.23,0,0,1,3.23,3.23V56.58a.75.75,0,0,1-1.5,0V24.31a1.73,1.73,0,0,0-1.73-1.73H8.65a1.73,1.73,0,0,0-1.73,1.73V69.42A.76.76,0,0,1,6.17,70.17Z"/><path class="cls-7" d="M88.68,70.17a.76.76,0,0,1-.75-.75V61.63a.75.75,0,1,1,1.5,0v7.79A.75.75,0,0,1,88.68,70.17Z"/></g></g></g></g></svg>