<svg xmlns="http://www.w3.org/2000/svg" viewBox="0 0 95.13 94.67"><defs><style>.cls-1{opacity:0.45;}.cls-2{fill:none;}.cls-3{fill:#acadac;opacity:0.2;}.cls-4{fill:#2f2f2f;}.cls-5{fill:#ffc20e;}</style></defs><title>DDoS-light</title><g id="Layer_2" data-name="Layer 2"><g id="guides"><g class="cls-1"><rect class="cls-2" x="0.29" width="94.67" height="94.67" rx="21.4" ry="21.4"/><rect class="cls-2" x="15.12" y="10.5" width="65.01" height="73.66"/><circle class="cls-2" cx="47.62" cy="47.33" r="36.83"/><rect class="cls-2" x="15.12" y="10.5" width="65.01" height="73.66" transform="translate(94.95 -0.29) rotate(90)"/><line class="cls-2" x1="0.29" x2="94.95" y2="94.67"/><line class="cls-2" x1="94.95" x2="0.29" y2="94.67"/><rect class="cls-2" x="0.29" width="94.67" height="94.67"/></g></g><g id="Icons"><g id="DDoS"><polygon class="cls-3" points="78.98 70.65 4.7 70.65 1.69 69.81 0.26 65.81 83.76 65.81 82.32 69.81 78.98 70.65"/><polygon class="cls-3" points="78.98 93.82 4.7 93.82 1.69 92.98 0.26 88.97 83.76 88.97 82.32 92.98 78.98 93.82"/><path class="cls-4" d="M80.57,70.8H3.11A3.11,3.11,0,0,1,0,67.69V52.2a3.11,3.11,0,0,1,3.11-3.11H80.57a3.11,3.11,0,0,1,3.11,3.11V67.69A3.11,3.11,0,0,1,80.57,70.8ZM3.11,50.59A1.61,1.61,0,0,0,1.5,52.2V67.69A1.61,1.61,0,0,0,3.11,69.3H80.57a1.61,1.61,0,0,0,1.61-1.61V52.2a1.61,1.61,0,0,0-1.61-1.61Z"/><path class="cls-4" d="M15.32,60.65H5.89a.75.75,0,1,1,0-1.5h9.43a.75.75,0,0,1,0,1.5Z"/><path class="cls-4" d="M28.84,60.65H19.42a.75.75,0,1,1,0-1.5h9.42a.75.75,0,0,1,0,1.5Z"/><path class="cls-4" d="M43.09,60.65H33.66a.75.75,0,0,1,0-1.5h9.43a.75.75,0,0,1,0,1.5Z"/><path class="cls-4" d="M15.32,56.58H5.89a.75.75,0,0,1,0-1.5h9.43a.75.75,0,1,1,0,1.5Z"/><path class="cls-4" d="M28.84,56.58H19.42a.75.75,0,0,1,0-1.5h9.42a.75.75,0,1,1,0,1.5Z"/><path class="cls-4" d="M43.09,56.58H33.66a.75.75,0,0,1,0-1.5h9.43a.75.75,0,0,1,0,1.5Z"/><circle class="cls-5" cx="61" cy="61.88" r="1.62"/><circle class="cls-5" cx="55.52" cy="61.88" r="1.62"/><path class="cls-4" d="M48.44,70.46a.74.74,0,0,1-.75-.75V55a.75.75,0,1,1,1.5,0V69.71A.75.75,0,0,1,48.44,70.46Z"/><path class="cls-4" d="M77.7,56.58H53.55a.75.75,0,0,1,0-1.5H77.7a.75.75,0,0,1,0,1.5Z"/><rect class="cls-4" x="5.89" y="70.05" width="72.95" height="3.99"/><path class="cls-4" d="M80.57,94.57H3.11A3.12,3.12,0,0,1,0,91.46V76a3.12,3.12,0,0,1,3.11-3.11H80.57A3.11,3.11,0,0,1,83.68,76v15.5A3.11,3.11,0,0,1,80.57,94.57ZM3.11,74.35A1.62,1.62,0,0,0,1.5,76v15.5a1.61,1.61,0,0,0,1.61,1.61H80.57a1.61,1.61,0,0,0,1.61-1.61V76a1.62,1.62,0,0,0-1.61-1.61Z"/><path class="cls-4" d="M15.32,84.42H5.89a.75.75,0,0,1,0-1.5h9.43a.75.75,0,1,1,0,1.5Z"/><path class="cls-4" d="M28.84,84.42H19.42a.75.75,0,0,1,0-1.5h9.42a.75.75,0,1,1,0,1.5Z"/><path class="cls-4" d="M43.09,84.42H33.66a.75.75,0,0,1,0-1.5h9.43a.75.75,0,0,1,0,1.5Z"/><path class="cls-4" d="M15.32,80.35H5.89a.75.75,0,0,1,0-1.5h9.43a.75.75,0,0,1,0,1.5Z"/><path class="cls-4" d="M28.84,80.35H19.42a.75.75,0,0,1,0-1.5h9.42a.75.75,0,1,1,0,1.5Z"/><path class="cls-4" d="M43.09,80.35H33.66a.75.75,0,0,1,0-1.5h9.43a.75.75,0,0,1,0,1.5Z"/><circle class="cls-5" cx="61" cy="85.65" r="1.62"/><circle class="cls-5" cx="55.52" cy="85.65" r="1.62"/><path class="cls-4" d="M48.44,94.23a.75.75,0,0,1-.75-.75V79.6a.75.75,0,0,1,1.5,0V93.48A.76.76,0,0,1,48.44,94.23Z"/><path class="cls-4" d="M77.7,80.35H53.55a.75.75,0,1,1,0-1.5H77.7a.75.75,0,1,1,0,1.5Z"/><path class="cls-5" d="M62.68,32.77s.67,5.12-2.08,7.87c-2,2-5.23,2.19-6.87,2.15a1.09,1.09,0,0,1-1.07-1.07c0-1.64.16-4.88,2.15-6.87C57.56,32.1,62.68,32.77,62.68,32.77Z"/><path class="cls-4" d="M54.12,43.54h-.41a1.85,1.85,0,0,1-1.8-1.8c0-1.84.2-5.25,2.37-7.42,3-3,8.28-2.33,8.5-2.3a.76.76,0,0,1,.65.65c0,.22.68,5.53-2.3,8.5C59.11,43.19,56,43.54,54.12,43.54Zm7.19-10.09c-1.59,0-4.31.27-6,1.93s-2,4.72-1.93,6.32a.34.34,0,0,0,.34.34c1.6,0,4.55-.15,6.32-1.93,1.93-1.93,2-5.28,1.92-6.65Z"/><polyline class="cls-5" points="60.98 33.99 59.87 30.82 63.44 27.25 64.71 30.86 61.59 33.99"/><path class="cls-4" d="M61,34.74a.73.73,0,0,1-.7-.5l-1.12-3.17a.75.75,0,0,1,.18-.78l3.57-3.57a.75.75,0,0,1,1.24.28l1.27,3.62a.78.78,0,0,1-.18.78l-3.12,3.12a.75.75,0,0,1-.83.15l-.06,0A.69.69,0,0,1,61,34.74ZM60.73,31l.72,2.05,2.39-2.39-.71-2.05Z"/><polyline class="cls-5" points="61.27 34.48 64.76 35.71 68.33 32.14 64.71 30.86 62.51 33.07"/><path class="cls-4" d="M64.76,36.46a.7.7,0,0,1-.25-.05L61,35.19a.75.75,0,0,1,.5-1.42l3,1.07L67,32.45l-2-.72L63,33.6a.77.77,0,0,1-1.07,0,.75.75,0,0,1,0-1.06l2.21-2.21a.74.74,0,0,1,.78-.17l3.62,1.27a.75.75,0,0,1,.48.54.79.79,0,0,1-.2.7l-3.57,3.57A.79.79,0,0,1,64.76,36.46Z"/><line class="cls-5" x1="60.17" y1="35.4" x2="66.12" y2="29.45"/><path class="cls-4" d="M60.17,36.15a.74.74,0,0,1-.53-.22.75.75,0,0,1,0-1.06l6-5.95A.75.75,0,0,1,66.65,30l-5.94,5.95A.75.75,0,0,1,60.17,36.15Z"/><path class="cls-5" d="M30.64,32.77s.67,5.12-2.08,7.87c-2,2-5.24,2.19-6.87,2.15a1.08,1.08,0,0,1-1.07-1.07c-.05-1.64.15-4.88,2.14-6.87C25.51,32.1,30.64,32.77,30.64,32.77Z"/><path class="cls-4" d="M22.07,43.54h-.4a1.84,1.84,0,0,1-1.8-1.8c-.05-1.84.19-5.25,2.36-7.42,3-3,8.28-2.33,8.51-2.3a.74.74,0,0,1,.64.65c0,.22.69,5.53-2.29,8.5C27.07,43.19,24,43.54,22.07,43.54Zm7.2-10.09c-1.59,0-4.31.27-6,1.93s-2,4.72-1.92,6.32a.34.34,0,0,0,.34.34c1.6,0,4.54-.15,6.32-1.93s2-5.28,1.91-6.65Z"/><polyline class="cls-5" points="28.94 33.99 27.82 30.82 31.39 27.25 32.66 30.86 29.54 33.99"/><path class="cls-4" d="M28.94,34.74a.75.75,0,0,1-.71-.5l-1.11-3.17a.74.74,0,0,1,.17-.78l3.57-3.57a.76.76,0,0,1,.7-.2.73.73,0,0,1,.54.48l1.27,3.62a.75.75,0,0,1-.17.78l-3.13,3.12a.74.74,0,0,1-.82.15l-.06,0A.73.73,0,0,1,28.94,34.74ZM28.69,31l.72,2.05,2.39-2.39-.72-2.05Z"/><polyline class="cls-5" points="29.23 34.48 32.71 35.71 36.28 32.14 32.66 30.86 30.46 33.07"/><path class="cls-4" d="M32.71,36.46a.74.74,0,0,1-.25-.05L29,35.19a.75.75,0,0,1,.5-1.42l3,1.07,2.39-2.39-2-.72L31,33.6a.75.75,0,0,1-1.06-1.06l2.2-2.21a.75.75,0,0,1,.78-.17l3.62,1.27a.75.75,0,0,1,.28,1.24l-3.57,3.57A.75.75,0,0,1,32.71,36.46Z"/><line class="cls-5" x1="28.13" y1="35.4" x2="34.08" y2="29.45"/><path class="cls-4" d="M28.13,36.15a.74.74,0,0,1-.53-.22.75.75,0,0,1,0-1.06l5.95-5.95A.75.75,0,0,1,34.61,30l-5.95,5.95A.74.74,0,0,1,28.13,36.15Z"/><path class="cls-5" d="M84.11,34.07s.67,5.12-2.08,7.87c-2,2-5.23,2.19-6.87,2.15A1.09,1.09,0,0,1,74.09,43c0-1.63.15-4.88,2.15-6.87C79,33.4,84.11,34.07,84.11,34.07Z"/><path class="cls-4" d="M75.54,44.85h-.4a1.85,1.85,0,0,1-1.8-1.8c0-1.84.2-5.25,2.37-7.42,3-3,8.28-2.33,8.5-2.3a.76.76,0,0,1,.65.65c0,.23.68,5.53-2.3,8.5C80.54,44.5,77.44,44.85,75.54,44.85Zm7.2-10.1c-1.59,0-4.31.27-6,1.93s-2,4.72-1.93,6.32a.34.34,0,0,0,.34.34c1.61,0,4.55-.15,6.32-1.93,1.93-1.93,2-5.28,1.92-6.64Z"/><polyline class="cls-5" points="82.41 35.29 81.3 32.12 84.87 28.55 86.14 32.17 83.02 35.29"/><path class="cls-4" d="M82.41,36a.73.73,0,0,1-.7-.5l-1.12-3.17a.75.75,0,0,1,.18-.78L84.34,28a.74.74,0,0,1,.69-.2.76.76,0,0,1,.55.48l1.27,3.62a.78.78,0,0,1-.18.78l-3.12,3.12a.78.78,0,0,1-.83.16l-.06,0A.69.69,0,0,1,82.41,36Zm-.25-3.72.72,2L85.27,32l-.71-2Z"/><polyline class="cls-5" points="82.7 35.78 86.19 37.01 89.76 33.44 86.14 32.17 83.93 34.37"/><path class="cls-4" d="M86.19,37.76a1,1,0,0,1-.25,0l-3.49-1.23a.75.75,0,0,1-.46-1,.74.74,0,0,1,1-.46l3,1.06,2.39-2.39-2-.72L84.46,34.9a.74.74,0,0,1-1.06,0,.75.75,0,0,1,0-1.06l2.21-2.2a.73.73,0,0,1,.78-.18L90,32.73a.76.76,0,0,1,.49.54.78.78,0,0,1-.2.7l-3.57,3.57A.79.79,0,0,1,86.19,37.76Z"/><line class="cls-5" x1="81.6" y1="36.7" x2="87.55" y2="30.76"/><path class="cls-4" d="M81.6,37.45a.74.74,0,0,1-.53-.22.75.75,0,0,1,0-1.06l6-5.94a.74.74,0,0,1,1.06,0,.75.75,0,0,1,0,1.06l-6,5.94A.71.71,0,0,1,81.6,37.45Z"/><path class="cls-5" d="M86,9.43s1,7.85-3.19,12.06c-3.05,3.06-8,3.36-10.52,3.29a1.67,1.67,0,0,1-1.64-1.64c-.07-2.5.23-7.47,3.29-10.52C78.1,8.41,86,9.43,86,9.43Z"/><path class="cls-4" d="M72.82,25.54h-.6a2.44,2.44,0,0,1-2.37-2.38c-.07-2.75.29-7.85,3.51-11.07,4.42-4.43,12.35-3.45,12.69-3.4a.74.74,0,0,1,.65.64c0,.34,1,8.27-3.41,12.69C80.29,25,75.67,25.54,72.82,25.54Zm11-15.47c-2.51,0-6.8.43-9.44,3.08-2.83,2.82-3.14,7.46-3.07,10a.94.94,0,0,0,.91.92c2.51.06,7.15-.25,10-3.08,3.26-3.26,3.16-9,3-10.84C84.92,10.1,84.44,10.07,83.86,10.07Z"/><polyline class="cls-5" points="83.14 11.31 81.43 6.45 86.89 0.98 88.84 6.52 84.06 11.3"/><path class="cls-4" d="M83.13,12.06a.76.76,0,0,1-.7-.5L80.72,6.69a.74.74,0,0,1,.18-.78L86.37.45A.73.73,0,0,1,87.6.73l2,5.54a.76.76,0,0,1-.18.78l-4.78,4.78a.75.75,0,0,1-1,.06.59.59,0,0,1-.22.12A.7.7,0,0,1,83.13,12.06Zm-.84-5.42,1.4,4L88,6.32l-1.4-4Z"/><polyline class="cls-5" points="83.58 12.06 88.92 13.93 94.38 8.46 88.84 6.52 85.47 9.89"/><path class="cls-4" d="M88.92,14.68a.69.69,0,0,1-.25,0l-5.34-1.87a.75.75,0,1,1,.5-1.42l4.89,1.72L93,8.78l-4-1.4-3,3a.75.75,0,1,1-1.06-1.06L88.31,6a.74.74,0,0,1,.78-.18l5.54,2A.75.75,0,0,1,94.91,9l-5.46,5.47A.74.74,0,0,1,88.92,14.68Z"/><line class="cls-5" x1="81.9" y1="13.46" x2="91" y2="4.36"/><path class="cls-4" d="M81.9,14.21a.71.71,0,0,1-.53-.22.74.74,0,0,1,0-1.06l9.1-9.1a.75.75,0,1,1,1.06,1.06L82.43,14A.74.74,0,0,1,81.9,14.21Z"/><path class="cls-5" d="M58.75,12.14s1,7.85-3.19,12.06c-3.06,3.06-8,3.36-10.52,3.29a1.68,1.68,0,0,1-1.65-1.64c-.06-2.5.24-7.47,3.29-10.52C50.9,11.12,58.75,12.14,58.75,12.14Z"/><path class="cls-4" d="M45.62,28.25H45a2.44,2.44,0,0,1-2.38-2.37c-.07-2.75.29-7.85,3.51-11.07,4.43-4.43,12.36-3.45,12.69-3.4a.73.73,0,0,1,.65.64c0,.34,1,8.27-3.4,12.69C53.09,27.73,48.46,28.25,45.62,28.25Zm11-15.47c-2.51,0-6.8.43-9.45,3.08-2.82,2.82-3.13,7.46-3.07,10a.94.94,0,0,0,.92.91c2.5.07,7.15-.24,10-3.07,3.25-3.25,3.15-9,3-10.84C57.71,12.81,57.23,12.78,56.66,12.78Z"/><polyline class="cls-5" points="55.93 14.02 54.22 9.15 59.69 3.69 61.64 9.23 56.86 14.01"/><path class="cls-4" d="M55.93,14.77a.76.76,0,0,1-.71-.5L53.51,9.4a.78.78,0,0,1,.18-.78l5.47-5.46a.74.74,0,0,1,1.24.28l2,5.54a.78.78,0,0,1-.18.78l-4.78,4.78a.75.75,0,0,1-1,.06.68.68,0,0,1-.22.12A.74.74,0,0,1,55.93,14.77Zm-.84-5.42,1.39,4L60.77,9l-1.39-4Z"/><polyline class="cls-5" points="56.37 14.77 61.71 16.64 67.18 11.18 61.64 9.23 58.26 12.61"/><path class="cls-4" d="M61.71,17.39a.73.73,0,0,1-.25,0l-5.34-1.87a.75.75,0,0,1-.45-1,.74.74,0,0,1,.95-.46l4.89,1.72,4.3-4.29-4-1.4-3,3a.74.74,0,0,1-1.06,0,.75.75,0,0,1,0-1.06L61.11,8.7a.73.73,0,0,1,.78-.18l5.54,2a.75.75,0,0,1,.48.54.74.74,0,0,1-.2.69l-5.47,5.47A.71.71,0,0,1,61.71,17.39Z"/><line class="cls-5" x1="54.69" y1="16.17" x2="63.8" y2="7.07"/><path class="cls-4" d="M54.69,16.92a.74.74,0,0,1-.53-.22.75.75,0,0,1,0-1.06l9.11-9.1a.74.74,0,0,1,1.06,0,.75.75,0,0,1,0,1.06l-9.11,9.1A.73.73,0,0,1,54.69,16.92Z"/></g></g></g></svg>