<svg xmlns="http://www.w3.org/2000/svg" viewBox="0 0 94.67 94.67"><defs><style>.cls-1{opacity:0.45;}.cls-2{fill:none;}.cls-3{fill:#acadac;opacity:0.2;}.cls-4{fill:#2f2f2f;}.cls-5{fill:#ffc20e;}</style></defs><title>geo-location-light</title><g id="Layer_2" data-name="Layer 2"><g id="guides"><g class="cls-1"><rect class="cls-2" width="94.67" height="94.67" rx="21.4" ry="21.4"/><rect class="cls-2" x="14.83" y="10.5" width="65.01" height="73.66"/><circle class="cls-2" cx="47.33" cy="47.33" r="36.83"/><rect class="cls-2" x="14.83" y="10.5" width="65.01" height="73.66" transform="translate(94.67 0) rotate(90)"/><line class="cls-2" x2="94.67" y2="94.67"/><line class="cls-2" x1="94.67" y2="94.67"/><rect class="cls-2" width="94.67" height="94.67"/></g></g><g id="Icons"><g id="Geo-locations"><path class="cls-3" d="M82.61,82.77c0,3.11-15.83,5.63-35.36,5.63S11.9,85.88,11.9,82.77c0-1.94,6.18-3.65,15.59-4.66,11.55,6.7,29.62,6.94,39.53,0C76.43,79.12,82.61,80.83,82.61,82.77Z"/><path class="cls-4" d="M47.33,84a36.59,36.59,0,1,1,21.06-66.5.75.75,0,1,1-.86,1.22,35.13,35.13,0,1,0,9.19,9.53.76.76,0,0,1,.22-1,.75.75,0,0,1,1,.22A36.59,36.59,0,0,1,47.33,84Z"/><path class="cls-4" d="M30.45,63.21a.75.75,0,0,1-.73-.57A65.13,65.13,0,0,1,28,47.37a65.09,65.09,0,0,1,1.64-14.79.75.75,0,0,1,1.46.34,63.8,63.8,0,0,0-1.6,14.45,63.66,63.66,0,0,0,1.71,14.91.76.76,0,0,1-.56.91Z"/><path class="cls-4" d="M47.33,84c-6.51,0-12.54-6.08-16.12-16.26a.75.75,0,0,1,.45-1,.76.76,0,0,1,1,.46C36,76.75,41.48,82.45,47.33,82.45s11.37-5.72,14.73-15.3a.75.75,0,1,1,1.42.5C59.89,77.86,53.86,84,47.33,84Z"/><path class="cls-4" d="M64.22,63.21l-.18,0a.75.75,0,0,1-.55-.91A63.66,63.66,0,0,0,65.2,47.37a63.87,63.87,0,0,0-1.57-14.32.75.75,0,0,1,.57-.9.74.74,0,0,1,.89.56A65.22,65.22,0,0,1,66.7,47.37,65.13,65.13,0,0,1,65,62.64.75.75,0,0,1,64.22,63.21Z"/><path class="cls-4" d="M31.74,28.54a1,1,0,0,1-.24,0,.76.76,0,0,1-.47-.95c3.57-10.5,9.66-16.77,16.3-16.77s12.56,6.1,16.15,16.3A.76.76,0,0,1,63,28a.75.75,0,0,1-1-.46C58.7,18,53.19,12.28,47.33,12.28S35.8,18.17,32.45,28A.74.74,0,0,1,31.74,28.54Z"/><path class="cls-4" d="M83.17,48.12H11.5a.75.75,0,0,1,0-1.5H83.17a.75.75,0,0,1,0,1.5Z"/><path class="cls-4" d="M47.33,82.86a.75.75,0,0,1-.75-.75V11.53a.75.75,0,0,1,1.5,0V82.11A.74.74,0,0,1,47.33,82.86Z"/><path class="cls-4" d="M47.33,34.77c-12.26,0-23.62-2.37-30.38-6.34a.74.74,0,0,1-.27-1,.75.75,0,0,1,1-.27c6.54,3.84,17.62,6.13,29.62,6.13,11.8,0,22.77-2.23,29.35-6a.75.75,0,0,1,1,.29.74.74,0,0,1-.28,1C70.63,32.47,59.38,34.77,47.33,34.77Z"/><path class="cls-4" d="M17.67,68a.77.77,0,0,1-.66-.38.74.74,0,0,1,.29-1c6.79-3.86,18-6.17,30.08-6.17s23.24,2.3,30,6.14a.75.75,0,0,1-.74,1.31c-6.58-3.72-17.53-6-29.3-6s-22.77,2.23-29.34,6A.74.74,0,0,1,17.67,68Z"/><path class="cls-5" d="M83.33,20.46a9.41,9.41,0,1,0-18.81,0s-1.21,7.92,9.4,20.36C84.54,28.38,83.33,20.46,83.33,20.46Zm-9.41,4.62a4.31,4.31,0,1,1,4.31-4.31A4.31,4.31,0,0,1,73.92,25.08Z"/></g></g></g></svg>