<svg xmlns="http://www.w3.org/2000/svg" viewBox="0 0 215.8 154.42"><defs><style>.cls-1{isolation:isolate;}.cls-10,.cls-15,.cls-16,.cls-2,.cls-4,.cls-5,.cls-7{fill:none;}.cls-2{stroke:#abadac;stroke-width:0.75px;}.cls-10,.cls-11,.cls-13,.cls-15,.cls-2,.cls-5,.cls-6{stroke-linecap:round;stroke-linejoin:round;}.cls-3{fill:#dddede;}.cls-4{stroke:#ffc20e;}.cls-4,.cls-7,.cls-8,.cls-9{stroke-miterlimit:10;}.cls-11,.cls-13,.cls-15,.cls-4,.cls-5,.cls-6{stroke-width:1.5px;}.cls-11,.cls-5,.cls-6{stroke:#2f2f2f;}.cls-6{fill:#efefef;}.cls-10,.cls-7,.cls-8,.cls-9{stroke:#757575;}.cls-8{fill:#fff;}.cls-11,.cls-9{fill:#2f2f2f;}.cls-12{fill:#abadac;opacity:0.25;}.cls-12,.cls-14{mix-blend-mode:multiply;}.cls-13{fill:#ffc20e;}.cls-13,.cls-15{stroke:#fff3cf;}.cls-14{fill:#e2af24;opacity:0.35;}</style></defs><title>law-enforcement-light-bg</title><g class="cls-1"><g id="Layer_2" data-name="Layer 2"><g id="artwork"><g id="law_enforcement_white_bg" data-name="law enforcement white bg"><path class="cls-2" d="M152.42,42.1a32,32,0,0,0-1.29,19.82c.57,2.3,1.29,4.74,2.05,7.33,4.18,14.23,9.12,31-4.22,44.94"/><path class="cls-2" d="M64.43,61.92c3.75-15.33-4-26.28-8.62-31.23l18-16.36c6.62,4.78,13.22,7.21,19.64,7.21"/><path class="cls-2" d="M89.12,127.93c-34.27-13.2-33.49-33.08-29-50.76"/><path class="cls-3" d="M107.82,132.7a80.11,80.11,0,0,0-17.15-8.63c-36-13.84-30-34.08-24.25-53.65.77-2.64,1.51-5.13,2.09-7.52a36.51,36.51,0,0,0-6.9-31.84L74.3,19.57c6.42,4.05,12.87,6.1,19.26,6.1a28.36,28.36,0,0,0,14.26-3.8,28.29,28.29,0,0,0,14.25,3.8h0c6.39,0,12.85-2.05,19.27-6.1L154,31.06a36.51,36.51,0,0,0-6.9,31.84c.59,2.39,1.32,4.88,2.09,7.52C155,90,160.92,110.23,125,124.07A79.76,79.76,0,0,0,107.82,132.7Z"/><path class="cls-4" d="M33.52,57.94l2.81,8.66h9.1A.76.76,0,0,1,45.88,68l-7.36,5.35L41.33,82a.77.77,0,0,1-1.18.86l-7.36-5.35-7.36,5.35A.77.77,0,0,1,24.25,82l2.81-8.65L19.7,68a.76.76,0,0,1,.45-1.38h9.1l2.81-8.66A.77.77,0,0,1,33.52,57.94Z"/><path class="cls-4" d="M13.19,43.52l1.53,4.71h5a.42.42,0,0,1,.24.76l-4,2.91,1.53,4.71a.42.42,0,0,1-.64.47l-4-2.92-4,2.92a.42.42,0,0,1-.64-.47L9.68,51.9,5.67,49a.42.42,0,0,1,.24-.76h5l1.53-4.71A.42.42,0,0,1,13.19,43.52Z"/><path class="cls-4" d="M182.28,57.94l-2.81,8.66h-9.1a.76.76,0,0,0-.45,1.38l7.36,5.35L174.47,82a.76.76,0,0,0,1.17.86L183,77.49l7.36,5.35a.76.76,0,0,0,1.17-.86l-2.81-8.65L196.09,68a.76.76,0,0,0-.45-1.38h-9.09l-2.82-8.66A.76.76,0,0,0,182.28,57.94Z"/><path class="cls-4" d="M202.6,43.52l-1.53,4.71h-4.95a.42.42,0,0,0-.25.76l4,2.91-1.53,4.71a.42.42,0,0,0,.64.47l4-2.92,4,2.92a.42.42,0,0,0,.64-.47l-1.53-4.71,4-2.91a.42.42,0,0,0-.25-.76h-4.95l-1.53-4.71A.42.42,0,0,0,202.6,43.52Z"/><path class="cls-5" d="M107.82,144.87S108.7,139.39,128,132c48.91-18.83,32-52.09,27.33-71.07-3.52-14.4,4.54-24.36,8.63-28.32a2.71,2.71,0,0,0-.06-4L143.63,10.24a2.73,2.73,0,0,0-3.48-.14c-20.09,15.3-32.33,1.17-32.33,1.17S95.58,25.4,75.48,10.1a2.73,2.73,0,0,0-3.48.14L51.73,28.61a2.71,2.71,0,0,0-.06,4c4.09,4,12.15,13.92,8.63,28.32-4.64,19-21.58,52.24,27.33,71.07C106.93,139.39,107.82,144.87,107.82,144.87Z"/><path class="cls-6" d="M107.82,132.7a80.11,80.11,0,0,0-17.15-8.63c-36-13.84-30-34.08-24.25-53.65.77-2.64,1.51-5.13,2.09-7.52a36.51,36.51,0,0,0-6.9-31.84L74.3,19.57c6.42,4.05,12.87,6.1,19.26,6.1a28.36,28.36,0,0,0,14.26-3.8,28.29,28.29,0,0,0,14.25,3.8h0c6.39,0,12.85-2.05,19.27-6.1L154,31.06a36.51,36.51,0,0,0-6.9,31.84c.59,2.39,1.32,4.88,2.09,7.52C155,90,160.92,110.23,125,124.07A79.76,79.76,0,0,0,107.82,132.7Z"/><polyline class="cls-7" points="126.91 35.74 126.91 53.9 120.75 60.06 120.75 69.54"/><circle class="cls-8" cx="126.91" cy="34.15" r="2.46"/><circle class="cls-8" cx="119.37" cy="36.61" r="2.46"/><circle class="cls-8" cx="96.5" cy="36.61" r="2.46"/><circle class="cls-8" cx="107.82" cy="31.92" r="2.46"/><circle class="cls-8" cx="140.7" cy="32.4" r="2.46"/><line class="cls-9" x1="126.91" y1="46.63" x2="139.59" y2="33.96"/><polyline class="cls-7" points="88.92 35.74 88.92 53.9 95.09 60.06 95.09 69.54"/><circle class="cls-8" cx="88.92" cy="34.15" r="2.46"/><circle class="cls-8" cx="75.13" cy="32.4" r="2.46"/><line class="cls-9" x1="88.92" y1="46.63" x2="76.24" y2="33.96"/><polyline class="cls-7" points="105.39 58.59 96.5 49.7 96.5 38.76"/><polyline class="cls-7" points="110.48 58.59 119.37 49.7 119.37 38.76"/><line class="cls-9" x1="107.82" y1="54.41" x2="107.82" y2="34.15"/><circle class="cls-8" cx="107.82" cy="120.82" r="2.46"/><line class="cls-9" x1="107.82" y1="85.89" x2="107.82" y2="118.35"/><polyline class="cls-10" points="88.05 68.5 88.05 60.79 80.61 53.36"/><polyline class="cls-10" points="127.58 68.5 127.58 60.79 135.01 53.36"/><polyline class="cls-10" points="125.45 73.08 125.45 82.35 133.26 90.16 139.74 96.64"/><polyline class="cls-10" points="140.7 79.79 133.6 79.79 128.25 85.14 128.25 111.72"/><circle class="cls-8" cx="79.18" cy="51.93" r="2.46"/><circle class="cls-8" cx="136.16" cy="51.93" r="2.46"/><circle class="cls-8" cx="142.68" cy="79.64" r="2.46"/><circle class="cls-8" cx="140.7" cy="97.93" r="2.46"/><circle class="cls-8" cx="128.25" cy="111.72" r="2.46"/><circle class="cls-8" cx="118.95" cy="114.79" r="2.46"/><polyline class="cls-10" points="113.66 90.81 113.66 100.91 118.95 106.19 118.95 112.33"/><polyline class="cls-10" points="90.1 73.08 90.1 82.35 82.29 90.16 75.81 96.64"/><polyline class="cls-10" points="74.85 79.79 81.95 79.79 87.31 85.14 87.31 111.72"/><circle class="cls-8" cx="72.88" cy="79.64" r="2.46"/><circle class="cls-8" cx="74.85" cy="97.93" r="2.46"/><circle class="cls-8" cx="87.3" cy="111.72" r="2.46"/><circle class="cls-8" cx="96.61" cy="114.79" r="2.46"/><polyline class="cls-10" points="101.89 90.81 101.89 100.91 96.61 106.19 96.61 112.33"/><line class="cls-11" x1="107.82" y1="143.3" x2="107.82" y2="132.7"/><line class="cls-11" x1="107.82" y1="21.64" x2="107.82" y2="11.8"/><path class="cls-12" d="M109.21,54.52l5.37,16.54H132a1.46,1.46,0,0,1,.86,2.64L118.76,83.93l5.38,16.54a1.46,1.46,0,0,1-2.25,1.64L107.82,91.88,93.74,102.11a1.46,1.46,0,0,1-2.25-1.64l5.38-16.54L82.8,73.7a1.46,1.46,0,0,1,.86-2.64h17.39l5.37-16.54A1.47,1.47,0,0,1,109.21,54.52Z"/><path class="cls-13" d="M108.57,47.86l6.09,18.75h19.72a.71.71,0,0,1,.41,1.28L118.85,79.48l6.09,18.75a.71.71,0,0,1-1.09.79L107.9,87.43,92,99a.71.71,0,0,1-1.09-.79L97,79.48,81,67.89a.71.71,0,0,1,.42-1.28h19.71l6.09-18.75A.71.71,0,0,1,108.57,47.86Z"/><polygon class="cls-14" points="109.34 50.22 114.66 66.61 136.56 66.61 118.85 79.48 125.61 100.3 107.9 87.43 107.9 48.67 109.34 50.22"/><path class="cls-15" d="M108.52,47.7l6.14,18.91h19.88a.65.65,0,0,1,.39,1.18L118.85,79.48,125,98.38a.66.66,0,0,1-1,.74L107.9,87.43,91.82,99.12a.66.66,0,0,1-1-.74L97,79.48,80.87,67.79a.65.65,0,0,1,.38-1.18h19.88l6.14-18.91A.66.66,0,0,1,108.52,47.7Z"/><line class="cls-15" x1="107.9" y1="87.43" x2="107.9" y2="80.45"/><circle class="cls-13" cx="107.9" cy="75.87" r="4.57"/></g><rect class="cls-16" width="215.8" height="154.42"/></g></g></g></svg>