<svg xmlns="http://www.w3.org/2000/svg" viewBox="0 0 215.8 154.42"><defs><style>.cls-1{isolation:isolate;}.cls-13,.cls-2,.cls-8{fill:#222223;}.cls-2{opacity:0.25;}.cls-14,.cls-16,.cls-2{mix-blend-mode:multiply;}.cls-15,.cls-17,.cls-18,.cls-3,.cls-4,.cls-5{fill:none;}.cls-3,.cls-4,.cls-5,.cls-6,.cls-9{stroke:#abadac;}.cls-3,.cls-4,.cls-9{stroke-miterlimit:10;}.cls-12,.cls-17,.cls-3,.cls-6{stroke-width:1.5px;}.cls-12,.cls-15,.cls-17,.cls-5,.cls-6{stroke-linecap:round;stroke-linejoin:round;}.cls-6,.cls-7{fill:#fff;}.cls-8{opacity:0.5;}.cls-10,.cls-9{fill:#abadac;opacity:0.15;}.cls-11,.cls-12{fill:#ffc20e;}.cls-12,.cls-17{stroke:#fff3cf;}.cls-14{fill:#2f2f2f;opacity:0.1;}.cls-15{stroke:#757575;stroke-width:0.75px;}.cls-16{fill:#e2af24;opacity:0.35;}</style></defs><title>national-CSIRTs-dark-bg</title><g class="cls-1"><g id="Layer_2" data-name="Layer 2"><g id="artwork"><g id="national_CSIRTS_gray_bg" data-name="national CSIRTS gray bg"><polygon class="cls-2" points="195.89 126.82 190.48 126.82 190.48 34.11 195.89 34.27 195.89 126.82"/><rect class="cls-3" x="60.78" y="-8.32" width="94.23" height="177.56" rx="0.9" ry="0.9" transform="translate(188.36 -27.44) rotate(90)"/><line class="cls-4" x1="68.9" y1="101.28" x2="79.41" y2="116.39"/><line class="cls-5" x1="102.45" y1="131.99" x2="113.26" y2="131.99"/><line class="cls-6" x1="75.86" y1="151.67" x2="139.85" y2="151.67"/><line class="cls-4" x1="53.22" y1="85.65" x2="68.9" y2="101.28"/><circle class="cls-7" cx="19.65" cy="132.05" r="1.18"/><circle class="cls-7" cx="23.84" cy="132.05" r="1.18"/><circle class="cls-7" cx="28.04" cy="132.05" r="1.18"/><polygon class="cls-8" points="29.93 88.36 57.87 60.42 53.22 85.65 29.93 88.36"/><polygon class="cls-8" points="119.26 50.24 133.19 88.08 162.93 62.58 119.26 50.24"/><polygon class="cls-9" points="68.9 101.28 96.52 69.26 79.41 115.77 68.9 101.28"/><polygon class="cls-10" points="53.67 85.56 57.87 60.42 68.9 101.28 53.67 85.56"/><polygon class="cls-10" points="119.9 51.04 133.18 88.29 96.52 69.26 119.9 51.04"/><line class="cls-5" x1="29.93" y1="88.36" x2="57.87" y2="60.42"/><polyline class="cls-5" points="29.93 88.36 68.9 101.28 57.87 60.42 96.52 69.26 79.41 116.39 133.18 88.36 119.9 51.04 162.93 62.56 143.69 109.4 182.86 86.22 162.93 62.56 133.18 88.36 96.52 69.26 68.9 101.28"/><polyline class="cls-5" points="29.93 88.36 53.65 86.22 57.87 60.42"/><path class="cls-3" d="M201.39,24.49h-187a4.14,4.14,0,0,0-4.14,4.15V132.28a4.14,4.14,0,0,0,4.14,4.15h187a4.15,4.15,0,0,0,4.14-4.15V28.64A4.15,4.15,0,0,0,201.39,24.49Z"/><path class="cls-2" d="M107.76,93.76h0c22.8-18.07,35.93-44.48,35.93-72.28V20.07a1.79,1.79,0,0,0-1.92-1.7l-4,.18A39.52,39.52,0,0,1,107.76,7h0a39.53,39.53,0,0,1-30,11.54l-4-.18a1.79,1.79,0,0,0-1.92,1.7v1.41c0,27.8,13.13,54.21,35.93,72.28Z"/><path class="cls-11" d="M107.85,87h0C130,69.44,142.68,43.84,142.68,16.88V15.51a1.71,1.71,0,0,0-1.86-1.63l-3.86.17A38.34,38.34,0,0,1,107.85,2.86h0A38.34,38.34,0,0,1,78.74,14.05l-3.86-.17A1.71,1.71,0,0,0,73,15.51v1.37c0,27,12.72,52.56,34.82,70.08Z"/><path class="cls-12" d="M80.84,37A83.71,83.71,0,0,1,78.23,19c.48,0,1,0,1.44,0a46.55,46.55,0,0,0,28.18-9.38A46.51,46.51,0,0,0,136,19.05c.47,0,1,0,1.43,0C136.66,42.41,126,64.46,107.85,80.6A90.64,90.64,0,0,1,92.06,62.32c-.62-.94-1.21-1.89-1.79-2.85q-1.17-2-2.24-4a87,87,0,0,1-4.72-10.59"/><rect class="cls-13" x="85.59" y="136.43" width="44.53" height="15.24"/><rect class="cls-14" x="86.34" y="137.17" width="43.01" height="5.1"/><circle class="cls-11" cx="79.41" cy="115.77" r="2.38"/><circle class="cls-11" cx="68.9" cy="101.28" r="2.38"/><circle class="cls-11" cx="30.42" cy="88.36" r="2.38"/><circle class="cls-11" cx="53.65" cy="86.22" r="2.38"/><circle class="cls-11" cx="57.87" cy="61.05" r="2.38"/><circle class="cls-11" cx="143.69" cy="109.4" r="2.38"/><circle class="cls-11" cx="132.49" cy="88.08" r="2.38"/><circle class="cls-11" cx="162.42" cy="62.94" r="2.38"/><circle class="cls-11" cx="182.28" cy="86.22" r="2.38"/><line class="cls-15" x1="14.66" y1="47.02" x2="14.66" y2="72.47"/><line class="cls-15" x1="14.66" y1="80.24" x2="14.66" y2="96.15"/><path class="cls-15" d="M201.28,115.29v14.58A2.08,2.08,0,0,1,199.2,132H143.52"/><line class="cls-15" x1="201.28" y1="99.55" x2="201.28" y2="109.67"/><path class="cls-16" d="M107.85,86.84h0C130,69.33,142.68,43.72,142.68,16.77V15.4a1.71,1.71,0,0,0-1.85-1.64l-3.87.18A38.38,38.38,0,0,1,107.85,2.75h0"/><circle class="cls-12" cx="107.85" cy="44.52" r="15.28"/><ellipse class="cls-12" cx="107.85" cy="44.52" rx="7.94" ry="15.28"/><line class="cls-12" x1="92.57" y1="44.52" x2="123.13" y2="44.52"/><line class="cls-12" x1="107.85" y1="29.24" x2="107.85" y2="59.34"/><path class="cls-12" d="M95.06,36.17c2.73,1.6,7.44,2.66,12.79,2.66s9.93-1,12.67-2.59"/><path class="cls-12" d="M120.67,53.08c-2.73-1.6-7.44-2.66-12.8-2.66S98,51.45,95.2,53"/><path class="cls-17" d="M80.84,37A83.71,83.71,0,0,1,78.23,19c.48,0,1,0,1.44,0a46.55,46.55,0,0,0,28.18-9.38A46.51,46.51,0,0,0,136,19.05c.47,0,1,0,1.43,0C136.66,42.41,126,64.46,107.85,80.6A90.64,90.64,0,0,1,92.06,62.32c-.62-.94-1.21-1.89-1.79-2.85q-1.17-2-2.24-4a87,87,0,0,1-4.72-10.59"/><line class="cls-12" x1="107.85" y1="10.15" x2="107.85" y2="20.3"/><line class="cls-12" x1="107.85" y1="72.5" x2="107.85" y2="79.67"/><rect class="cls-3" x="85.59" y="136.43" width="44.53" height="15.24"/></g><rect class="cls-18" width="215.8" height="154.42"/></g></g></g></svg>