<svg xmlns="http://www.w3.org/2000/svg" viewBox="0 0 94.67 94.67"><defs><style>.cls-1{opacity:0.45;}.cls-2{fill:none;}.cls-3{fill:#ffc20e;}.cls-4{fill:#2f2f2f;}</style></defs><title>scans-light</title><g id="Layer_2" data-name="Layer 2"><g id="guides"><g class="cls-1"><rect class="cls-2" width="94.67" height="94.67" rx="21.4" ry="21.4"/><rect class="cls-2" x="14.83" y="10.5" width="65.01" height="73.66"/><circle class="cls-2" cx="47.33" cy="47.33" r="36.83"/><rect class="cls-2" x="14.83" y="10.5" width="65.01" height="73.66" transform="translate(94.67 0) rotate(90)"/><line class="cls-2" x2="94.67" y2="94.67"/><line class="cls-2" x1="94.67" y2="94.67"/><rect class="cls-2" width="94.67" height="94.67"/></g></g><g id="Icons"><g id="Global_Scans" data-name="Global Scans"><path class="cls-3" d="M86.88,49.84a.75.75,0,0,1-.62-.33c-3.87-5.7-3.83-5.89-3.76-6.26a.75.75,0,0,1,.6-.59l4.73-.94a.75.75,0,0,1,.29,1.47l-3.74.74c.65,1.06,1.93,3,3.12,4.74a.75.75,0,0,1-.2,1A.74.74,0,0,1,86.88,49.84Z"/><path class="cls-3" d="M65.83,79a2.16,2.16,0,0,1-1-.18c-.55-.29-.85-.45-1.91-13.56-.09-1.11-.15-1.88-.17-2a4.24,4.24,0,0,0-.94-1.13l-.1-.11c-.29-.3-.32-.69-.33-2.57,0-.36,0-.7,0-1s-.12-.44-.4-.48-5.19-.65-7.72-1a.76.76,0,0,1-.65-.62c-1.72-9.65-1.64-9.79-1.48-10.08a32.21,32.21,0,0,1,2.09-2.46c.67-.78,1.52-1.75,1.62-1.89.2-.3.34-.5,10.13-2.66a.78.78,0,0,1,.61.12l2.82,2.08c2.71-.06,5.63-.17,6.71-.28,0-.17.06-.37.11-.64l.13-.76-.44-.11c-.93-.23-1.66-.41-1.74-1.11,0-.06,0-.15-.06-.26-.14-.56-.43-1.72.55-2.06.19-.07.67-.18,1.59-.38.59-.13,1.46-.33,2-.47l0-.09a19.74,19.74,0,0,0-3.16-1.47l-.82,1.2c-2.15,3.19-2.62,3.7-3.3,3.62-1-.12-1.67-2.23-1.86-3-.31-.23-1.14-.7-2-1.19A6,6,0,0,1,66,36.46c-.2.55-.66.65-2.58.6a.76.76,0,0,1-.72-.64c-.09-.59-.23-1.29-.34-1.76A21,21,0,0,0,60,36a13.87,13.87,0,0,0-.69,1.92.81.81,0,0,1-.74.54l-2.87-.07a2.1,2.1,0,0,1-1.83-1.48c-.12-.3-.08-.65.23-2.49.08-.44.17-1,.18-1.11a.92.92,0,0,1,.27-.58c.37-.34,1-.36,2.88-.25h.1a14.94,14.94,0,0,0-.95-1.37.86.86,0,0,1-.16-.62c.08-.47.12-.66,6.16-4.41.54-.33.93-.57,1-.64.35-.26.69-.27,4.19.18l1.25.16c.59-.78,2.31-3.4,3.91-5.91l-2.52-1.72-3.8,2.11-2.26,2.57a.74.74,0,0,1-.52.25.72.72,0,0,1-.55-.2l-3.9-3.55a.3.3,0,0,1-.08-.08C59.06,19,59,18.7,59.14,18s.25-1,.53-1.19l8.67-5.49a.75.75,0,1,1,.81,1.26l-8.47,5.37a4,4,0,0,0-.09.52l3.11,2.83,1.84-2.09a1.08,1.08,0,0,1,.2-.16l4.31-2.4a.77.77,0,0,1,.79,0l3.51,2.39a.75.75,0,0,1,.21,1c-4.53,7.13-4.73,7.16-5.13,7.23a7.65,7.65,0,0,1-1.89-.18c-1-.12-2.76-.38-3.26-.35l-1,.6c-1.09.67-4.08,2.53-5.2,3.35,1.78,2.37,1.23,2.89,1.05,3.07s-.61.27-1.88.19c-.44,0-1.18-.07-1.63-.06,0,.2-.08.45-.13.75-.09.53-.25,1.48-.27,1.8.08.16.24.41.42.42L58,37a5.74,5.74,0,0,1,.94-2c.11-.1,3.18-2.14,4-1.94.4.09.71.16,1.14,2.59h.5c0-.55,0-1.41,0-2.2a.76.76,0,0,1,1.1-.68c3.76,2,3.81,2.21,3.87,2.59A9.66,9.66,0,0,0,70.11,37c.53-.66,1.41-2,1.88-2.66a10.43,10.43,0,0,1,1.25-1.7c1-.85,5,1.73,5.07,1.77a2.52,2.52,0,0,1,.51,1.89c-.18.49-.35.53-3.25,1.17l-1.09.25.08.37,0,.09.68.18c.89.22,1.66.41,1.64,1.17a12.47,12.47,0,0,1-.21,1.42c-.08.45-.16.88-.17,1,0,.84,0,1-8.35,1.13a.81.81,0,0,1-.46-.14L65,40.9c-3.91.87-8.18,1.88-9,2.17L54.35,44.9c-.63.73-1.46,1.68-1.8,2.09.12,1.09.89,5.56,1.44,8.66l7.21.89a1.87,1.87,0,0,1,1.68,1.92c0,.26,0,.62,0,1s0,1.34,0,1.68A4.41,4.41,0,0,1,64.24,63c0,.14.06.56.19,2.16.22,2.73.86,10.75,1.29,12.39.83,0,3.11-.53,3.35-1,.51-1,2.81-5.37,2.91-5.56a.72.72,0,0,1,.17-.22c.89-.76,1.95-1.69,2.19-2,.2-.51.93-3.13,1.32-4.56.26-1,.47-1.71.53-1.87.3-.87,2.75-3.11,2.78-3.13A21.59,21.59,0,0,0,81.47,56l-.61-.22a6.7,6.7,0,0,1-1.11-.45c-.83-.48-3.21-4.45-3.41-5.12-.06-.21-.21-.62-.38-1.09a10.17,10.17,0,0,1-.82-2.67c0-.68.74-1.16,1.42-1.26A1.21,1.21,0,0,1,78,46a36,36,0,0,0,4.11,5.2,36.47,36.47,0,0,0,4.29-2.49.75.75,0,0,1,1.05.1.74.74,0,0,1-.09,1,40.42,40.42,0,0,1-4.92,2.85.92.92,0,0,1-.75,0c-1.08-.46-4.23-4.69-5-5.94.14.45.47,1.35.67,1.89s.34.94.4,1.16a24.45,24.45,0,0,0,2.76,4.28,8.38,8.38,0,0,0,.82.31c.9.31,1.61.55,1.77,1.17.28,1.07-3,4.64-3.16,4.8a17.7,17.7,0,0,0-2.36,2.52c0,.13-.24.85-.49,1.76-1.18,4.28-1.36,4.77-1.52,5a26.32,26.32,0,0,1-2.36,2.17c-.39.74-2.36,4.46-2.81,5.38a3.2,3.2,0,0,1-2,1.39A9.12,9.12,0,0,1,65.83,79ZM76.56,46.48Zm0,0Zm0,0Zm-1.9-8h0ZM68,35.53s0,0,0,.06Zm-3.57-8.86,0,0Z"/><path class="cls-4" d="M47.84,56.08a8.54,8.54,0,0,1-8.53-8.53.75.75,0,0,1,1.5,0,7,7,0,0,0,7,7,.75.75,0,0,1,0,1.5Z"/><path class="cls-4" d="M15.09,23.15a.75.75,0,0,1-.59-1.21c.27-.35.54-.7.82-1,.74-.9,1.53-1.78,2.34-2.62a.75.75,0,0,1,1.08,1c-.79.81-1.54,1.66-2.26,2.52-.27.33-.53.67-.8,1A.74.74,0,0,1,15.09,23.15Z"/><path class="cls-4" d="M47.84,89.6A42.05,42.05,0,0,1,7.57,35.41.75.75,0,1,1,9,35.85,40.56,40.56,0,1,0,55.75,7.77c-1.24-.25-2.51-.44-3.77-.57a40.53,40.53,0,0,0-29.82,9,.75.75,0,0,1-1.05-.11.74.74,0,0,1,.1-1.05A42.07,42.07,0,0,1,47.84,5.49c1.43,0,2.87.08,4.29.22S54.75,6,56,6.3a42.05,42.05,0,0,1-8.2,83.3Z"/><path class="cls-4" d="M21.89,33.94a.8.8,0,0,1-.36-.09.75.75,0,0,1-.29-1c.13-.25.27-.49.41-.72a30.43,30.43,0,0,1,4.25-5.59.75.75,0,1,1,1.08,1,29.42,29.42,0,0,0-4,5.31l-.39.69A.76.76,0,0,1,21.89,33.94Z"/><path class="cls-4" d="M47.84,78A30.4,30.4,0,0,1,19.08,37.67a.75.75,0,1,1,1.42.49A28.9,28.9,0,0,0,47.84,76.45a.75.75,0,0,1,0,1.5Z"/><path class="cls-4" d="M30.27,24.42a.75.75,0,0,1-.45-1.35,30.15,30.15,0,0,1,18-5.93.75.75,0,0,1,0,1.5,28.65,28.65,0,0,0-17.12,5.63A.76.76,0,0,1,30.27,24.42Z"/><path class="cls-4" d="M47.84,66.3A18.76,18.76,0,0,1,30.27,41a.75.75,0,0,1,1.41.53,17.07,17.07,0,0,0-1.1,6.06A17.24,17.24,0,0,0,47.84,64.8a.75.75,0,0,1,0,1.5Z"/><path class="cls-4" d="M38.12,33.14a.73.73,0,0,1-.63-.35.74.74,0,0,1,.22-1,18.7,18.7,0,0,1,10.13-3,.75.75,0,0,1,0,1.5A17.25,17.25,0,0,0,38.52,33,.72.72,0,0,1,38.12,33.14Z"/><path class="cls-4" d="M32.63,38.66a.87.87,0,0,1-.41-.11.76.76,0,0,1-.23-1,18.89,18.89,0,0,1,2.13-2.75.75.75,0,1,1,1.09,1,17.74,17.74,0,0,0-2,2.53A.75.75,0,0,1,32.63,38.66Z"/><path class="cls-4" d="M47.84,89.28a.74.74,0,0,1-.75-.75v-41a.75.75,0,0,1,1.5,0v41A.75.75,0,0,1,47.84,89.28Z"/><path class="cls-4" d="M47.64,48.3H6.53a.75.75,0,0,1,0-1.5H47.64a.75.75,0,0,1,0,1.5Z"/><path class="cls-4" d="M47.78,48.21a.79.79,0,0,1-.53-.22L13.68,14.41a.74.74,0,0,1,0-1.06.75.75,0,0,1,1.06,0L48.31,46.93a.74.74,0,0,1,0,1.06A.75.75,0,0,1,47.78,48.21Z"/><circle class="cls-4" cx="14.56" cy="72.03" r="2.79"/><circle class="cls-4" cx="34.66" cy="74.1" r="2.79"/><circle class="cls-4" cx="25.09" cy="82.08" r="2.79"/><circle class="cls-4" cx="38.9" cy="87.95" r="2.79"/><circle class="cls-3" cx="11.02" cy="28.29" r="3.4"/><path class="cls-4" d="M11,32.43a4.15,4.15,0,1,1,4.15-4.14A4.15,4.15,0,0,1,11,32.43Zm0-6.79a2.65,2.65,0,1,0,2.65,2.65A2.65,2.65,0,0,0,11,25.64Z"/><circle class="cls-3" cx="19.33" cy="39.49" r="3.4"/><path class="cls-4" d="M19.33,43.63a4.15,4.15,0,1,1,4.14-4.14A4.15,4.15,0,0,1,19.33,43.63Zm0-6.79A2.65,2.65,0,1,0,22,39.49,2.65,2.65,0,0,0,19.33,36.84Z"/><circle class="cls-3" cx="29.83" cy="47.39" r="3.4"/><path class="cls-4" d="M29.83,51.53A4.15,4.15,0,1,1,34,47.39,4.15,4.15,0,0,1,29.83,51.53Zm0-6.79a2.65,2.65,0,1,0,2.65,2.65A2.65,2.65,0,0,0,29.83,44.74Z"/><circle class="cls-3" cx="21.61" cy="61.3" r="3.4"/><path class="cls-4" d="M21.61,65.45a4.15,4.15,0,1,1,4.14-4.15A4.15,4.15,0,0,1,21.61,65.45Zm0-6.79a2.65,2.65,0,1,0,2.64,2.64A2.65,2.65,0,0,0,21.61,58.66Z"/><circle class="cls-3" cx="8.84" cy="60.95" r="3.4"/><path class="cls-4" d="M8.84,65.1A4.15,4.15,0,1,1,13,61,4.15,4.15,0,0,1,8.84,65.1Zm0-6.79A2.65,2.65,0,1,0,11.49,61,2.64,2.64,0,0,0,8.84,58.31Z"/><circle class="cls-3" cx="6.53" cy="47.55" r="3.4"/><path class="cls-4" d="M6.53,51.69a4.15,4.15,0,1,1,4.15-4.14A4.15,4.15,0,0,1,6.53,51.69Zm0-6.79a2.65,2.65,0,1,0,2.65,2.65A2.65,2.65,0,0,0,6.53,44.9Z"/></g></g></g></svg>