<svg xmlns="http://www.w3.org/2000/svg" viewBox="0 0 94.67 94.67"><defs><style>.cls-1{opacity:0.45;}.cls-2{fill:none;}.cls-3,.cls-6{fill:#acadac;}.cls-3,.cls-5{opacity:0.2;}.cls-4{fill:#2f2f2f;}.cls-7{fill:#ffc20e;}.cls-8{fill:#efefef;}</style></defs><title>URLs-light</title><g id="Layer_2" data-name="Layer 2"><g id="guides"><g class="cls-1"><rect class="cls-2" width="94.67" height="94.67" rx="21.4" ry="21.4"/><rect class="cls-2" x="14.83" y="10.5" width="65.01" height="73.66"/><circle class="cls-2" cx="47.33" cy="47.33" r="36.83"/><rect class="cls-2" x="14.83" y="10.5" width="65.01" height="73.66" transform="translate(94.67 0) rotate(90)"/><line class="cls-2" x2="94.67" y2="94.67"/><line class="cls-2" x1="94.67" y2="94.67"/><rect class="cls-2" width="94.67" height="94.67"/></g></g><g id="Icons"><g id="URLs"><path class="cls-3" d="M78.92,67.35a6,6,0,0,1-6,6H23.13a6,6,0,0,1-6-6"/><path class="cls-4" d="M66.1,68.83H21.33a7.71,7.71,0,0,1-7.71-7.7V41.49a7.72,7.72,0,0,1,7.71-7.71h54A7.72,7.72,0,0,1,83,41.49V61.13a7.63,7.63,0,0,1-1.21,4.13.74.74,0,0,1-1,.23.74.74,0,0,1-.23-1,6.24,6.24,0,0,0,1-3.33V41.49a6.22,6.22,0,0,0-6.21-6.21H21.33a6.22,6.22,0,0,0-6.21,6.21V61.13a6.21,6.21,0,0,0,6.21,6.2H66.1a.75.75,0,0,1,0,1.5Z"/><g class="cls-5"><path class="cls-6" d="M1.87,42,19.35,15.51a2,2,0,0,1,3.38,0L40.21,42a2,2,0,0,1-1.69,3.14H3.57A2,2,0,0,1,1.87,42Z"/></g><path class="cls-7" d="M1.87,38.24,19.25,11.92a2,2,0,0,1,3.37,0L40,38.24a2,2,0,0,1-1.69,3.13H3.56A2,2,0,0,1,1.87,38.24Z"/><path class="cls-4" d="M38.31,42.12H3.56a2.76,2.76,0,0,1-2.31-4.29h0L18.63,11.5a2.76,2.76,0,0,1,2.31-1.24h0a2.76,2.76,0,0,1,2.3,1.24L40.62,37.83a2.78,2.78,0,0,1,.13,2.84A2.72,2.72,0,0,1,38.31,42.12ZM2.5,38.66a1.26,1.26,0,0,0,1.06,2H38.31a1.26,1.26,0,0,0,1.06-2L22,12.33a1.25,1.25,0,0,0-1-.57h0a1.25,1.25,0,0,0-1.06.57Z"/><path class="cls-8" d="M93.3,73.47,69.19,63.24a.77.77,0,0,0-1,1L78.42,88.36a.77.77,0,0,0,1.33.14l3.13-6.57,4.83,4.83a.76.76,0,0,0,1.08,0l2.91-2.91a.77.77,0,0,0,0-1.09l-4.83-4.83,6.58-3.12A.77.77,0,0,0,93.3,73.47Z"/><path class="cls-4" d="M79.13,89.58H79a1.51,1.51,0,0,1-1.23-.92L67.49,64.54a1.54,1.54,0,0,1,.32-1.67,1.5,1.5,0,0,1,1.67-.32L93.6,72.78a1.53,1.53,0,0,1,.29,2.64l-.12.07-5.62,2.66,4.08,4.08a1.51,1.51,0,0,1,0,2.15l-2.91,2.91a1.55,1.55,0,0,1-2.14,0L83.1,83.21l-2.67,5.61a.75.75,0,0,1-.07.12A1.52,1.52,0,0,1,79.13,89.58ZM68.9,63.93,79.13,88.08,82.2,81.6a.73.73,0,0,1,.55-.41.77.77,0,0,1,.66.2l4.83,4.84,2.93-2.91-4.83-4.86a.75.75,0,0,1,.21-1.21L93,74.18v0ZM93.45,74.81h0Z"/><polygon class="cls-4" points="36.25 46.4 33.76 55.91 30.87 46.4 28.78 46.4 25.94 55.93 23.34 46.4 21.2 46.4 24.95 59.57 26.75 59.57 29.8 49.63 32.84 59.57 34.66 59.57 38.35 46.4 36.25 46.4"/><polygon class="cls-4" points="54.78 46.4 52.29 55.91 49.4 46.4 47.31 46.4 44.47 55.93 41.87 46.4 39.73 46.4 43.48 59.57 45.28 59.57 48.34 49.63 51.37 59.57 53.19 59.57 56.88 46.4 54.78 46.4"/><polygon class="cls-4" points="73.31 46.4 70.82 55.91 67.94 46.4 65.84 46.4 63 55.93 60.4 46.4 58.26 46.4 62.01 59.57 63.81 59.57 66.87 49.63 69.9 59.57 71.72 59.57 75.41 46.4 73.31 46.4"/><path class="cls-4" d="M20.94,31.67a.75.75,0,0,1-.75-.75V20.81a.75.75,0,0,1,1.5,0V30.92A.76.76,0,0,1,20.94,31.67Z"/><path class="cls-4" d="M20.94,36.87a.74.74,0,0,1-.75-.75V35a.75.75,0,0,1,1.5,0v1.16A.75.75,0,0,1,20.94,36.87Z"/><path class="cls-4" d="M6.23,38.07A.42.42,0,0,1,6,38a.37.37,0,0,1-.1-.52l3.13-4.75a.38.38,0,0,1,.63.42L6.54,37.91A.36.36,0,0,1,6.23,38.07Z"/><path class="cls-4" d="M10.74,31.24a.31.31,0,0,1-.2-.07.36.36,0,0,1-.11-.51l2-3a.38.38,0,0,1,.63.42l-2,3A.37.37,0,0,1,10.74,31.24Z"/></g></g></g></svg>