<svg xmlns="http://www.w3.org/2000/svg" viewBox="0 0 220.46 152.92"><defs><style>.cls-1{isolation:isolate;}.cls-10,.cls-19,.cls-2,.cls-20,.cls-24,.cls-25,.cls-27,.cls-8{fill:none;}.cls-19,.cls-2,.cls-22,.cls-3{stroke:#ffc20e;}.cls-10,.cls-11,.cls-12,.cls-13,.cls-16,.cls-17,.cls-19,.cls-2,.cls-20,.cls-22,.cls-24,.cls-7,.cls-8,.cls-9{stroke-linecap:round;}.cls-10,.cls-11,.cls-12,.cls-13,.cls-16,.cls-17,.cls-2,.cls-20,.cls-22,.cls-24,.cls-7,.cls-8,.cls-9{stroke-linejoin:round;}.cls-10,.cls-11,.cls-12,.cls-13,.cls-14,.cls-19,.cls-2,.cls-22,.cls-24,.cls-25,.cls-3,.cls-7{stroke-width:1.5px;}.cls-12,.cls-14,.cls-22,.cls-3{fill:#282828;}.cls-14,.cls-19,.cls-25,.cls-3{stroke-miterlimit:10;}.cls-4,.cls-5,.cls-7,.cls-9{fill:#222223;}.cls-4{opacity:0.25;}.cls-26,.cls-4{mix-blend-mode:multiply;}.cls-15,.cls-6{fill:#acadac;}.cls-6{opacity:0.15;}.cls-10,.cls-11,.cls-12,.cls-13,.cls-14,.cls-16,.cls-17,.cls-7,.cls-8,.cls-9{stroke:#acadac;}.cls-11{fill:#fff;}.cls-13,.cls-16,.cls-18{fill:#2f2f2f;}.cls-17,.cls-23{fill:#757575;}.cls-20,.cls-25{stroke:#757575;}.cls-20{stroke-width:0.75px;}.cls-21{fill:#ffc20e;}.cls-24{stroke:#fff3cf;}.cls-26{fill:#e2af24;opacity:0.35;}</style></defs><title>data-collection-dark-bg</title><g class="cls-1"><g id="Layer_2" data-name="Layer 2"><g id="artwork"><g id="data_collection_gray_bg" data-name="data collection gray bg"><path class="cls-2" d="M212.66,32.2v75.17a5.14,5.14,0,0,1-5.14,5.13"/><path class="cls-3" d="M146.33,22.26h61a5.35,5.35,0,0,1,5.35,5.35v6.9a0,0,0,0,1,0,0H141a0,0,0,0,1,0,0v-6.9A5.35,5.35,0,0,1,146.33,22.26Z"/><rect class="cls-4" x="23.16" y="21.15" width="36.48" height="27.9" rx="2.66" ry="2.66"/><rect class="cls-4" x="56.37" y="113.06" width="36.48" height="27.9" rx="2.66" ry="2.66"/><polygon class="cls-5" points="80.92 123.39 93.61 113.3 93.94 135.83 80.92 123.39"/><path class="cls-6" d="M68,123.55,56.07,135.83l37.09.37c-.22,0-12.24-12.81-12.24-12.81Z"/><rect class="cls-7" x="27.72" y="11.96" width="36.48" height="27.9" rx="2.66" ry="2.66"/><path class="cls-8" d="M38.65,68.27H55.84a4.85,4.85,0,0,0,4.84-4.85V55.8a5.64,5.64,0,0,1,5.64-5.63H92.14a5.64,5.64,0,0,1,5.64,5.63v7.84a4.85,4.85,0,0,0,4.84,4.85h20.91"/><circle class="cls-9" cx="79.65" cy="49.67" r="8.21"/><path class="cls-10" d="M56.07,113l15.2,12.53a6.55,6.55,0,0,0,6.9,0L93.36,113"/><line class="cls-11" x1="56.07" y1="135.83" x2="68.59" y2="123.31"/><line class="cls-11" x1="93.36" y1="135.83" x2="80.92" y2="123.39"/><circle class="cls-12" cx="23.16" cy="68.27" r="15.36"/><path class="cls-8" d="M64.66,92.92H82.44a5.43,5.43,0,0,0,5.43-5.43V85.54a5.43,5.43,0,0,1,5.43-5.43h30.48"/><path class="cls-8" d="M94.27,124.58h6.48a7.22,7.22,0,0,0,7.22-7.22V98.76a7.21,7.21,0,0,1,7.21-7.22h8.6"/><line class="cls-8" x1="33.69" y1="124.58" x2="57.69" y2="124.58"/><rect class="cls-13" x="23.16" y="16.55" width="36.48" height="27.9" rx="2.66" ry="2.66"/><path class="cls-14" d="M25.83,16.55H57a2.66,2.66,0,0,1,2.66,2.66v3.74a0,0,0,0,1,0,0H23.16a0,0,0,0,1,0,0V19.21A2.66,2.66,0,0,1,25.83,16.55Z"/><circle class="cls-15" cx="27.09" cy="19.91" r="1.03"/><circle class="cls-15" cx="30.7" cy="19.91" r="1.03"/><circle class="cls-15" cx="34.24" cy="19.91" r="1.03"/><path class="cls-8" d="M64.66,25.36h37.13A6.61,6.61,0,0,1,108.4,32V50a6.59,6.59,0,0,0,6.6,6.6h8"/><circle class="cls-9" cx="33.69" cy="124.42" r="6.28"/><circle class="cls-16" cx="86.5" cy="25.58" r="6.28"/><circle class="cls-17" cx="100.68" cy="80.63" r="3.97"/><polyline class="cls-8" points="120.48 53.05 124.01 56.59 120.48 60.13"/><polyline class="cls-8" points="120.48 64.95 124.01 68.49 120.48 72.03"/><polyline class="cls-8" points="120.48 76.57 124.01 80.11 120.48 83.65"/><polyline class="cls-8" points="120.48 88 124.01 91.54 120.48 95.08"/><polygon class="cls-5" points="68.47 123.39 55.78 113.3 55.45 135.83 68.47 123.39"/><path class="cls-18" d="M68.79,123.55,56.88,135.83,94,136.2c-.22,0-12.23-12.81-12.23-12.81Z"/><line class="cls-10" x1="56.07" y1="135.83" x2="68.59" y2="123.31"/><line class="cls-13" x1="93.36" y1="135.83" x2="80.92" y2="123.39"/><path class="cls-13" d="M56.4,113.3l14.87,12.26a6.55,6.55,0,0,0,6.9,0L92.56,113.7"/><line class="cls-19" x1="48.38" y1="28.68" x2="55.55" y2="28.68"/><line class="cls-19" x1="27.25" y1="28.68" x2="44.3" y2="28.68"/><line class="cls-19" x1="27.25" y1="33.48" x2="55.55" y2="33.48"/><line class="cls-19" x1="27.25" y1="38.42" x2="39.21" y2="38.42"/><path class="cls-7" d="M38.11,100.77,54.74,75.58a1.92,1.92,0,0,1,3.22,0l16.63,25.19a1.93,1.93,0,0,1-1.61,3H39.72A1.93,1.93,0,0,1,38.11,100.77Z"/><line class="cls-2" x1="56.35" y1="83.81" x2="56.35" y2="93.49"/><line class="cls-2" x1="56.35" y1="98.46" x2="56.35" y2="97.35"/><line class="cls-20" x1="64.31" y1="132.37" x2="69.8" y2="132.37"/><line class="cls-20" x1="72.67" y1="132.37" x2="75.42" y2="132.37"/><path class="cls-21" d="M32.28,67a5.84,5.84,0,0,0-3.09-1.29,6.39,6.39,0,0,0-.5-.93,5.92,5.92,0,0,0-2-7.23.16.16,0,0,0-.21.23,4.27,4.27,0,0,1,1,3.23,4.18,4.18,0,0,1-.71,1.86,6.5,6.5,0,0,0-7,0A4.22,4.22,0,0,1,20,57.82a.16.16,0,0,0-.21-.23A5.93,5.93,0,0,0,17.31,63a5.59,5.59,0,0,0,.49,1.81,5.23,5.23,0,0,0-.51.93A5.84,5.84,0,0,0,14.2,67a6,6,0,0,0-2.09,5.58.16.16,0,0,0,.32,0,4.21,4.21,0,0,1,4.31-3.86,6.53,6.53,0,0,0,3.92,5.64A4,4,0,0,1,20,75.6a4.22,4.22,0,0,1-3,1.61.16.16,0,0,0,0,.31,6,6,0,0,0,5.19-1.66,6.14,6.14,0,0,0,.75-1h.56a5.66,5.66,0,0,0,.76,1,5.94,5.94,0,0,0,5.18,1.66.16.16,0,0,0,0-.31,4.28,4.28,0,0,1-3.63-2.82,6.54,6.54,0,0,0,3.93-5.64,4.23,4.23,0,0,1,4.31,3.86.16.16,0,0,0,.31,0A6,6,0,0,0,32.28,67Zm-4-1.33h-.05s0,0,0,0Zm-2-2.16a4.24,4.24,0,0,1-6,0,5.65,5.65,0,0,1,3-.86A5.71,5.71,0,0,1,26.24,63.55Zm-3,7a2.14,2.14,0,1,1,2.14-2.14A2.14,2.14,0,0,1,23.24,70.54Zm-5-4.83h-.06l0-.06Zm-.72,3.14a4.19,4.19,0,0,1,3.3,4.73A5.73,5.73,0,0,1,17.55,68.85Zm8.08,4.73a4.29,4.29,0,0,1,.87-3.24,4.22,4.22,0,0,1,2.43-1.49A5.73,5.73,0,0,1,25.63,73.58Z"/><path class="cls-2" d="M206.73,38.39v75.17a5.12,5.12,0,0,1-5.14,5.13l-61.41,0a5.13,5.13,0,0,1-5.13-5.13V38.39"/><path class="cls-22" d="M140.4,28.46h61a5.35,5.35,0,0,1,5.35,5.35v6.9a0,0,0,0,1,0,0H135.05a0,0,0,0,1,0,0v-6.9A5.35,5.35,0,0,1,140.4,28.46Z"/><circle class="cls-23" cx="143.62" cy="34.88" r="1.61"/><circle class="cls-23" cx="149.24" cy="34.88" r="1.61"/><circle class="cls-23" cx="154.77" cy="34.88" r="1.61"/><rect class="cls-21" x="144.19" y="51.95" width="53.51" height="23.03"/><polyline class="cls-24" points="154.53 70.33 167.52 57.35 177 66.83 187.24 56.59"/><circle class="cls-18" cx="167.4" cy="57.88" r="1.93"/><circle class="cls-18" cx="154.53" cy="70.34" r="1.93"/><circle class="cls-18" cx="187.24" cy="56.59" r="1.93"/><circle class="cls-18" cx="177.18" cy="66.6" r="1.93"/><rect class="cls-25" x="145.04" y="85.47" width="51.71" height="21.53"/><line class="cls-25" x1="145.04" y1="92.71" x2="196.75" y2="92.71"/><line class="cls-25" x1="145.04" y1="99.76" x2="196.75" y2="99.76"/><line class="cls-25" x1="154.76" y1="92.71" x2="154.76" y2="107"/><line class="cls-25" x1="165.52" y1="92.71" x2="165.52" y2="107"/><line class="cls-25" x1="176.27" y1="92.71" x2="176.27" y2="107"/><line class="cls-25" x1="187.02" y1="92.71" x2="187.02" y2="107"/><rect class="cls-26" x="191.3" y="51.95" width="6.4" height="23.03"/><rect class="cls-10" x="55.5" y="112.56" width="38.43" height="23.84" rx="1.76" ry="1.76"/></g><rect class="cls-27" width="220.46" height="152.92"/></g></g></g></svg>