<svg xmlns="http://www.w3.org/2000/svg" viewBox="0 0 220.46 152.92"><defs><style>.cls-1{isolation:isolate;}.cls-2{fill:#dedede;}.cls-10,.cls-2,.cls-3{opacity:0.15;}.cls-18,.cls-3{fill:#acadac;}.cls-11,.cls-14,.cls-17,.cls-21,.cls-22,.cls-4,.cls-7,.cls-8{fill:none;}.cls-11,.cls-20,.cls-4,.cls-7,.cls-9{stroke:#acadac;}.cls-20,.cls-21,.cls-4,.cls-8{stroke-linecap:round;stroke-linejoin:round;}.cls-12,.cls-19,.cls-20,.cls-5,.cls-9{fill:#222223;}.cls-5{opacity:0.5;}.cls-6{fill:#ffc20e;}.cls-11,.cls-13,.cls-14,.cls-15,.cls-17,.cls-7,.cls-9{stroke-miterlimit:10;}.cls-13,.cls-14,.cls-17,.cls-20,.cls-21,.cls-7,.cls-9{stroke-width:1.5px;}.cls-8{stroke:#757575;stroke-width:0.75px;}.cls-12{opacity:0.25;}.cls-12,.cls-19{mix-blend-mode:multiply;}.cls-13,.cls-15,.cls-16{fill:#2f2f2f;}.cls-13,.cls-14,.cls-15{stroke:#ffc20e;}.cls-17{stroke:#fff3cf;}.cls-19{opacity:0.13;}.cls-21{stroke:#fff;}</style></defs><title>investigation-support-dark-bg</title><g class="cls-1"><g id="Layer_2" data-name="Layer 2"><g id="artwork"><g id="Investigation_support_gray_bg" data-name="Investigation support gray bg"><polygon class="cls-2" points="89.36 51.08 101.36 57.27 84.22 57.04 89.36 51.08"/><polygon class="cls-3" points="159.16 23.64 147.67 57.27 168.88 57.04 159.16 23.64"/><polygon class="cls-2" points="55.92 36.88 60.17 57.04 54.22 57.04 55.92 36.88"/><polyline class="cls-4" points="17.54 66.31 40.91 106.16 46.11 103.81"/><polygon class="cls-5" points="158.44 24.58 131.74 56.74 147.67 57.27 158.44 24.58"/><polygon class="cls-5" points="96.58 32.18 114.26 56.89 123.06 57.27 123.61 49.16 124.13 44.38 96.58 32.18"/><polygon class="cls-5" points="17.54 66.31 55.92 34.96 54.22 57.04 47.01 57.74 46.11 67.47 17.54 66.31"/><line class="cls-4" x1="17.54" y1="66.31" x2="55.92" y2="34.96"/><polyline class="cls-4" points="101.36 57.27 89.36 51.08 84.22 57.04"/><polyline class="cls-4" points="168.53 56.38 159.31 23.29 131.74 56.74"/><polyline class="cls-4" points="114.26 56.89 97.27 32.8 124.13 44.38 159.31 23.29 147.96 56.57"/><polyline class="cls-4" points="60.17 57.04 55.92 34.96 89.36 51.08"/><line class="cls-4" x1="17.54" y1="66.31" x2="46.11" y2="80.78"/><line class="cls-4" x1="54.22" y1="57.04" x2="55.92" y2="34.96"/><line class="cls-4" x1="17.54" y1="66.31" x2="46.11" y2="67.47"/><circle class="cls-6" cx="17.54" cy="66.31" r="1.92"/><circle class="cls-6" cx="40.82" cy="106.25" r="1.92"/><circle class="cls-6" cx="55.92" cy="34.96" r="1.92"/><circle class="cls-6" cx="159.16" cy="23.64" r="1.92"/><line class="cls-4" x1="89.36" y1="51.08" x2="97.27" y2="32.8"/><circle class="cls-6" cx="97.15" cy="33.04" r="1.92"/><line class="cls-4" x1="124.13" y1="44.38" x2="123.06" y2="57.27"/><circle class="cls-6" cx="124.13" cy="44.38" r="1.92"/><circle class="cls-6" cx="89.36" cy="51.08" r="1.92"/><polyline class="cls-4" points="173.33 58.67 192.74 43.49 202.92 76.63 173.56 66.47"/><circle class="cls-6" cx="202.92" cy="76.63" r="1.92"/><circle class="cls-6" cx="192.62" cy="43.57" r="1.92"/><path class="cls-7" d="M53.29,122.82V64.89a.58.58,0,0,1,.59-.58H165.63a.58.58,0,0,1,.59.58l.05,57.79"/><path class="cls-7" d="M173.56,123.47V59.75A2.71,2.71,0,0,0,170.85,57h-122a2.7,2.7,0,0,0-2.7,2.71V123"/><line class="cls-8" x1="49.74" y1="73.37" x2="49.74" y2="93.6"/><line class="cls-8" x1="49.74" y1="98.55" x2="49.74" y2="108.67"/><path class="cls-9" d="M174.61,131.2H45.05c-3.54,0-6.41-4.21-6.41-7.75h0L181,123.27C181,126.81,178.15,131.2,174.61,131.2Z"/><path class="cls-10" d="M97.49,123.49h24.69a0,0,0,0,1,0,0v0a3,3,0,0,1-3,3H100.51a3,3,0,0,1-3-3v0A0,0,0,0,1,97.49,123.49Z"/><path class="cls-11" d="M97.49,123.49h24.69a0,0,0,0,1,0,0v0a3,3,0,0,1-3,3H100.51a3,3,0,0,1-3-3v0A0,0,0,0,1,97.49,123.49Z"/><rect class="cls-12" x="160.85" y="65.01" width="4.66" height="57.57"/><circle class="cls-6" cx="166.41" cy="93.8" r="19.76"/><line class="cls-13" x1="179.89" y1="107.38" x2="185.1" y2="112.6"/><path class="cls-14" d="M189.44,108.83h7.64a0,0,0,0,1,0,0v20a3.82,3.82,0,0,1-3.82,3.82h0a3.82,3.82,0,0,1-3.82-3.82v-20A0,0,0,0,1,189.44,108.83Z" transform="translate(-28.78 172.02) rotate(-45)"/><line class="cls-13" x1="195.77" y1="128.62" x2="200.97" y2="123.41"/><line class="cls-15" x1="195.94" y1="123.36" x2="188.11" y2="115.53"/><circle class="cls-16" cx="166.41" cy="93.8" r="16.12"/><circle class="cls-17" cx="166.41" cy="93.8" r="16.12"/><line class="cls-4" x1="109.84" y1="60.72" x2="114.26" y2="60.72"/><circle class="cls-18" cx="106.5" cy="60.72" r="1.1"/><path class="cls-19" d="M155.47,82.9a15.4,15.4,0,1,1,21.78,21.78"/><path class="cls-12" d="M82.86,113.35,107.45,76.1a2.86,2.86,0,0,1,4.77,0l24.59,37.25a2.86,2.86,0,0,1-2.38,4.43H85.24A2.86,2.86,0,0,1,82.86,113.35Z"/><path class="cls-20" d="M84,109.23l23.54-35.65a2.72,2.72,0,0,1,4.55,0l23.54,35.65a2.73,2.73,0,0,1-2.28,4.24H86.3A2.73,2.73,0,0,1,84,109.23Z"/><line class="cls-21" x1="109.83" y1="85.22" x2="109.83" y2="98.92"/><line class="cls-21" x1="109.83" y1="105.97" x2="109.83" y2="104.39"/></g><rect class="cls-22" width="220.46" height="152.92"/></g></g></g></svg>