<svg xmlns="http://www.w3.org/2000/svg" viewBox="0 0 220.46 152.92"><defs><style>.cls-1{isolation:isolate;}.cls-10,.cls-14,.cls-15,.cls-2,.cls-3,.cls-7,.cls-9{fill:none;}.cls-2,.cls-9{stroke:#757575;}.cls-10,.cls-14,.cls-2,.cls-7,.cls-9{stroke-linecap:round;stroke-linejoin:round;}.cls-11,.cls-14,.cls-2,.cls-3,.cls-5,.cls-7{stroke-width:1.5px;}.cls-11,.cls-3,.cls-5,.cls-7{stroke:#acadac;}.cls-11,.cls-3,.cls-5{stroke-miterlimit:10;}.cls-11,.cls-4,.cls-8{fill:#222223;}.cls-4{opacity:0.25;mix-blend-mode:multiply;}.cls-5{fill:#2f2f2f;}.cls-6{fill:#acadac;}.cls-9{stroke-width:0.75px;}.cls-10{stroke:#ffc20e;}.cls-12{fill:#757575;}.cls-13{fill:#ffc20e;}.cls-14{stroke:#fff;}</style></defs><title>network-reporting-dark-bg_2</title><g class="cls-1"><g id="Layer_2" data-name="Layer 2"><g id="artwork"><g id="Network-reporting_gray_bg" data-name="Network-reporting gray bg"><path class="cls-2" d="M86.05,23.46c8.66,3.91,7.76,3.91,8.66,3.91a11,11,0,0,1,4.12,1.27c.81.57,4.88,4.17,4.39,4.49s-5.16,3.73-5.32,3.32-.55-.8-1.61-.72-1.3,3.1-1.3,3.1,2.82,2.32,2.82,3c0,2.16-9,2.83-9.75,3.81a33.91,33.91,0,0,0-2.12,4.07s-3.64,3.26-3.64,3.91.33,4.73.16,5.14-1.82.9-2.06.41-1.55-4-1.88-4.16-7.49.33-7.82.81S69,57.9,69,58.39s1.19,3.74,1.19,4.06,3.51,1.39,3.91.57.58-1.54,1.23-1.63,1.79-.24,2,0-1,3.83-.57,4.24a21.76,21.76,0,0,0,3.51,1.47l2.84,2.62s18.92,5.68,19.16,6,.28,5.33.52,5.82S116,87.13,116.19,88s-1,3-1,3-2.61,5.62-2.45,6.44-7.1,5.57-7.18,6.47a10.4,10.4,0,0,1-1.15,4c-.73,1.14-1.87,2.12-2.36,3s-8.81,7.48-8.56,8.13.81,1.06.73,1.55-.49.82-.65,1.47-.65,1.3-.73,1.63-1.35.49-1.94-.33-4.34-2.93-4.26-4.72-.16-12.7-.08-14.91,2.53-3.09,2-4.48S83.9,94.58,82.93,93s-1-1.46-1.15-3-1.71-2.69-1.71-3.51-.89-4.4-.32-5.13,2.12-2.2,2.28-2.77.65-2.69,0-3.26S78,74,77.3,73.15s-1.71-2.61-2-2.94-8.48-3-8.64-3.26-3.59-2.44-4-3.18-.41-2.52-.65-3.34-2.2-1.87-2-1.47-.7,1.55-1,1.88a1.21,1.21,0,0,1-1.86-.73s-2.52-3.86-4-5.63"/><path class="cls-3" d="M148.76,114.85a57.28,57.28,0,1,1-1.17-76.28"/><path class="cls-4" d="M181,79v40.11a2.22,2.22,0,0,1-2.21,2.22H118.29a2.23,2.23,0,0,1-2.22-2.22V79Z"/><path class="cls-5" d="M175.88,73h5v41.48a.85.85,0,0,1-.85.85h-63.2a.85.85,0,0,1-.85-.85V73h5.59"/><polygon class="cls-6" points="121.21 73.01 116.34 73.01 120.92 77.59 121.21 73.01"/><polygon class="cls-6" points="175.88 73.01 180.83 73.01 175.84 78.2 175.88 73.01"/><polyline class="cls-5" points="175.84 45.7 175.84 78.2 161.28 92.76 135.72 92.76 121.21 78.16 121.21 45.7"/><line class="cls-7" x1="145.48" y1="56.29" x2="168.57" y2="56.29"/><line class="cls-7" x1="145.48" y1="60.92" x2="163.45" y2="60.92"/><line class="cls-7" x1="145.48" y1="73.85" x2="168.57" y2="73.85"/><line class="cls-7" x1="145.48" y1="78.48" x2="163.45" y2="78.48"/><polygon class="cls-8" points="161.28 92.76 180.87 73.01 180.87 115.34 161.28 92.76"/><polygon class="cls-8" points="135.81 92.76 116.21 73.01 116.21 115.34 135.81 92.76"/><line class="cls-3" x1="135.72" y1="92.76" x2="116.3" y2="114.97"/><polyline class="cls-7" points="115.97 73.01 135.72 92.76 161.28 92.76 180.31 73.6"/><path class="cls-3" d="M175.88,73h5v41.15a1.17,1.17,0,0,1-1.17,1.18H117.15a1.18,1.18,0,0,1-1.18-1.18V73h5.11"/><line class="cls-3" x1="161.28" y1="92.76" x2="180.45" y2="114.85"/><line class="cls-9" x1="129.03" y1="109.55" x2="142.14" y2="109.55"/><line class="cls-9" x1="146.05" y1="109.55" x2="151.29" y2="109.55"/><path class="cls-10" d="M76.51,37.89c8.1-21.71,21.82-36,32.88-33,6.12,1.64,9.91,7.14,12,17"/><path class="cls-10" d="M95,110.87a166.46,166.46,0,0,1-17.1-14.54C48.57,67,32.63,35.28,42.33,25.58c5.05-5,16-3.16,29.56,4l1.12.62"/><path class="cls-10" d="M150.63,37.75C153,25.06,152,16,147,13.47S134.54,15,125.77,23.68"/><path class="cls-10" d="M91.57,133.49c-10,11.43-19.56,17.11-26.06,14.23C53.9,142.58,56,112,69.69,77.36l1.73-4.21"/><polyline class="cls-10" points="94.5 105.97 95.14 110.93 90.18 111.57"/><polyline class="cls-10" points="80.76 36.29 76.35 38.66 74.26 34.39"/><polyline class="cls-10" points="67.12 74.73 71.53 72.36 73.62 76.63"/><path class="cls-3" d="M118.22,21.52A55.65,55.65,0,0,1,126,23.89s3.78,1.53,5.59,2.5"/><path class="cls-3" d="M69,33.17A57.06,57.06,0,0,1,76.37,28"/><path class="cls-11" d="M125.28,38.13h46.48a4.08,4.08,0,0,1,4.08,4.08v5.26a0,0,0,0,1,0,0H121.21a0,0,0,0,1,0,0V42.2A4.08,4.08,0,0,1,125.28,38.13Z"/><circle class="cls-12" cx="127.74" cy="43.02" r="1.23"/><circle class="cls-12" cx="132.02" cy="43.02" r="1.23"/><circle class="cls-12" cx="136.24" cy="43.02" r="1.23"/><path class="cls-3" d="M105.45,20.09a57,57,0,0,1,27.8,7.19"/><path class="cls-3" d="M97.76,134.13a56.43,56.43,0,0,1-9.76-2.2"/><circle class="cls-13" cx="133.82" cy="58.94" r="6.08"/><line class="cls-14" x1="131.26" y1="56.38" x2="136.37" y2="61.49"/><line class="cls-14" x1="136.37" y1="56.38" x2="131.26" y2="61.49"/><circle class="cls-13" cx="133.82" cy="76.15" r="6.08"/><polyline class="cls-14" points="131.09 76.34 132.88 78.13 136.68 74.34"/></g><rect class="cls-15" width="220.46" height="152.92"/></g></g></g></svg>