<?xml version="1.0" encoding="UTF-8"?>
<svg width="27px" height="27px" viewBox="0 0 27 27" version="1.1" xmlns="http://www.w3.org/2000/svg" xmlns:xlink="http://www.w3.org/1999/xlink">
    <!-- Generator: Sketch 48.2 (47327) - http://www.bohemiancoding.com/sketch -->
    <title>linkedin-with-circle</title>
    <desc>Created with Sketch.</desc>
    <defs></defs>
    <g id="footer" stroke="none" stroke-width="1" fill="none" fill-rule="evenodd" transform="translate(-1341.000000, -82.000000)">
        <g fill="#F3F3F3" fill-rule="nonzero" id="social-media-icons">
            <g transform="translate(1304.000000, 81.000000)">
                <g id="linkedin-with-circle" transform="translate(37.000000, 1.000000)">
                    <path d="M13.3411765,0 C5.97295588,0 0,5.97295588 0,13.3411765 C0,20.7093971 5.97295588,26.6823529 13.3411765,26.6823529 C20.7093971,26.6823529 26.6823529,20.7093971 26.6823529,13.3411765 C26.6823529,5.97295588 20.7093971,0 13.3411765,0 Z M10.0753676,18.8708162 L7.37377941,18.8708162 L7.37377941,10.1768162 L10.0753676,10.1768162 L10.0753676,18.8708162 Z M8.70789706,9.10952206 C7.85461765,9.10952206 7.30290441,8.505 7.30290441,7.75733824 C7.30290441,6.99438971 7.87129412,6.40793382 8.74263971,6.40793382 C9.61398529,6.40793382 10.1476324,6.99438971 10.1643088,7.75733824 C10.1643088,8.505 9.61398529,9.10952206 8.70789706,9.10952206 Z M19.9422794,18.8708162 L17.2406912,18.8708162 L17.2406912,14.0527059 C17.2406912,12.9312132 16.8487941,12.1696544 15.8718309,12.1696544 C15.1255588,12.1696544 14.6822426,12.6852353 14.4862941,13.1813603 C14.4140294,13.3578529 14.3959632,13.608 14.3959632,13.8567574 L14.3959632,18.8694265 L11.6929853,18.8694265 L11.6929853,12.9492794 C11.6929853,11.8639191 11.6582426,10.9564412 11.6221103,10.1754265 L13.9693235,10.1754265 L14.0930074,11.3830809 L14.1472059,11.3830809 C14.5029706,10.8160809 15.3743162,9.97947794 16.8321176,9.97947794 C18.6095515,9.97947794 19.9422794,11.1704559 19.9422794,13.7302941 L19.9422794,18.8708162 Z" id="Shape"></path>
                </g>
            </g>
        </g>
    </g>
</svg>