<?xml version="1.0" encoding="UTF-8"?>
<svg width="28px" height="28px" viewBox="0 0 28 28" version="1.1" xmlns="http://www.w3.org/2000/svg" xmlns:xlink="http://www.w3.org/1999/xlink">
    <!-- Generator: Sketch 48.2 (47327) - http://www.bohemiancoding.com/sketch -->
    <title>twitter-with-circle</title>
    <desc>Created with Sketch.</desc>
    <defs></defs>
    <g id="footer" stroke="none" stroke-width="1" fill="none" fill-rule="evenodd" transform="translate(-1304.000000, -81.000000)">
        <g fill="#F3F3F3" fill-rule="nonzero" id="social-media-icons">
            <g transform="translate(1304.000000, 81.000000)">
                <g id="twitter-with-circle">
                    <path d="M14,0 C6.26791667,0 0,6.26791667 0,14 C0,21.7320833 6.26791667,28 14,28 C21.7320833,28 28,21.7320833 28,14 C28,6.26791667 21.7320833,0 14,0 Z M19.6947917,11.4683333 C19.700625,11.5879167 19.7020833,11.7075 19.7020833,11.8241667 C19.7020833,15.47 16.9297917,19.6714583 11.8577083,19.6714583 C10.3002083,19.6714583 8.850625,19.2164583 7.63145833,18.431875 C7.84583333,18.458125 8.06604167,18.4683333 8.28916667,18.4683333 C9.58125,18.4683333 10.7697917,18.029375 11.7133333,17.2885417 C10.5072917,17.2652083 9.489375,16.4689583 9.13791667,15.3752083 C9.305625,15.4058333 9.47770833,15.4233333 9.655625,15.4233333 C9.90645833,15.4233333 10.1514583,15.3897917 10.381875,15.3270833 C9.12041667,15.0733333 8.16958333,13.9591667 8.16958333,12.6233333 L8.16958333,12.5897917 C8.54145833,12.7954167 8.96729167,12.9208333 9.419375,12.9354167 C8.67854167,12.4395833 8.19291667,11.5966667 8.19291667,10.6385417 C8.19291667,10.1339583 8.32854167,9.65854167 8.56625,9.25166667 C9.926875,10.92 11.956875,12.0166667 14.249375,12.1347917 C14.20125,11.9320833 14.1779167,11.7220833 14.1779167,11.5047917 C14.1779167,9.98375 15.4116667,8.74708333 16.935625,8.74708333 C17.7275,8.74708333 18.445,9.0825 18.948125,9.61916667 C19.5766667,9.49375 20.1658333,9.26625 20.698125,8.94979167 C20.4925,9.59291667 20.0564583,10.1339583 19.48625,10.4766667 C20.0447917,10.408125 20.575625,10.2608333 21.07,10.040625 C20.7010417,10.5933333 20.2329167,11.0804167 19.6947917,11.4683333 Z" id="Shape"></path>
                </g>
            </g>
        </g>
    </g>
</svg>