<svg xmlns="http://www.w3.org/2000/svg" viewBox="0 0 165 165"><defs><style>.cls-1{isolation:isolate;}.cls-2{fill:none;}.cls-3{fill:#f9f9f9;}.cls-4{fill:#2f2f2f;}.cls-5{fill:#dedede;}.cls-6,.cls-9{fill:#acadac;}.cls-6{opacity:0.2;}.cls-7{fill:#efefef;}.cls-8{fill:#fff;}.cls-10{fill:#ffc20e;}.cls-11{fill:#fff3cf;}.cls-12,.cls-13{fill:#e2af24;}.cls-12{opacity:0.35;mix-blend-mode:multiply;}</style></defs><title>data-collection-165px-wide</title><g class="cls-1"><g id="Layer_2" data-name="Layer 2"><g id="artwork"><rect class="cls-2" width="165" height="165"/><g id="data_collection_white_bg" data-name="data collection white bg"><polygon class="cls-3" points="162.05 112.16 159.81 112.16 159.81 50.19 164.06 50.19 164.06 109.69 162.05 112.16"/><path class="cls-4" d="M160,113.21h0a.75.75,0,0,1,0-1.5h0a3.33,3.33,0,0,0,3.33-3.33V48.61a.75.75,0,1,1,1.5,0v59.77a4.84,4.84,0,0,1-1.42,3.42A4.79,4.79,0,0,1,160,113.21Z"/><path class="cls-5" d="M112.68,40.7H158.5a5.59,5.59,0,0,1,5.59,5.59v4.15a0,0,0,0,1,0,0h-57a0,0,0,0,1,0,0V46.29A5.59,5.59,0,0,1,112.68,40.7Z"/><path class="cls-4" d="M164.84,51.19h-58.5v-4.9A6.35,6.35,0,0,1,112.68,40h45.81a6.36,6.36,0,0,1,6.35,6.34Zm-57-1.5h55.5v-3.4a4.85,4.85,0,0,0-4.85-4.84H112.68a4.84,4.84,0,0,0-4.84,4.84Z"/><rect class="cls-6" x="13.13" y="38.67" width="29.01" height="22.19" rx="2.79"/><rect class="cls-6" x="39.54" y="111.76" width="29.01" height="22.19" rx="2.79"/><polygon class="cls-7" points="59.06 120.41 69.15 112.39 69.41 130.3 59.06 120.41"/><path class="cls-8" d="M48.77,120.54,39.3,130.3l29.49.3c-.18,0-9.73-10.19-9.73-10.19Z"/><rect class="cls-5" x="16.75" y="31.8" width="29.01" height="22.19" rx="2.79"/><path class="cls-4" d="M43,54.74H19.54A3.54,3.54,0,0,1,16,51.21V34.59a3.55,3.55,0,0,1,3.54-3.54H43a3.54,3.54,0,0,1,3.53,3.54V51.21A3.54,3.54,0,0,1,43,54.74ZM19.54,32.55a2,2,0,0,0-2,2V51.21a2,2,0,0,0,2,2H43a2,2,0,0,0,2-2V34.59a2,2,0,0,0-2-2Z"/><path class="cls-4" d="M92.94,77.25H76.32A4.36,4.36,0,0,1,72,72.9V66.67a4,4,0,0,0-4-4H47.45a4,4,0,0,0-4,4v6.06a4.35,4.35,0,0,1-4.35,4.35H25.45a.5.5,0,0,1,0-1H39.11a3.35,3.35,0,0,0,3.35-3.35V66.67a5,5,0,0,1,5-5H68a5,5,0,0,1,5,5V72.9a3.35,3.35,0,0,0,3.36,3.35H92.94a.5.5,0,0,1,.5.5A.5.5,0,0,1,92.94,77.25Z"/><circle class="cls-5" cx="58.05" cy="61.79" r="6.53"/><path class="cls-4" d="M58.05,68.82a7,7,0,1,1,7-7A7,7,0,0,1,58.05,68.82Zm0-13.06a6,6,0,1,0,6,6A6,6,0,0,0,58.05,55.76Z"/><path class="cls-9" d="M67.56,131.51H40.69a2.61,2.61,0,0,1-2.6-2.6V113.64a2.6,2.6,0,0,1,2.6-2.59H67.56a2.59,2.59,0,0,1,2.59,2.59v15.27A2.6,2.6,0,0,1,67.56,131.51Zm-26.87-19a1.09,1.09,0,0,0-1.1,1.09v15.27a1.1,1.1,0,0,0,1.1,1.1H67.56a1.09,1.09,0,0,0,1.09-1.1V113.64a1.09,1.09,0,0,0-1.09-1.09Z"/><path class="cls-9" d="M54.12,123.67a6,6,0,0,1-3.14-.9l-.08-.06-12.08-10a.75.75,0,1,1,1-1.15l12,9.92a4.4,4.4,0,0,0,4.61,0l12-9.92a.75.75,0,1,1,1,1.15l-12.08,10-.08.06A6,6,0,0,1,54.12,123.67Z"/><line class="cls-8" x1="39.3" y1="130.3" x2="49.25" y2="120.35"/><path class="cls-9" d="M39.3,131.05a.71.71,0,0,1-.53-.22.74.74,0,0,1,0-1.06l9.95-10a.75.75,0,0,1,1.06,1.06l-10,10A.74.74,0,0,1,39.3,131.05Z"/><line class="cls-8" x1="68.95" y1="130.3" x2="59.06" y2="120.41"/><path class="cls-9" d="M69,131.05a.74.74,0,0,1-.53-.22l-9.89-9.89a.74.74,0,0,1,0-1.06.75.75,0,0,1,1.06,0l9.89,9.89a.75.75,0,0,1,0,1.06A.74.74,0,0,1,69,131.05Z"/><path class="cls-4" d="M13.13,89.54a13,13,0,1,1,13-13A13,13,0,0,1,13.13,89.54Zm0-24.42A11.46,11.46,0,1,0,24.59,76.58,11.48,11.48,0,0,0,13.13,65.12Z"/><path class="cls-4" d="M60.26,96.68H46.12a.5.5,0,0,1,0-1H60.26a3.82,3.82,0,0,0,3.82-3.82V90.31A4.82,4.82,0,0,1,68.9,85.5H93.14a.5.5,0,0,1,.5.5.51.51,0,0,1-.5.5H68.9a3.82,3.82,0,0,0-3.82,3.81v1.55A4.82,4.82,0,0,1,60.26,96.68Z"/><path class="cls-4" d="M74.82,121.86H69.67a.5.5,0,0,1,0-1h5.15a5.25,5.25,0,0,0,5.24-5.24v-14.8a6.25,6.25,0,0,1,6.24-6.24h6.84a.51.51,0,0,1,.5.5.5.5,0,0,1-.5.5H86.3a5.25,5.25,0,0,0-5.24,5.24v14.8A6.25,6.25,0,0,1,74.82,121.86Z"/><path class="cls-4" d="M40.58,121.86H21.5a.5.5,0,0,1,0-1H40.58a.5.5,0,0,1,0,1Z"/><rect class="cls-8" x="13.13" y="35.45" width="29.01" height="22.19" rx="2.79"/><path class="cls-4" d="M39.35,58.39H15.91a3.54,3.54,0,0,1-3.53-3.54V38.23a3.54,3.54,0,0,1,3.53-3.53H39.35a3.54,3.54,0,0,1,3.54,3.53V54.85A3.55,3.55,0,0,1,39.35,58.39ZM15.91,36.2a2,2,0,0,0-2,2V54.85a2,2,0,0,0,2,2H39.35a2,2,0,0,0,2-2V38.23a2,2,0,0,0-2-2Z"/><path class="cls-3" d="M15.91,35.45H39.35a2.79,2.79,0,0,1,2.79,2.79v2.3a0,0,0,0,1,0,0h-29a0,0,0,0,1,0,0v-2.3A2.79,2.79,0,0,1,15.91,35.45Z"/><path class="cls-4" d="M42.89,41.29H12.38V38.23a3.54,3.54,0,0,1,3.53-3.53H39.35a3.54,3.54,0,0,1,3.54,3.53Zm-29-1.5H41.39V38.23a2,2,0,0,0-2-2H15.91a2,2,0,0,0-2,2Z"/><circle class="cls-9" cx="16.27" cy="38.13" r="0.82"/><circle class="cls-9" cx="19.14" cy="38.13" r="0.82"/><circle class="cls-9" cx="21.96" cy="38.13" r="0.82"/><path class="cls-4" d="M92.55,67.83H86.16a5.76,5.76,0,0,1-5.76-5.75V47.71A4.75,4.75,0,0,0,75.65,43H46.12a.5.5,0,0,1,0-1H75.65a5.76,5.76,0,0,1,5.75,5.75V62.08a4.76,4.76,0,0,0,4.76,4.75h6.39a.5.5,0,0,1,.5.5A.51.51,0,0,1,92.55,67.83Z"/><circle class="cls-5" cx="21.5" cy="121.23" r="4.99"/><path class="cls-4" d="M21.5,126.72A5.49,5.49,0,1,1,27,121.23,5.49,5.49,0,0,1,21.5,126.72Zm0-10A4.49,4.49,0,1,0,26,121.23,4.5,4.5,0,0,0,21.5,116.74Z"/><circle class="cls-7" cx="63.5" cy="42.63" r="4.99"/><path class="cls-4" d="M63.5,48.12A5.49,5.49,0,1,1,69,42.63,5.49,5.49,0,0,1,63.5,48.12Zm0-10A4.49,4.49,0,1,0,68,42.63,4.5,4.5,0,0,0,63.5,38.14Z"/><circle class="cls-8" cx="74.77" cy="86.41" r="3.16"/><path class="cls-4" d="M74.77,90.07a3.66,3.66,0,1,1,3.65-3.66A3.66,3.66,0,0,1,74.77,90.07Zm0-6.31a2.66,2.66,0,1,0,2.65,2.65A2.66,2.66,0,0,0,74.77,83.76Z"/><path class="cls-4" d="M90.51,70.61a.47.47,0,0,1-.35-.15.5.5,0,0,1,0-.71l2.46-2.46-2.46-2.45a.5.5,0,0,1,0-.71.48.48,0,0,1,.7,0l2.82,2.81a.5.5,0,0,1,.14.35.52.52,0,0,1-.14.36l-2.82,2.81A.47.47,0,0,1,90.51,70.61Z"/><path class="cls-4" d="M90.51,80.07a.47.47,0,0,1-.35-.15.5.5,0,0,1,0-.71l2.46-2.46L90.16,74.3a.5.5,0,0,1,0-.71.48.48,0,0,1,.7,0l2.82,2.81a.5.5,0,0,1,.14.35.52.52,0,0,1-.14.36l-2.82,2.81A.47.47,0,0,1,90.51,80.07Z"/><path class="cls-4" d="M90.51,89.31a.47.47,0,0,1-.35-.15.5.5,0,0,1,0-.71L92.62,86l-2.46-2.46a.5.5,0,0,1,0-.71.5.5,0,0,1,.7,0l2.82,2.81a.52.52,0,0,1,.14.36.5.5,0,0,1-.14.35l-2.82,2.81A.47.47,0,0,1,90.51,89.31Z"/><path class="cls-4" d="M90.51,98.4a.47.47,0,0,1-.35-.15.5.5,0,0,1,0-.71l2.46-2.46-2.46-2.45a.5.5,0,0,1,0-.71.48.48,0,0,1,.7,0l2.82,2.81a.5.5,0,0,1,.14.35.52.52,0,0,1-.14.36l-2.82,2.81A.47.47,0,0,1,90.51,98.4Z"/><polygon class="cls-7" points="49.15 120.41 39.06 112.39 38.81 130.3 49.15 120.41"/><path class="cls-4" d="M67.56,131.51H40.69a2.61,2.61,0,0,1-2.6-2.6V113.64a2.6,2.6,0,0,1,2.6-2.59H67.56a2.59,2.59,0,0,1,2.59,2.59v15.27A2.6,2.6,0,0,1,67.56,131.51Zm-26.87-19a1.09,1.09,0,0,0-1.1,1.09v15.27a1.1,1.1,0,0,0,1.1,1.1H67.56a1.09,1.09,0,0,0,1.09-1.1V113.64a1.09,1.09,0,0,0-1.09-1.09Z"/><path class="cls-4" d="M39.3,131.05a.71.71,0,0,1-.53-.22.74.74,0,0,1,0-1.06l9.95-10a.75.75,0,0,1,1.06,1.06l-10,10A.74.74,0,0,1,39.3,131.05Z"/><line class="cls-4" x1="68.95" y1="130.3" x2="59.06" y2="120.41"/><path class="cls-4" d="M69,131.05a.74.74,0,0,1-.53-.22l-9.89-9.89a.74.74,0,0,1,0-1.06.75.75,0,0,1,1.06,0l9.89,9.89a.75.75,0,0,1,0,1.06A.74.74,0,0,1,69,131.05Z"/><path class="cls-8" d="M39.56,112.39l11.82,9.75a5.22,5.22,0,0,0,5.49,0l11.82-9.75"/><path class="cls-4" d="M54.12,123.67a6,6,0,0,1-3.14-.9l-.08-.06L39.08,113a.76.76,0,0,1-.1-1.06.75.75,0,0,1,1.05-.1l11.79,9.71a4.4,4.4,0,0,0,4.61,0l11.78-9.71a.75.75,0,1,1,1,1.16l-11.9,9.8A6,6,0,0,1,54.12,123.67Z"/><path class="cls-10" d="M38.88,45.85h-5.7a.75.75,0,0,1,0-1.5h5.7a.75.75,0,0,1,0,1.5Z"/><path class="cls-10" d="M29.94,45.85H16.38a.75.75,0,1,1,0-1.5H29.94a.75.75,0,1,1,0,1.5Z"/><path class="cls-10" d="M38.88,49.67H16.38a.75.75,0,1,1,0-1.5h22.5a.75.75,0,1,1,0,1.5Z"/><path class="cls-10" d="M25.89,53.59H16.38a.75.75,0,1,1,0-1.5h9.51a.75.75,0,0,1,0,1.5Z"/><path class="cls-8" d="M25,102.42l13.22-20a1.53,1.53,0,0,1,2.56,0l13.22,20a1.53,1.53,0,0,1-1.28,2.38H26.3A1.53,1.53,0,0,1,25,102.42Z"/><path class="cls-4" d="M52.74,105.55H26.3a2.26,2.26,0,0,1-2-1.2,2.29,2.29,0,0,1,.1-2.34h0L37.61,82a2.29,2.29,0,0,1,3.82,0l13.22,20a2.29,2.29,0,0,1-1.91,3.54Zm-27.1-2.71a.78.78,0,0,0,.66,1.21H52.74a.77.77,0,0,0,.69-.41.76.76,0,0,0,0-.8l-13.23-20a.8.8,0,0,0-1.31,0Z"/><path class="cls-10" d="M39.52,97.6a.75.75,0,0,1-.75-.75V89.16a.75.75,0,0,1,1.5,0v7.69A.75.75,0,0,1,39.52,97.6Z"/><path class="cls-10" d="M39.52,101.56a.76.76,0,0,1-.75-.75v-.89a.75.75,0,0,1,1.5,0v.89A.76.76,0,0,1,39.52,101.56Z"/><path class="cls-9" d="M50.22,128.06H45.84a.51.51,0,0,1-.5-.5.5.5,0,0,1,.5-.5h4.38a.5.5,0,0,1,.5.5A.51.51,0,0,1,50.22,128.06Z"/><path class="cls-9" d="M54.68,128.06H52.49a.51.51,0,0,1-.5-.5.5.5,0,0,1,.5-.5h2.19a.5.5,0,0,1,.5.5A.5.5,0,0,1,54.68,128.06Z"/><path class="cls-10" d="M20.38,75.6a4.68,4.68,0,0,0-2.46-1,5.18,5.18,0,0,0-.4-.73,4.63,4.63,0,0,0,.41-1.9,4.72,4.72,0,0,0-2-3.85c-.12-.08-.27.07-.17.18a3.34,3.34,0,0,1,.76,2.57A3.22,3.22,0,0,1,16,72.32a5.17,5.17,0,0,0-5.59,0,3.36,3.36,0,0,1,.21-4,.12.12,0,0,0-.17-.18,4.72,4.72,0,0,0-2,4.31,4.65,4.65,0,0,0,.39,1.44,5.18,5.18,0,0,0-.4.73A4.64,4.64,0,0,0,6,75.6,4.75,4.75,0,0,0,4.34,80a.13.13,0,0,0,.25,0A3.35,3.35,0,0,1,8,77a5.18,5.18,0,0,0,3.11,4.48,3,3,0,0,1-.52,1,3.39,3.39,0,0,1-2.36,1.28.13.13,0,0,0,0,.25,4.75,4.75,0,0,0,4.13-1.32,6.06,6.06,0,0,0,.6-.76h.44a6.06,6.06,0,0,0,.6.76,4.73,4.73,0,0,0,4.12,1.32.13.13,0,0,0,0-.25,3.35,3.35,0,0,1-2.36-1.28,3.27,3.27,0,0,1-.53-1A5.19,5.19,0,0,0,18.36,77a3.35,3.35,0,0,1,2.46,1,3.39,3.39,0,0,1,1,2.09A.13.13,0,0,0,22,80,4.75,4.75,0,0,0,20.38,75.6Zm-3.19-1.06h0s0,0,0,0Zm-1.62-1.71a3.36,3.36,0,0,1-4.76,0,4.59,4.59,0,0,1,2.38-.68A4.51,4.51,0,0,1,15.57,72.83Zm-2.38,5.55a1.7,1.7,0,1,1,1.7-1.7A1.7,1.7,0,0,1,13.19,78.38ZM9.24,74.54H9.19l0,0ZM8.67,77a3.34,3.34,0,0,1,2.62,3.76A4.52,4.52,0,0,1,8.67,77Zm6.42,3.76A3.34,3.34,0,0,1,17.71,77,4.54,4.54,0,0,1,15.09,80.8Z"/><path class="cls-4" d="M155.73,117.59h0l-48.84,0a4.83,4.83,0,0,1-4.83-4.82V53a.75.75,0,0,1,1.5,0v59.74a3.33,3.33,0,0,0,3.33,3.32l48.84,0h0a3.33,3.33,0,0,0,3.33-3.33V53a.75.75,0,0,1,1.5,0v59.77a4.83,4.83,0,0,1-4.83,4.83Z"/><path class="cls-5" d="M108.4,45.08h45.81a5.59,5.59,0,0,1,5.59,5.59v4.15a0,0,0,0,1,0,0h-57a0,0,0,0,1,0,0V50.67A5.59,5.59,0,0,1,108.4,45.08Z"/><path class="cls-4" d="M160.56,55.57h-58.5v-4.9a6.35,6.35,0,0,1,6.34-6.34h45.82a6.35,6.35,0,0,1,6.34,6.34Zm-57-1.5h55.5v-3.4a4.84,4.84,0,0,0-4.84-4.84H108.4a4.84,4.84,0,0,0-4.84,4.84Z"/><circle class="cls-9" cx="109.62" cy="50.19" r="1.28"/><circle class="cls-9" cx="114.1" cy="50.19" r="1.28"/><circle class="cls-9" cx="118.5" cy="50.19" r="1.28"/><rect class="cls-10" x="110.75" y="63.76" width="41.12" height="18.31"/><path class="cls-11" d="M118.3,79.13a.74.74,0,0,1-.53-.22.75.75,0,0,1,0-1.06L128.1,67.53a.74.74,0,0,1,1.06,0l7,7,7.61-7.62a.77.77,0,0,1,1.07,0,.75.75,0,0,1,0,1.06l-8.15,8.15a.77.77,0,0,1-1.06,0l-7-7-9.8,9.79A.73.73,0,0,1,118.3,79.13Z"/><circle class="cls-4" cx="128.54" cy="68.48" r="1.53"/><circle class="cls-4" cx="118.3" cy="78.38" r="1.53"/><circle class="cls-4" cx="144.32" cy="67.45" r="1.53"/><circle class="cls-4" cx="136.32" cy="75.42" r="1.53"/><path class="cls-5" d="M152.62,108.29H110V89.67h42.62Zm-41.12-1.5h39.62V91.17H111.5Z"/><rect class="cls-5" x="110.75" y="95.43" width="41.12" height="1.5"/><rect class="cls-5" x="110.75" y="101.03" width="41.12" height="1.5"/><rect class="cls-5" x="117.74" y="96.18" width="1.5" height="11.36"/><rect class="cls-5" x="126.29" y="96.18" width="1.5" height="11.36"/><rect class="cls-5" x="134.84" y="96.18" width="1.5" height="11.36"/><rect class="cls-5" x="143.39" y="96.18" width="1.5" height="11.36"/><rect class="cls-12" x="147.59" y="64.33" width="3.72" height="17.15"/><path class="cls-13" d="M151.87,82.82H110.75a.75.75,0,0,1-.75-.75V63.76a.76.76,0,0,1,.75-.75h41.12a.75.75,0,0,1,.75.75V82.07A.74.74,0,0,1,151.87,82.82Zm-40.37-1.5h39.62V64.51H111.5Z"/></g></g></g></g></svg>