<svg xmlns="http://www.w3.org/2000/svg" viewBox="0 0 165 165"><defs><style>.cls-1{fill:none;}.cls-2{fill:#ffc20e;}.cls-3,.cls-4{fill:#abadac;}.cls-3{opacity:0.15;}.cls-5{fill:#2f2f2f;}.cls-6{fill:#efefef;}.cls-7{fill:#fff3cf;}</style></defs><title>industry-sectors-165px-wide</title><g id="Layer_2" data-name="Layer 2"><g id="artwork"><rect class="cls-1" width="165" height="165"/><g id="Industry_Sectors_white_bg" data-name="Industry Sectors white bg"><g id="Healthcare"><path class="cls-2" d="M127.1,135.39H113.33A1.43,1.43,0,0,1,111.9,134v-9.4h-9.4a1.43,1.43,0,0,1-1.43-1.42V109.36a1.43,1.43,0,0,1,1.43-1.42h9.4V98.53a1.43,1.43,0,0,1,1.43-1.42H127.1a1.43,1.43,0,0,1,1.43,1.42v9.41h9.4a1.43,1.43,0,0,1,1.42,1.42v13.78a1.43,1.43,0,0,1-1.42,1.42h-9.4V134A1.43,1.43,0,0,1,127.1,135.39Zm-13.7-1.5H127V123.06h10.82V109.44H127V98.61H113.4v10.83H102.57v13.62H113.4Z"/><rect class="cls-3" x="113.29" y="129.58" width="13.81" height="4.39"/><rect class="cls-3" x="127.1" y="118.76" width="10.76" height="4.39"/></g><g id="ISPs"><path class="cls-2" d="M50.87,35.51a.74.74,0,0,1-.53-.22,7.74,7.74,0,0,0-10.93,0,.75.75,0,1,1-1.06-1.06,9.23,9.23,0,0,1,13,0,.75.75,0,0,1,0,1.06A.74.74,0,0,1,50.87,35.51Z"/><path class="cls-2" d="M56.81,29.56a.74.74,0,0,1-.53-.22,16.14,16.14,0,0,0-22.81,0,.75.75,0,0,1-1.07-1.06,17.65,17.65,0,0,1,24.94,0,.74.74,0,0,1,0,1.06A.71.71,0,0,1,56.81,29.56Z"/><path class="cls-2" d="M53.91,32.47a.79.79,0,0,1-.53-.22,12,12,0,0,0-17,0,.75.75,0,0,1-1.06,0,.74.74,0,0,1,0-1.06,13.51,13.51,0,0,1,19.13,0,.74.74,0,0,1,0,1.06A.77.77,0,0,1,53.91,32.47Z"/><g id="Mobile"><g id="mobile-2" data-name="mobile"><rect class="cls-2" x="31.85" y="44.5" width="1.36" height="4.98"/><rect class="cls-2" x="31.85" y="51.24" width="1.36" height="4.98"/><rect class="cls-3" x="49" y="44.77" width="3.18" height="19.95"/><path class="cls-4" d="M52.78,71.32a.38.38,0,0,1-.37-.38V68a.38.38,0,1,1,.75,0v2.94A.38.38,0,0,1,52.78,71.32Z"/><path class="cls-5" d="M53.31,65.55H36.86a.75.75,0,0,1,0-1.5h15V45.51H37.61V61.6a.75.75,0,1,1-1.5,0V44.93A.92.92,0,0,1,37,44H52.39a.92.92,0,0,1,.92.92Z"/><path class="cls-5" d="M53.43,40.37a1.77,1.77,0,0,1,1.77,1.77V71.86a1.78,1.78,0,0,1-1.77,1.78H36a1.78,1.78,0,0,1-1.77-1.78V42.14A1.77,1.77,0,0,1,36,40.37H53.43m0-1.5H36a3.26,3.26,0,0,0-3.27,3.27V71.86A3.27,3.27,0,0,0,36,75.14H53.43a3.28,3.28,0,0,0,3.27-3.28V42.14a3.27,3.27,0,0,0-3.27-3.27Z"/><circle class="cls-6" cx="44.71" cy="69.68" r="1.74"/><path class="cls-5" d="M44.71,72.16a2.49,2.49,0,1,1,2.49-2.48A2.49,2.49,0,0,1,44.71,72.16Zm0-3.47a1,1,0,1,0,1,1A1,1,0,0,0,44.71,68.69Z"/></g></g><path class="cls-5" d="M46.65,42.8h-4a.5.5,0,0,1-.5-.5.5.5,0,0,1,.5-.5h4a.5.5,0,0,1,.5.5A.5.5,0,0,1,46.65,42.8Z"/></g><g id="Financial"><path class="cls-5" d="M144.91,42.25H97.13v-1h1.28L98,40.57l22.26-15.31Zm-46.18-1h43L120.21,26.47Z"/><path class="cls-5" d="M143.3,42.5a.73.73,0,0,1-.42-.14L120.21,26.77,97.55,42.36a.75.75,0,1,1-.85-1.23l23.09-15.89a.77.77,0,0,1,.85,0l23.09,15.89a.75.75,0,0,1,.19,1A.76.76,0,0,1,143.3,42.5Z"/><path class="cls-5" d="M101.76,68.71H94.7V44.88h7.06Zm-5.56-1.5h4.06V46.38H96.2Z"/><path class="cls-5" d="M113.87,68.71h-7.06V44.88h7.06Zm-5.56-1.5h4.06V46.38h-4.06Z"/><path class="cls-5" d="M134,68.71h-7V44.88h7Zm-5.55-1.5h4V46.38h-4Z"/><path class="cls-5" d="M146.12,68.71h-7.06V44.88h7.06Zm-5.56-1.5h4.06V46.38h-4.06Z"/><path class="cls-5" d="M148.79,46.38H91.64a.75.75,0,0,1,0-1.5h57.15a.75.75,0,0,1,0,1.5Z"/><path class="cls-5" d="M148.79,72.39H91.64a.75.75,0,0,1,0-1.5h57.15a.75.75,0,0,1,0,1.5Z"/><path class="cls-5" d="M102.58,68.79H93.89a.75.75,0,0,1,0-1.5h8.69a.75.75,0,0,1,0,1.5Z"/><path class="cls-5" d="M114.68,68.79H106a.75.75,0,0,1,0-1.5h8.69a.75.75,0,0,1,0,1.5Z"/><path class="cls-5" d="M134.83,68.79h-8.69a.75.75,0,0,1,0-1.5h8.69a.75.75,0,0,1,0,1.5Z"/><path class="cls-5" d="M146.94,68.79h-8.69a.75.75,0,0,1,0-1.5h8.69a.75.75,0,0,1,0,1.5Z"/><path class="cls-2" d="M120.42,58.39a3.27,3.27,0,1,1,3.27-3.26.75.75,0,0,1-1.5,0,1.77,1.77,0,1,0-1.77,1.76.75.75,0,0,1,0,1.5Z"/><path class="cls-2" d="M120.4,63.43a3.28,3.28,0,0,1-3.27-3.27.75.75,0,0,1,1.5,0,1.77,1.77,0,1,0,1.77-1.77.75.75,0,0,1,0-1.5,3.27,3.27,0,0,1,0,6.54Z"/><path class="cls-2" d="M120.42,53.36a.75.75,0,0,1-.75-.75v-2a.75.75,0,1,1,1.5,0v2A.74.74,0,0,1,120.42,53.36Z"/><path class="cls-2" d="M120.4,65.67a.75.75,0,0,1-.75-.75V62.68a.75.75,0,0,1,1.5,0v2.24A.75.75,0,0,1,120.4,65.67Z"/><path class="cls-4" d="M110.34,65.49a.38.38,0,0,1-.38-.38V50a.37.37,0,0,1,.38-.37.36.36,0,0,1,.37.37V65.11A.37.37,0,0,1,110.34,65.49Z"/><path class="cls-4" d="M142.59,65.49a.38.38,0,0,1-.37-.38V50a.38.38,0,0,1,.75,0V65.11A.38.38,0,0,1,142.59,65.49Z"/><path class="cls-4" d="M130.49,65.49a.38.38,0,0,1-.38-.38V50a.38.38,0,0,1,.75,0V65.11A.38.38,0,0,1,130.49,65.49Z"/><path class="cls-4" d="M98.23,65.49a.38.38,0,0,1-.37-.38V50a.38.38,0,0,1,.75,0V65.11A.38.38,0,0,1,98.23,65.49Z"/><path class="cls-4" d="M137.41,42.12a.35.35,0,0,1-.21-.07l-17-11.68-17,11.68a.37.37,0,1,1-.43-.61L120,29.6a.42.42,0,0,1,.43,0l17.2,11.84a.37.37,0,0,1,.09.52A.38.38,0,0,1,137.41,42.12Z"/><path class="cls-5" d="M148.79,42.78H91.64a.75.75,0,0,1,0-1.5h57.15a.75.75,0,0,1,0,1.5Z"/></g><g id="Education"><polygon class="cls-3" points="59.98 128.25 52.21 131.65 52.21 121.63 60.12 118.09 59.98 128.25"/><polygon class="cls-6" points="44.33 121.57 44.33 125.15 73.14 112.26 73.14 108.91 44.33 121.57"/><path class="cls-5" d="M44.33,125.33a.76.76,0,0,1-.75-.75v-3a.75.75,0,0,1,1.5,0v3A.75.75,0,0,1,44.33,125.33Z"/><path class="cls-5" d="M44.33,122.32a.82.82,0,0,1-.3-.07L15.22,109.59a.74.74,0,0,1,0-1.38L44.05,96.7a.77.77,0,0,1,.56,0l28.81,11.51a.74.74,0,0,1,.47.68.75.75,0,0,1-.45.7L44.63,122.25A.78.78,0,0,1,44.33,122.32ZM17.46,108.94l26.87,11.81L71.2,108.94,44.33,98.2Z"/><path class="cls-5" d="M44.33,125.73a.7.7,0,0,1-.31-.07l-28.8-12.94a.76.76,0,0,1-.45-.69v-3.12a.75.75,0,0,1,1.5,0v2.64l28.06,12.61,28.06-12.33v-2.92a.75.75,0,0,1,1.5,0v3.41a.73.73,0,0,1-.45.68L44.63,125.66A.63.63,0,0,1,44.33,125.73Z"/><path class="cls-2" d="M44.71,108.39c-1.87,0-3.28-.71-3.28-1.66v-1.39a.38.38,0,1,1,.75,0v1.39c0,.37,1,.91,2.53.91s2.53-.54,2.53-.91v-1.39a.38.38,0,0,1,.38-.38.37.37,0,0,1,.37.38v1.39C48,107.68,46.58,108.39,44.71,108.39Z"/><path class="cls-2" d="M65.07,129.27a.38.38,0,0,1-.38-.37V113.72c-6.52-2.54-16.21-6.25-17-6.42a.35.35,0,0,1-.34-.19.37.37,0,0,1,.14-.51c.21-.12.4-.25,17.76,6.52a.35.35,0,0,1,.24.34V128.9A.38.38,0,0,1,65.07,129.27Z"/><path class="cls-2" d="M67.29,127.22a2.23,2.23,0,0,0-4.46,0v1.48h4.46Z"/><path class="cls-2" d="M65.07,135.48a.38.38,0,0,1-.38-.38v-7.35a.38.38,0,1,1,.75,0v7.35A.38.38,0,0,1,65.07,135.48Z"/><path class="cls-2" d="M63.13,134.56a.37.37,0,0,1-.38-.37v-6.44a.38.38,0,1,1,.75,0v6.44A.37.37,0,0,1,63.13,134.56Z"/><path class="cls-2" d="M67,134.56a.37.37,0,0,1-.37-.37v-6.44a.38.38,0,1,1,.75,0v6.44A.37.37,0,0,1,67,134.56Z"/><path class="cls-5" d="M44.33,135.86a.8.8,0,0,1-.3-.06l-14.12-6.21a3.38,3.38,0,0,1-2-3l-.1-4.44a.76.76,0,0,1,.74-.76h0a.74.74,0,0,1,.75.73l.1,4.44a1.89,1.89,0,0,0,1.12,1.67l13.82,6.07,13.8-6.06a1.89,1.89,0,0,0,1.12-1.7l.12-8.13a.75.75,0,0,1,.75-.74h0a.76.76,0,0,1,.74.76l-.12,8.13a3.39,3.39,0,0,1-2,3l-14.1,6.2A.77.77,0,0,1,44.33,135.86Z"/><path class="cls-5" d="M44.33,135.81a.75.75,0,0,1-.75-.75v-4a.75.75,0,0,1,1.5,0v4A.74.74,0,0,1,44.33,135.81Z"/><path class="cls-4" d="M32.16,113.17a.4.4,0,0,1-.15,0l-8.85-3.89a.37.37,0,0,1-.2-.49.39.39,0,0,1,.5-.2l8.85,3.89a.39.39,0,0,1,.19.5A.37.37,0,0,1,32.16,113.17Z"/><path class="cls-4" d="M36.55,115.1a.4.4,0,0,1-.15,0l-2.74-1.21a.37.37,0,1,1,.3-.68l2.74,1.2a.39.39,0,0,1,.19.5A.37.37,0,0,1,36.55,115.1Z"/><ellipse class="cls-7" cx="44.71" cy="105.34" rx="2.91" ry="1.28"/><path class="cls-2" d="M44.71,107c-1.87,0-3.28-.72-3.28-1.66s1.41-1.66,3.28-1.66,3.28.71,3.28,1.66S46.58,107,44.71,107Zm0-2.57c-1.54,0-2.53.53-2.53.91s1,.91,2.53.91,2.53-.54,2.53-.91S46.23,104.43,44.71,104.43Z"/></g><path class="cls-4" d="M82.73,79.07a.38.38,0,0,1-.38-.37V18.81a.38.38,0,0,1,.75,0V78.7A.38.38,0,0,1,82.73,79.07Z"/><path class="cls-4" d="M82.73,146a.38.38,0,0,1-.38-.37V85.77a.38.38,0,0,1,.75,0v59.89A.38.38,0,0,1,82.73,146Z"/><path class="cls-4" d="M82.57,82.69h-76a.38.38,0,0,1-.37-.38.37.37,0,0,1,.37-.37h76a.37.37,0,0,1,.38.37A.38.38,0,0,1,82.57,82.69Z"/><path class="cls-4" d="M158.46,82.69h-76a.38.38,0,0,1-.38-.38.37.37,0,0,1,.38-.37h76a.37.37,0,0,1,.37.37A.38.38,0,0,1,158.46,82.69Z"/></g></g></g></svg>