<svg xmlns="http://www.w3.org/2000/svg" viewBox="0 0 165 165"><defs><style>.cls-1{fill:none;}.cls-2{fill:#fff;}.cls-2,.cls-7{opacity:0.15;}.cls-3{fill:#2f2f2f;}.cls-13,.cls-4{fill:#efefef;}.cls-5,.cls-7,.cls-9{fill:#acadac;}.cls-6{fill:#fafafa;}.cls-8{fill:#dedede;}.cls-14,.cls-9{opacity:0.2;}.cls-10{fill:#ffc20e;}.cls-11{fill:#e2af24;}.cls-12{fill:#fff3cf;}.cls-13{opacity:0.66;}</style></defs><title>investigation-support-165px-wide</title><g id="Layer_2" data-name="Layer 2"><g id="artwork"><rect class="cls-1" width="165" height="165"/><g id="investigation_support_white_bg" data-name="investigation support white bg"><polygon class="cls-2" points="65.48 61.69 75.27 66.73 61.29 66.55 65.48 61.69"/><polygon class="cls-2" points="122.39 39.32 113.02 66.73 130.31 66.55 122.39 39.32"/><polygon class="cls-2" points="38.23 50.11 41.69 66.55 36.84 66.55 38.23 50.11"/><path class="cls-3" d="M26,107.09a.5.5,0,0,1-.43-.25l-19-32.48a.51.51,0,0,1,.18-.69.5.5,0,0,1,.68.18L26.19,106,30,104.21a.52.52,0,0,1,.67.25.5.5,0,0,1-.25.66l-4.24,1.93A.52.52,0,0,1,26,107.09Z"/><polygon class="cls-4" points="121.8 40.09 100.03 66.3 113.02 66.73 121.8 40.09"/><polygon class="cls-4" points="71.38 46.28 85.79 66.42 92.96 66.73 93.41 60.12 93.83 56.23 71.38 46.28"/><polygon class="cls-4" points="6.94 74.11 38.23 48.55 36.84 66.55 30.97 67.12 30.23 75.05 6.94 74.11"/><path class="cls-3" d="M6.94,74.6a.51.51,0,0,1-.39-.18.5.5,0,0,1,.07-.7L37.91,48.16a.49.49,0,0,1,.7.07.49.49,0,0,1-.07.7L7.26,74.49A.5.5,0,0,1,6.94,74.6Z"/><path class="cls-3" d="M75.27,67.23a.46.46,0,0,1-.23,0l-9.43-4.86-3.94,4.56a.49.49,0,0,1-.7.05.52.52,0,0,1-.06-.71l4.2-4.86a.49.49,0,0,1,.6-.11l9.78,5a.49.49,0,0,1,.22.67A.48.48,0,0,1,75.27,67.23Z"/><path class="cls-3" d="M100,66.8a.52.52,0,0,1-.32-.11.5.5,0,0,1-.07-.71l22.47-27.26a.5.5,0,0,1,.87.18l7.51,27a.49.49,0,0,1-.34.61.5.5,0,0,1-.62-.34l-7.26-26L100.42,66.62A.49.49,0,0,1,100,66.8Z"/><path class="cls-3" d="M85.79,66.92a.49.49,0,0,1-.41-.21L71.53,47.08a.51.51,0,0,1,0-.61.49.49,0,0,1,.58-.14L93.8,55.66l28.45-17a.48.48,0,0,1,.57,0,.5.5,0,0,1,.16.55l-9.25,27.12a.5.5,0,1,1-1-.32l8.81-25.84L94.09,56.65a.47.47,0,0,1-.46,0L73.37,48,86.2,66.13a.51.51,0,0,1-.12.7A.52.52,0,0,1,85.79,66.92Z"/><path class="cls-3" d="M41.69,67.05a.51.51,0,0,1-.49-.41l-3.46-18a.48.48,0,0,1,.18-.49.47.47,0,0,1,.52,0L65.7,61.24a.5.5,0,1,1-.43.9L38.91,49.43l3.27,17a.49.49,0,0,1-.39.59Z"/><path class="cls-3" d="M30.23,86.4a.49.49,0,0,1-.23-.06L6.71,74.55a.5.5,0,1,1,.46-.89L30.46,85.45a.5.5,0,0,1-.23,1Z"/><path class="cls-3" d="M36.84,67.05h0a.5.5,0,0,1-.46-.54l1.39-18a.51.51,0,0,1,.53-.46.49.49,0,0,1,.46.53l-1.38,18A.5.5,0,0,1,36.84,67.05Z"/><path class="cls-3" d="M30.23,75.55h0l-23.29-1a.5.5,0,1,1,0-1l23.29.94a.5.5,0,0,1,0,1Z"/><path class="cls-3" d="M65.49,62.19a.45.45,0,0,1-.2,0,.5.5,0,0,1-.26-.66l6.45-14.9a.5.5,0,1,1,.91.4l-6.45,14.9A.49.49,0,0,1,65.49,62.19Z"/><path class="cls-3" d="M93,67.23h0a.5.5,0,0,1-.46-.54l.87-10.51a.53.53,0,0,1,.54-.45.5.5,0,0,1,.46.54l-.87,10.51A.49.49,0,0,1,93,67.23Z"/><path class="cls-3" d="M158.06,83a.45.45,0,0,1-.16,0L134,74.7a.5.5,0,0,1-.31-.63.51.51,0,0,1,.64-.31l23,8L149.5,56.34,134.25,68.27a.5.5,0,0,1-.7-.09.49.49,0,0,1,.08-.7l15.83-12.37a.48.48,0,0,1,.45-.08.5.5,0,0,1,.33.33l8.3,27a.53.53,0,0,1-.13.51A.52.52,0,0,1,158.06,83Z"/><path class="cls-3" d="M127.6,120.06V73.22H37v46.84h-1.5V73a1.23,1.23,0,0,1,1.23-1.23h91.1A1.23,1.23,0,0,1,129.1,73v47.11Z"/><path class="cls-3" d="M135,120.7h-1.5V68.75a1.45,1.45,0,0,0-1.46-1.45H32.58a1.46,1.46,0,0,0-1.46,1.45v51.53h-1.5V68.75a3,3,0,0,1,3-3h99.48a3,3,0,0,1,3,3Z"/><path class="cls-5" d="M33.34,96.73a.37.37,0,0,1-.37-.38V79.86a.36.36,0,0,1,.37-.37.37.37,0,0,1,.38.37V96.35A.38.38,0,0,1,33.34,96.73Z"/><path class="cls-5" d="M33.34,109a.37.37,0,0,1-.37-.37v-8.26a.36.36,0,0,1,.37-.37.37.37,0,0,1,.38.37v8.26A.38.38,0,0,1,33.34,109Z"/><path class="cls-6" d="M135.12,127H29.51c-2.88,0-5.22-3.43-5.22-6.32h0l116.07-.15C140.36,123.42,138,127,135.12,127Z"/><path class="cls-3" d="M135.12,127.75H29.51c-3.36,0-6-3.8-6-7.07v-.75l117.57-.15v.75C141.11,123.8,138.44,127.75,135.12,127.75Zm-110-6.32c.35,2.33,2.24,4.82,4.41,4.82H135.12c2.15,0,4.07-2.61,4.43-5Z"/><path class="cls-7" d="M72.27,120.72H92.39a0,0,0,0,1,0,0v0A2.44,2.44,0,0,1,90,123.18H74.71a2.44,2.44,0,0,1-2.44-2.44v0a0,0,0,0,1,0,0Z"/><path class="cls-8" d="M72.26,120.72H92.39a0,0,0,0,1,0,0v0a2.44,2.44,0,0,1-2.44,2.44H74.7a2.44,2.44,0,0,1-2.44-2.44v0A0,0,0,0,1,72.26,120.72Z"/><path class="cls-3" d="M89.94,123.68H74.7a3,3,0,0,1-2.94-3v-.5H92.89v.5A3,3,0,0,1,89.94,123.68Zm-17.12-2.46a2,2,0,0,0,1.88,1.46H89.94a2,2,0,0,0,1.89-1.46Z"/><rect class="cls-9" x="123.89" y="73.04" width="3.81" height="46.95"/><circle class="cls-10" cx="128.45" cy="96.51" r="16.11"/><path class="cls-11" d="M128.45,113.11a16.6,16.6,0,1,1,11.74-28.34h0a16.6,16.6,0,0,1-11.74,28.34Zm0-32.2a15.6,15.6,0,1,0,11,4.56A15.56,15.56,0,0,0,128.45,80.91Z"/><line class="cls-3" x1="139.43" y1="107.58" x2="143.69" y2="111.83"/><rect class="cls-10" x="140.81" y="106.7" width="1.5" height="6.02" transform="translate(-36.11 132.23) rotate(-45)"/><path class="cls-10" d="M155,127a3.83,3.83,0,0,1-2.72-1.13L140.2,113.81l5.47-5.46,12.09,12.09a3.86,3.86,0,0,1,0,5.43l0,0A3.85,3.85,0,0,1,155,127Zm-12.69-13.22,11,11a2.39,2.39,0,0,0,3.31,0l0,0a2.35,2.35,0,0,0,0-3.31l-11-11Z"/><line class="cls-3" x1="152.38" y1="124.89" x2="156.63" y2="120.65"/><rect class="cls-10" x="151.5" y="122.02" width="6" height="1.5" transform="translate(-41.56 145.21) rotate(-45)"/><line class="cls-3" x1="152.52" y1="120.61" x2="146.13" y2="114.22"/><rect class="cls-10" x="148.83" y="112.9" width="1" height="9.03" transform="translate(-39.29 139.99) rotate(-45)"/><circle class="cls-6" cx="128.45" cy="96.51" r="13.14"/><path class="cls-12" d="M128.45,84.87a11.65,11.65,0,1,1-8.23,3.41,11.56,11.56,0,0,1,8.23-3.41m0-1.5a13.15,13.15,0,1,0,9.29,3.85,13.07,13.07,0,0,0-9.29-3.85Z"/><path class="cls-3" d="M85.94,70.05H82.33a.51.51,0,0,1-.5-.5.5.5,0,0,1,.5-.5h3.61a.5.5,0,0,1,.5.5A.5.5,0,0,1,85.94,70.05Z"/><circle class="cls-3" cx="79.62" cy="69.55" r="0.9"/><circle class="cls-10" cx="6.94" cy="74.1" r="2.07"/><circle class="cls-10" cx="38.23" cy="48.55" r="2.07"/><circle class="cls-10" cx="71.84" cy="46.98" r="2.07"/><circle class="cls-10" cx="65.49" cy="61.69" r="2.07"/><circle class="cls-10" cx="93.83" cy="56.23" r="2.07"/><circle class="cls-10" cx="122.38" cy="39.32" r="2.07"/><circle class="cls-10" cx="149.66" cy="55.57" r="2.07"/><circle class="cls-10" cx="158.06" cy="82.51" r="2.07"/><circle class="cls-10" cx="25.92" cy="106.66" r="2.07"/><path class="cls-13" d="M120.33,87.88a11.85,11.85,0,1,1,16.77,16.76"/><g class="cls-14"><path class="cls-5" d="M60.34,112.34,80.39,82a2.33,2.33,0,0,1,3.88,0l20,30.37a2.33,2.33,0,0,1-1.94,3.61H62.28A2.33,2.33,0,0,1,60.34,112.34Z"/></g><path class="cls-4" d="M61.27,109.09,80.46,80a2.21,2.21,0,0,1,3.71,0l19.19,29.06a2.23,2.23,0,0,1-1.86,3.45H63.13A2.22,2.22,0,0,1,61.27,109.09Z"/><path class="cls-3" d="M101.5,113.29H63.13a3,3,0,0,1-2.49-4.61L79.83,79.61a3,3,0,0,1,5,0L104,108.68a3,3,0,0,1-2.48,4.61ZM82.31,79.78a1.46,1.46,0,0,0-1.23.66L61.9,109.5a1.47,1.47,0,0,0,1.23,2.29H101.5a1.47,1.47,0,0,0,1.23-2.29L83.55,80.44A1.46,1.46,0,0,0,82.31,79.78Z"/><path class="cls-3" d="M82.31,101.44a.76.76,0,0,1-.75-.75V89.52a.75.75,0,1,1,1.5,0v11.17A.75.75,0,0,1,82.31,101.44Z"/><path class="cls-3" d="M82.31,107.18a.75.75,0,0,1-.75-.75v-1.28a.75.75,0,0,1,1.5,0v1.28A.74.74,0,0,1,82.31,107.18Z"/></g></g></g></svg>