<?xml version="1.0" encoding="utf-8"?>
<!-- Generator: Adobe Illustrator 23.0.2, SVG Export Plug-In . SVG Version: 6.00 Build 0)  -->
<svg version="1.1" id="Layer_1" xmlns="http://www.w3.org/2000/svg" xmlns:xlink="http://www.w3.org/1999/xlink" x="0px" y="0px"
	 viewBox="0 0 250 153.8" style="enable-background:new 0 0 250 153.8;" xml:space="preserve">
<style type="text/css">
	.st0{opacity:0.15;fill:#FFFFFF;}
	.st1{fill:none;stroke:#2F2F2F;stroke-linecap:round;stroke-linejoin:round;stroke-miterlimit:10;}
	.st2{fill:#EFEFEF;}
	.st3{fill:none;stroke:#ACADAC;stroke-miterlimit:10;}
	.st4{fill:#2F2F2F;}
	.st5{fill:none;stroke:#2F2F2F;stroke-width:1.5;stroke-miterlimit:10;}
	.st6{fill:none;stroke:#ACADAC;stroke-width:0.75;stroke-linecap:round;stroke-linejoin:round;stroke-miterlimit:10;}
	.st7{fill:#FAFAFA;stroke:#2F2F2F;stroke-width:1.5;stroke-miterlimit:10;}
	.st8{opacity:0.15;fill:#ACADAC;}
	.st9{fill:#DEDEDE;stroke:#2F2F2F;stroke-miterlimit:10;}
	.st10{opacity:0.2;fill:#ACADAC;}
	.st11{fill:#FFC20E;stroke:#E2AF24;stroke-miterlimit:10;}
	.st12{fill:#2F2F2F;stroke:#FFC20E;stroke-width:1.5;stroke-miterlimit:10;}
	.st13{fill:none;stroke:#FFC20E;stroke-width:1.5;stroke-miterlimit:10;}
	.st14{fill:#2F2F2F;stroke:#FFC20E;stroke-miterlimit:10;}
	.st15{fill:#FAFAFA;}
	.st16{fill:#FFF3CF;}
	.st17{fill:#FFC20E;}
	.st18{opacity:0.66;fill:#EFEFEF;}
	.st19{opacity:0.2;}
	.st20{fill:#ACADAC;}
	.st21{fill:#EFEFEF;stroke:#2F2F2F;stroke-width:1.5;stroke-miterlimit:10;}
	.st22{fill:none;stroke:#2F2F2F;stroke-width:1.5;stroke-linecap:round;stroke-linejoin:round;stroke-miterlimit:10;}
</style>
<title>investigation-support-CTA</title>
<g id="investigation_support_white_bg_1_">
	<polygon class="st0" points="97.9,40.4 113.4,48.4 91.2,48.1 	"/>
	<polygon class="st0" points="188.4,4.8 173.5,48.4 201,48.1 	"/>
	<polygon class="st0" points="54.5,22 60.1,48.1 52.3,48.1 	"/>
	<polyline class="st1" points="4.8,60.1 35.1,111.8 41.8,108.7 	"/>
	<polygon class="st2" points="187.4,6 152.8,47.7 173.5,48.4 	"/>
	<polygon class="st2" points="107.3,15.9 130.2,47.9 141.6,48.4 142.3,37.9 143,31.7 	"/>
	<polygon class="st2" points="4.8,60.1 54.5,19.5 52.3,48.1 43,49 41.8,61.6 	"/>
	<line class="st1" x1="4.8" y1="60.1" x2="54.5" y2="19.5"/>
	<polyline class="st1" points="113.4,48.4 97.9,40.4 91.2,48.1 	"/>
	<polyline class="st1" points="200.5,47.2 188.6,4.3 152.8,47.7 	"/>
	<polyline class="st1" points="130.2,47.9 108.1,16.7 143,31.7 188.6,4.3 173.9,47.5 	"/>
	<polyline class="st1" points="60.1,48.1 54.5,19.5 97.9,40.4 	"/>
	<line class="st1" x1="4.8" y1="60.1" x2="41.8" y2="78.9"/>
	<line class="st1" x1="52.3" y1="48.1" x2="54.5" y2="19.5"/>
	<line class="st1" x1="4.8" y1="60.1" x2="41.8" y2="61.6"/>
	<line class="st1" x1="97.9" y1="40.4" x2="108.1" y2="16.7"/>
	<line class="st1" x1="143" y1="31.7" x2="141.6" y2="48.4"/>
	<polyline class="st1" points="206.7,50.2 231.9,30.5 245.1,73.5 207,60.3 	"/>
	<path class="st3" d="M59.1,73.8"/>
	<path class="st4" d="M235.4,72.2"/>
	<path class="st5" d="M51.5,133.2V58.3c0-0.4,0.3-0.8,0.8-0.8h144.9c0.4,0,0.8,0.3,0.8,0.8l0,74.9"/>
	<path class="st3" d="M59.3,73.8"/>
	<path class="st5" d="M207.3,134.2V51.6c0-1.9-1.6-3.5-3.5-3.5H50.2h-4.6c-1.9,0-3.5,1.6-3.5,3.5v4v78"/>
	<line class="st6" x1="46.8" y1="69.3" x2="46.8" y2="95.5"/>
	<line class="st6" x1="46.8" y1="101.9" x2="46.8" y2="115"/>
	<path class="st7" d="M208.6,144.2H40.7c-4.6,0-8.3-5.5-8.3-10.1l0,0l184.6-0.2C216.9,138.5,213.2,144.2,208.6,144.2z"/>
	<path class="st8" d="M138.3,138.1h-27.2c-1.3,0-2.4-1.1-2.4-2.4v-1.5h32v1.5C140.7,137.1,139.6,138.1,138.3,138.1z"/>
	<path class="st9" d="M138.3,138.1h-27.2c-1.3,0-2.4-1.1-2.4-2.4v-1.5h32v1.5C140.7,137.1,139.6,138.1,138.3,138.1z"/>
	<rect x="190.8" y="58.4" class="st10" width="6.1" height="74.7"/>
	<g>
		<circle class="st11" cx="198" cy="95.7" r="25.6"/>
		<line class="st12" x1="215.5" y1="113.3" x2="222.2" y2="120.1"/>
		<path class="st13" d="M245.1,140.3l-2.7,2.7c-1.2,1.2-3.1,1.2-4.3,0l-19.7-19.7l7-7l19.7,19.7
			C246.3,137.1,246.3,139.1,245.1,140.3z"/>
		<line class="st12" x1="236.1" y1="140.9" x2="242.8" y2="134.1"/>
		<line class="st14" x1="236.3" y1="134.1" x2="226.1" y2="123.9"/>
		<circle class="st15" cx="198" cy="95.7" r="20.9"/>
	</g>
	<g>
		<path class="st16" d="M198,76.3c5.2,0,10.1,2,13.7,5.7c7.6,7.6,7.6,19.9,0,27.4c-3.7,3.7-8.5,5.7-13.7,5.7c-5.2,0-10.1-2-13.7-5.7
			c-3.7-3.7-5.7-8.5-5.7-13.7s2-10.1,5.7-13.7S192.8,76.3,198,76.3 M198,74.8c-5.3,0-10.7,2-14.8,6.1c-8.2,8.2-8.2,21.4,0,29.6
			c4.1,4.1,9.4,6.1,14.8,6.1s10.7-2,14.8-6.1c8.2-8.2,8.2-21.4,0-29.6C208.7,76.9,203.4,74.8,198,74.8L198,74.8z"/>
	</g>
	<g>
		<line class="st1" x1="124.7" y1="52.9" x2="130.4" y2="52.9"/>
		<circle class="st4" cx="120.4" cy="52.9" r="1.4"/>
	</g>
	<circle class="st17" cx="4.8" cy="60.1" r="3.3"/>
	<circle class="st17" cx="54.5" cy="19.5" r="3.3"/>
	<circle class="st17" cx="108" cy="17" r="3.3"/>
	<circle class="st17" cx="97.9" cy="40.4" r="3.3"/>
	<circle class="st17" cx="143" cy="31.7" r="3.3"/>
	<circle class="st17" cx="188.4" cy="4.8" r="3.3"/>
	<circle class="st17" cx="231.7" cy="30.6" r="3.3"/>
	<circle class="st17" cx="245.1" cy="73.5" r="3.3"/>
	<circle class="st17" cx="35" cy="111.9" r="3.3"/>
	<path class="st18" d="M185.1,82c7.4-7.4,19.3-7.4,26.7,0c7.4,7.4,7.4,19.3,0,26.7"/>
	<g class="st19">
		<path class="st20" d="M89.7,120.9l31.9-48.3c1.5-2.2,4.7-2.2,6.2,0l31.9,48.3c1.6,2.5-0.1,5.7-3.1,5.7H92.8
			C89.8,126.7,88.1,123.4,89.7,120.9z"/>
	</g>
	<path class="st21" d="M91.2,115.7l30.5-46.2c1.4-2.1,4.5-2.1,5.9,0l30.5,46.2c1.6,2.4-0.1,5.5-3,5.5h-61
		C91.3,121.2,89.6,118.1,91.2,115.7z"/>
	<g>
		<line class="st22" x1="124.6" y1="84.6" x2="124.6" y2="102.4"/>
		<line class="st22" x1="124.6" y1="111.5" x2="124.6" y2="109.5"/>
	</g>
</g>
</svg>
