<?xml version="1.0" encoding="utf-8"?>
<!-- Generator: Adobe Illustrator 23.0.2, SVG Export Plug-In . SVG Version: 6.00 Build 0)  -->
<svg version="1.1" id="Layer_1" xmlns="http://www.w3.org/2000/svg" xmlns:xlink="http://www.w3.org/1999/xlink" x="0px" y="0px"
	 viewBox="0 0 250 186.8" style="enable-background:new 0 0 250 186.8;" xml:space="preserve">
<style type="text/css">
	.st0{fill:#EFEFEF;}
	.st1{fill:none;stroke:#2F2F2F;stroke-width:1.5;stroke-linecap:round;stroke-linejoin:round;stroke-miterlimit:10;}
	.st2{fill:none;stroke:#FFC20E;stroke-width:1.5;stroke-linecap:round;stroke-linejoin:round;stroke-miterlimit:10;}
	.st3{fill:none;stroke:#FFC20E;stroke-width:0.75;stroke-linecap:round;stroke-linejoin:round;stroke-miterlimit:10;}
	.st4{opacity:0.2;fill:#ACADAC;}
	.st5{fill:none;stroke:#2F2F2F;stroke-width:0.75;stroke-linecap:round;stroke-linejoin:round;stroke-miterlimit:10;}
	.st6{fill:#FFC20E;stroke:#2F2F2F;stroke-width:1.5;stroke-miterlimit:10;}
	.st7{fill:#FFC20E;}
</style>
<title>investigation-icon</title>
<g id="Investigation_3_">
	<path class="st0" d="M159.3,55l-29.6,11.2c0,0,7,1.9,7.7,2.2c0.3,0.2,2.2,1.3,4.4,2.6c4.4,2.6,8.7,5.6,12.8,8.7l0.8,0.6l8.4-25.3"
		/>
	<path class="st0" d="M48.6,83.4l-8.5,52L83.7,119l-0.3-1.2c-0.8-3.7-0.7-7.5,0.3-11.2v0L48.6,76.8"/>
	<polyline class="st1" points="86.5,117.9 39.2,136.4 49.3,76.8 83.7,108.6 	"/>
	<line class="st1" x1="92.5" y1="76.8" x2="49.3" y2="76.8"/>
	<polyline class="st1" points="129.7,64.3 125.8,14.9 101.7,70.4 	"/>
	<polyline class="st1" points="158.3,97.2 210.3,67.9 164.7,52.9 133.3,64.5 	"/>
	<polyline class="st1" points="125.8,14.9 164.7,52.9 155,83.2 	"/>
	<polyline class="st1" points="39,136.5 90.5,169.4 99.1,130 	"/>
	<line class="st2" x1="150.8" y1="131.1" x2="158.5" y2="139"/>
	<path class="st2" d="M196.8,171.5l-5.6,5.6c-1.6,1.6-4.2,1.6-5.8,0L153,144.5l11.3-11.3l32.5,32.5
		C198.4,167.3,198.4,169.9,196.8,171.5z"/>
	<line class="st2" x1="181.6" y1="173.1" x2="192.5" y2="162.1"/>
	<line class="st3" x1="174.7" y1="154.7" x2="164.1" y2="144.1"/>
	<line class="st3" x1="183.1" y1="163.2" x2="178.1" y2="158.2"/>
	<g>
		<path class="st4" d="M92.1,124.4c0.9-3.4,4.8-9.5,5.9-10.4c1-0.8,10.1-3.2,11.4-3.5c-5.2-5.9-5.5-14.7-5.5-14.7l7,1.4
			c0.3,5.3,2,14.7,10.5,15.1c8.6,0.3,8.8-9.2,8.8-9.2l1.6-5.8l7-1.4c0,0-0.3,9.1-5.6,15.1l0,0l10.5,2.5l3.3,2.8l2.6,6.7l1.5,5.9
			l-8,8.1c0,0-18.5,3.6-20,3.4c-1.5-0.2-21.2-4.4-21.2-4.4"/>
		<g>
			<path class="st1" d="M109.6,110.8l-7.7,1.5c-3.8,0.8-6.8,3.6-7.9,7.3l-2,7.1"/>
			<path class="st1" d="M133.2,110.8l7.7,1.5c3.8,0.8,6.8,3.6,7.9,7.3l2,7.1"/>
		</g>
		<path class="st1" d="M130.6,99.3c0,6.3-4.1,11.5-9.2,11.5s-9.2-5.1-9.2-11.5"/>
		<path class="st1" d="M104,95.5l9.1-11.6c4.3-5.5,12.1-5.5,16.4,0l9.1,11.6"/>
		<path class="st1" d="M135,96.6l-9.9,3.9c-2.3,0.8-4.9,0.8-7.2,0l-10.1-3.9"/>
		<path class="st1" d="M116.1,114.9c-7.1-2.6-12.1-10.7-12.1-19.2"/>
		<path class="st1" d="M126.7,114.9c7.1-2.6,12.1-10.7,12.1-19.2"/>
		<line class="st5" x1="121.4" y1="94.2" x2="121.4" y2="84.8"/>
		<line class="st5" x1="121.4" y1="136.4" x2="121.4" y2="123.6"/>
	</g>
	<circle class="st6" cx="90.4" cy="169.9" r="6"/>
	<circle class="st6" cx="40.1" cy="136.4" r="6"/>
	<circle class="st6" cx="50.5" cy="76.8" r="6"/>
	<circle class="st6" cx="125.8" cy="14.9" r="6"/>
	<circle class="st6" cx="163.8" cy="52.9" r="6"/>
	<circle class="st6" cx="210.3" cy="67.7" r="6"/>
	<path class="st7" d="M151.4,72.2c-16.4-16.4-43.2-16.4-59.6,0c-8,8-12.4,18.6-12.4,29.8s4.4,21.9,12.4,29.8
		c8.2,8.2,19,12.3,29.8,12.3c10.8,0,21.6-4.1,29.8-12.3C167.9,115.4,167.9,88.7,151.4,72.2z M155.5,102.1c0,9.1-3.5,17.6-9.9,24
		c-6.4,6.4-14.9,9.9-24,9.9s-17.6-3.5-24-9.9c-6.4-6.4-9.9-14.9-9.9-24c0-9.1,3.5-17.6,9.9-24c6.4-6.4,14.9-9.9,24-9.9
		s17.6,3.5,24,9.9C152,84.5,155.5,93,155.5,102.1z"/>
</g>
</svg>
