<svg xmlns="http://www.w3.org/2000/svg" viewBox="0 0 165 165"><defs><style>.cls-1{isolation:isolate;}.cls-2{fill:none;}.cls-10,.cls-3{fill:#abadac;}.cls-4{fill:#dddede;}.cls-5{fill:#ffc20e;}.cls-6{fill:#2f2f2f;}.cls-7{fill:#efefef;}.cls-8{fill:#757575;}.cls-9{fill:#fff;}.cls-10{opacity:0.25;}.cls-10,.cls-12{mix-blend-mode:multiply;}.cls-11{fill:#fff3cf;}.cls-12{fill:#e2af24;opacity:0.35;}</style></defs><title>law-enforcement-165px-wide</title><g class="cls-1"><g id="Layer_2" data-name="Layer 2"><g id="artwork"><rect class="cls-2" width="165" height="165"/><g id="law_enforcement_white_bg" data-name="law enforcement white bg"><path class="cls-3" d="M115.14,112.27a.37.37,0,0,1-.26-.1.38.38,0,0,1,0-.53c10.45-10.92,6.63-23.9,3.26-35.36-.6-2.06-1.18-4-1.63-5.85a25.86,25.86,0,0,1,1-16,.39.39,0,0,1,.49-.21.38.38,0,0,1,.21.49,25,25,0,0,0-1,15.53c.45,1.82,1,3.75,1.62,5.81,3.26,11.07,7.31,24.85-3.44,36.08A.36.36,0,0,1,115.14,112.27Z"/><path class="cls-3" d="M48,70.72h-.09a.37.37,0,0,1-.27-.45c2.91-11.92-3-20.46-6.77-24.48a.4.4,0,0,1-.1-.28.45.45,0,0,1,.12-.26l14.35-13a.38.38,0,0,1,.47,0C60.86,36,66,37.87,71.05,37.87a.38.38,0,0,1,.38.38.37.37,0,0,1-.38.37c-5.1,0-10.34-1.89-15.58-5.62L41.63,45.54c3.88,4.25,9.62,12.9,6.68,24.89A.36.36,0,0,1,48,70.72Z"/><path class="cls-3" d="M67.58,123.19l-.14,0c-27-10.38-27.1-25.74-23.25-40.79a.38.38,0,0,1,.46-.27.38.38,0,0,1,.27.46c-3.77,14.71-3.62,29.73,22.79,39.9a.37.37,0,0,1-.13.72Z"/><path class="cls-4" d="M82.43,126.61a63.65,63.65,0,0,0-13.62-6.86C40.22,108.75,45,92.66,49.53,77.11c.61-2.1,1.2-4.08,1.66-6a29,29,0,0,0-5.48-25.31l10.08-9.13A28.61,28.61,0,0,0,71.1,41.54a22.5,22.5,0,0,0,11.33-3,22.57,22.57,0,0,0,11.34,3h0a28.67,28.67,0,0,0,15.31-4.85l10.08,9.13a29,29,0,0,0-5.48,25.31c.46,1.9,1,3.88,1.66,6,4.58,15.55,9.31,31.64-19.28,42.64A64,64,0,0,0,82.43,126.61Z"/><path class="cls-5" d="M16.59,87.85a1.37,1.37,0,0,1-1.29-1.78l2.06-6.36L12,75.77a1.36,1.36,0,0,1,.8-2.45h6.69L21.51,67A1.34,1.34,0,0,1,22.8,66h0a1.35,1.35,0,0,1,1.29.94l2.07,6.36h6.68a1.36,1.36,0,0,1,1.3.94,1.34,1.34,0,0,1-.5,1.51l-5.41,3.94,2.07,6.36a1.35,1.35,0,0,1-2.09,1.51L22.8,83.65l-5.41,3.93A1.33,1.33,0,0,1,16.59,87.85Zm6.21-6,5.94,4.32-2.27-7,5.94-4.31H25.07l-2.27-7-2.27,7H13.19l5.94,4.31-2.27,7Z"/><path class="cls-5" d="M3.52,67.31a1,1,0,0,1-.63-.2,1.09,1.09,0,0,1-.4-1.21l1-3.23-2.74-2a1.08,1.08,0,0,1,.63-2h3.4l1-3.23a1.09,1.09,0,0,1,1-.75h0a1.07,1.07,0,0,1,1,.75h0L9,58.72h3.39a1.09,1.09,0,0,1,.64,2l-2.75,2,1.05,3.23a1.08,1.08,0,0,1-.39,1.21,1.1,1.1,0,0,1-1.27,0l-2.75-2-2.74,2A1.13,1.13,0,0,1,3.52,67.31Zm-.8-7.09L5.31,62.1l-1,3L6.9,63.26l2.59,1.87-1-3,2.59-1.88H7.89l-1-3-1,3ZM6.51,56Zm.79,0h0Z"/><path class="cls-5" d="M148.41,87.85a1.33,1.33,0,0,1-.8-.27l-5.41-3.93-5.41,3.93a1.36,1.36,0,0,1-2.09-1.51l2.07-6.36-5.41-3.94a1.34,1.34,0,0,1-.5-1.51,1.36,1.36,0,0,1,1.3-.94h6.68L140.91,67A1.35,1.35,0,0,1,142.2,66a1.38,1.38,0,0,1,1.3.94l2.06,6.36h6.69a1.36,1.36,0,0,1,.8,2.45l-5.41,3.94,2.06,6.36a1.37,1.37,0,0,1-1.29,1.78Zm-15.82-13,5.94,4.31-2.27,7,5.94-4.32,5.94,4.32-2.27-7,5.94-4.31h-7.34l-2.27-7-2.27,7Z"/><path class="cls-5" d="M154.71,67.31a1,1,0,0,1-.63-.2,1.07,1.07,0,0,1-.39-1.21l1.05-3.23-2.75-2a1.06,1.06,0,0,1-.39-1.2,1.07,1.07,0,0,1,1-.75H156l1-3.23a1.07,1.07,0,0,1,1-.75,1.06,1.06,0,0,1,1,.75l1,3.23h3.4a1.08,1.08,0,0,1,1,.75,1.1,1.1,0,0,1-.4,1.21l-2.74,2,1,3.23a1.09,1.09,0,0,1-1.67,1.21l-2.74-2-2.75,2A1.13,1.13,0,0,1,154.71,67.31Zm-.8-7.09,2.59,1.88-1,3,2.59-1.87,2.58,1.87-1-3,2.59-1.88h-3.2l-1-3-1,3Z"/><path class="cls-6" d="M82.44,137h0a.73.73,0,0,1-.71-.59c0-.12-1.29-4.21-15.58-9.71C31.11,113.25,37.88,90.23,42.36,75c.59-2,1.15-3.91,1.58-5.65,2.73-11.2-3.74-19-6.66-21.79a2.93,2.93,0,0,1-.89-2.14,3,3,0,0,1,1-2.11l16.11-14.6a2.93,2.93,0,0,1,3.73-.15c15.23,11.6,24.59,1.15,24.68,1a.76.76,0,0,1,.56-.26h0a.76.76,0,0,1,.56.26c.38.43,9.49,10.53,24.68-1a2.93,2.93,0,0,1,3.73.15l16.11,14.6a2.93,2.93,0,0,1,.07,4.25c-2.92,2.82-9.39,10.59-6.66,21.79.43,1.74,1,3.64,1.58,5.65,4.48,15.23,11.25,38.25-23.76,51.72-14.44,5.56-15.57,9.67-15.58,9.71A.77.77,0,0,1,82.44,137Zm-27-107.56a1.37,1.37,0,0,0-.94.37L38.36,44.42a1.44,1.44,0,0,0-.47,1,1.4,1.4,0,0,0,.44,1c3.09,3,10,11.27,7.06,23.23-.43,1.77-1,3.68-1.59,5.71C39.22,91,32.94,112.34,66.66,125.32c10.63,4.09,14.42,7.5,15.77,9.36,1.36-1.86,5.15-5.27,15.78-9.36,33.72-13,27.44-34.32,22.86-49.9-.6-2-1.16-3.94-1.59-5.71-2.93-12,4-20.23,7.06-23.23a1.35,1.35,0,0,0,.43-1,1.39,1.39,0,0,0-.46-1L110.4,29.83a1.41,1.41,0,0,0-1.81-.07C94.41,40.55,84.8,33.33,82.43,31.15c-2.36,2.18-12,9.4-26.15-1.39A1.43,1.43,0,0,0,55.41,29.46Z"/><path class="cls-7" d="M82.43,126.61a63.65,63.65,0,0,0-13.62-6.86C40.22,108.75,45,92.66,49.53,77.11c.61-2.1,1.2-4.08,1.66-6a29,29,0,0,0-5.48-25.31l10.08-9.13A28.61,28.61,0,0,0,71.1,41.54a22.5,22.5,0,0,0,11.33-3,22.57,22.57,0,0,0,11.34,3h0a28.67,28.67,0,0,0,15.31-4.85l10.08,9.13a29,29,0,0,0-5.48,25.31c.46,1.9,1,3.88,1.66,6,4.58,15.55,9.31,31.64-19.28,42.64A64,64,0,0,0,82.43,126.61Z"/><path class="cls-6" d="M82.43,127.36a.69.69,0,0,1-.43-.14,62.65,62.65,0,0,0-13.46-6.77C39.31,109.2,44.14,92.78,48.81,76.89c.61-2.08,1.19-4.06,1.65-5.94a28.24,28.24,0,0,0-5.35-24.67.74.74,0,0,1,.09-1l10.09-9.14a.74.74,0,0,1,.9-.08A27.93,27.93,0,0,0,71.1,40.79a21.75,21.75,0,0,0,11-2.92.72.72,0,0,1,.75,0,21.75,21.75,0,0,0,11,2.92,27.93,27.93,0,0,0,14.91-4.74.74.74,0,0,1,.9.08l10.09,9.14a.74.74,0,0,1,.09,1A28.24,28.24,0,0,0,114.41,71c.46,1.9,1,3.87,1.65,5.94,4.67,15.89,9.5,32.31-19.73,43.56a62.65,62.65,0,0,0-13.46,6.77A.7.7,0,0,1,82.43,127.36ZM46.72,45.92a29.62,29.62,0,0,1,5.2,25.38c-.47,1.92-1.05,3.91-1.67,6-4.48,15.23-9.11,31,18.83,41.73a65.56,65.56,0,0,1,13.35,6.65,65.94,65.94,0,0,1,13.36-6.65c27.94-10.75,23.31-26.5,18.83-41.73-.59-2-1.2-4.08-1.67-6a29.62,29.62,0,0,1,5.2-25.38L109,37.62a29.13,29.13,0,0,1-15.23,4.67,23.21,23.21,0,0,1-11.34-2.91A23.14,23.14,0,0,1,71.1,42.29a29.13,29.13,0,0,1-15.23-4.67Z"/><polygon class="cls-8" points="93.21 76.41 92.21 76.41 92.21 68.67 97.11 63.76 97.11 49.54 98.11 49.54 98.11 64.18 93.21 69.08 93.21 76.41"/><circle class="cls-9" cx="97.61" cy="48.28" r="1.96"/><path class="cls-8" d="M97.61,50.73a2.46,2.46,0,1,1,2.46-2.45A2.45,2.45,0,0,1,97.61,50.73Zm0-3.91a1.46,1.46,0,1,0,1.46,1.46A1.45,1.45,0,0,0,97.61,46.82Z"/><circle class="cls-9" cx="91.62" cy="50.23" r="1.96"/><path class="cls-8" d="M91.62,52.69a2.46,2.46,0,1,1,2.46-2.46A2.46,2.46,0,0,1,91.62,52.69Zm0-3.91a1.46,1.46,0,1,0,1.46,1.45A1.46,1.46,0,0,0,91.62,48.78Z"/><circle class="cls-9" cx="73.44" cy="50.23" r="1.96"/><path class="cls-8" d="M73.44,52.69a2.46,2.46,0,1,1,2.46-2.46A2.46,2.46,0,0,1,73.44,52.69Zm0-3.91a1.46,1.46,0,1,0,1.46,1.45A1.45,1.45,0,0,0,73.44,48.78Z"/><circle class="cls-9" cx="82.43" cy="46.5" r="1.96"/><path class="cls-8" d="M82.43,49a2.46,2.46,0,1,1,2.46-2.46A2.46,2.46,0,0,1,82.43,49Zm0-3.92a1.46,1.46,0,1,0,1.46,1.46A1.46,1.46,0,0,0,82.43,45Z"/><circle class="cls-9" cx="108.57" cy="46.88" r="1.96"/><path class="cls-8" d="M108.57,49.34A2.46,2.46,0,1,1,111,46.88,2.46,2.46,0,0,1,108.57,49.34Zm0-3.92A1.46,1.46,0,1,0,110,46.88,1.46,1.46,0,0,0,108.57,45.42Z"/><line class="cls-6" x1="97.61" y1="58.2" x2="107.69" y2="48.12"/><rect class="cls-8" x="95.53" y="52.66" width="14.25" height="1" transform="translate(-7.52 88.16) rotate(-45)"/><polygon class="cls-8" points="72.82 76.41 71.82 76.41 71.82 69.08 66.92 64.18 66.92 49.54 67.92 49.54 67.92 63.76 72.82 68.67 72.82 76.41"/><circle class="cls-9" cx="67.42" cy="48.28" r="1.96"/><path class="cls-8" d="M67.42,50.73a2.46,2.46,0,1,1,2.45-2.45A2.46,2.46,0,0,1,67.42,50.73Zm0-3.91a1.46,1.46,0,1,0,1.45,1.46A1.46,1.46,0,0,0,67.42,46.82Z"/><circle class="cls-9" cx="56.46" cy="46.88" r="1.96"/><path class="cls-8" d="M56.46,49.34a2.46,2.46,0,1,1,2.45-2.46A2.46,2.46,0,0,1,56.46,49.34Zm0-3.92a1.46,1.46,0,1,0,1.45,1.46A1.46,1.46,0,0,0,56.46,45.42Z"/><line class="cls-6" x1="67.42" y1="58.2" x2="57.34" y2="48.12"/><rect class="cls-8" x="61.88" y="46.03" width="1" height="14.25" transform="translate(-19.32 59.68) rotate(-45)"/><polygon class="cls-8" points="80.15 68.06 72.94 60.84 72.94 51.94 73.94 51.94 73.94 60.43 80.86 67.35 80.15 68.06"/><polygon class="cls-8" points="84.91 68.06 84.2 67.35 91.12 60.43 91.12 51.94 92.12 51.94 92.12 60.84 84.91 68.06"/><line class="cls-6" x1="82.43" y1="64.38" x2="82.43" y2="48.28"/><rect class="cls-8" x="81.93" y="48.28" width="1" height="16.1"/><circle class="cls-9" cx="82.43" cy="117.17" r="1.96"/><path class="cls-8" d="M82.43,119.62a2.46,2.46,0,1,1,2.46-2.45A2.45,2.45,0,0,1,82.43,119.62Zm0-3.91a1.46,1.46,0,1,0,1.46,1.46A1.45,1.45,0,0,0,82.43,115.71Z"/><line class="cls-6" x1="82.43" y1="89.4" x2="82.43" y2="115.21"/><rect class="cls-8" x="81.93" y="89.4" width="1" height="25.8"/><path class="cls-8" d="M66.72,76.08a.5.5,0,0,1-.5-.5V69.66L60.46,63.9a.5.5,0,0,1,0-.71.5.5,0,0,1,.7,0l5.91,5.91a.47.47,0,0,1,.15.35v6.13A.5.5,0,0,1,66.72,76.08Z"/><path class="cls-8" d="M98.15,76.08a.5.5,0,0,1-.5-.5V69.45a.5.5,0,0,1,.14-.35l5.91-5.91a.5.5,0,1,1,.71.71l-5.76,5.76v5.92A.5.5,0,0,1,98.15,76.08Z"/><path class="cls-8" d="M107.81,98.45a.5.5,0,0,1-.35-.15L96.1,86.94a.51.51,0,0,1-.15-.35V79.22a.5.5,0,0,1,.5-.5.5.5,0,0,1,.5.5v7.16l11.22,11.21a.51.51,0,0,1,0,.71A.51.51,0,0,1,107.81,98.45Z"/><path class="cls-8" d="M98.68,110.44a.5.5,0,0,1-.5-.5V88.81a.5.5,0,0,1,.14-.35l4.26-4.26a.47.47,0,0,1,.35-.15h5.64a.5.5,0,0,1,0,1h-5.43l-4,4v20.92A.51.51,0,0,1,98.68,110.44Z"/><circle class="cls-9" cx="59.67" cy="62.41" r="1.96"/><path class="cls-8" d="M59.67,64.87a2.46,2.46,0,1,1,2.46-2.46A2.46,2.46,0,0,1,59.67,64.87Zm0-3.92a1.46,1.46,0,1,0,1.46,1.46A1.46,1.46,0,0,0,59.67,61Z"/><circle class="cls-9" cx="104.97" cy="62.41" r="1.96"/><path class="cls-8" d="M105,64.87a2.46,2.46,0,1,1,2.46-2.46A2.46,2.46,0,0,1,105,64.87ZM105,61a1.46,1.46,0,1,0,1.46,1.46A1.46,1.46,0,0,0,105,61Z"/><circle class="cls-9" cx="110.15" cy="84.43" r="1.96"/><path class="cls-8" d="M110.15,86.89a2.46,2.46,0,1,1,2.45-2.46A2.46,2.46,0,0,1,110.15,86.89Zm0-3.92a1.46,1.46,0,1,0,1.45,1.46A1.46,1.46,0,0,0,110.15,83Z"/><circle class="cls-9" cx="108.57" cy="98.98" r="1.96"/><path class="cls-8" d="M108.57,101.43A2.46,2.46,0,1,1,111,99,2.45,2.45,0,0,1,108.57,101.43Zm0-3.91A1.46,1.46,0,1,0,110,99,1.45,1.45,0,0,0,108.57,97.52Z"/><circle class="cls-9" cx="98.68" cy="109.94" r="1.96"/><path class="cls-8" d="M98.68,112.4a2.46,2.46,0,1,1,2.45-2.46A2.46,2.46,0,0,1,98.68,112.4Zm0-3.92a1.46,1.46,0,1,0,1.45,1.46A1.46,1.46,0,0,0,98.68,108.48Z"/><circle class="cls-9" cx="91.28" cy="112.38" r="1.96"/><path class="cls-8" d="M91.28,114.84a2.46,2.46,0,1,1,2.46-2.46A2.47,2.47,0,0,1,91.28,114.84Zm0-3.92a1.46,1.46,0,1,0,1.46,1.46A1.46,1.46,0,0,0,91.28,110.92Z"/><path class="cls-8" d="M91.28,110.92a.5.5,0,0,1-.5-.5v-4.67l-4-4.06a.51.51,0,0,1-.15-.35v-8a.5.5,0,0,1,.5-.5.5.5,0,0,1,.5.5v7.81l4.06,4.05a.54.54,0,0,1,.14.36v4.88A.5.5,0,0,1,91.28,110.92Z"/><path class="cls-8" d="M57,98.45a.5.5,0,0,1-.35-.15.5.5,0,0,1,0-.71L67.85,86.38V79.22a.5.5,0,0,1,.5-.5.5.5,0,0,1,.5.5v7.37a.5.5,0,0,1-.14.35L57.35,98.3A.51.51,0,0,1,57,98.45Z"/><path class="cls-8" d="M66.13,110.44a.5.5,0,0,1-.5-.5V89l-4-4H56.23a.5.5,0,0,1,0-1h5.64a.51.51,0,0,1,.36.15l4.25,4.26a.47.47,0,0,1,.15.35v21.13A.5.5,0,0,1,66.13,110.44Z"/><circle class="cls-9" cx="54.66" cy="84.43" r="1.96"/><path class="cls-8" d="M54.66,86.89a2.46,2.46,0,1,1,2.46-2.46A2.46,2.46,0,0,1,54.66,86.89Zm0-3.92a1.46,1.46,0,1,0,1.46,1.46A1.47,1.47,0,0,0,54.66,83Z"/><circle class="cls-9" cx="56.23" cy="98.98" r="1.96"/><path class="cls-8" d="M56.23,101.43A2.46,2.46,0,1,1,58.69,99,2.46,2.46,0,0,1,56.23,101.43Zm0-3.91A1.46,1.46,0,1,0,57.69,99,1.46,1.46,0,0,0,56.23,97.52Z"/><circle class="cls-9" cx="66.13" cy="109.94" r="1.96"/><path class="cls-8" d="M66.13,112.4a2.46,2.46,0,1,1,2.46-2.46A2.47,2.47,0,0,1,66.13,112.4Zm0-3.92a1.46,1.46,0,1,0,1.46,1.46A1.46,1.46,0,0,0,66.13,108.48Z"/><circle class="cls-9" cx="73.52" cy="112.38" r="1.96"/><path class="cls-8" d="M73.52,114.84A2.46,2.46,0,1,1,76,112.38,2.46,2.46,0,0,1,73.52,114.84Zm0-3.92A1.46,1.46,0,1,0,75,112.38,1.45,1.45,0,0,0,73.52,110.92Z"/><path class="cls-8" d="M73.52,110.92a.5.5,0,0,1-.5-.5v-4.88a.55.55,0,0,1,.15-.36l4-4.05V93.32a.5.5,0,0,1,.5-.5.5.5,0,0,1,.5.5v8a.5.5,0,0,1-.14.35L74,105.75v4.67A.5.5,0,0,1,73.52,110.92Z"/><line class="cls-6" x1="82.43" y1="135.04" x2="82.43" y2="126.61"/><path class="cls-6" d="M82.43,135.79a.76.76,0,0,1-.75-.75v-8.43a.75.75,0,0,1,1.5,0V135A.75.75,0,0,1,82.43,135.79Z"/><line class="cls-6" x1="82.43" y1="38.33" x2="82.43" y2="30.51"/><path class="cls-6" d="M82.43,39.08a.75.75,0,0,1-.75-.75V30.51a.75.75,0,0,1,1.5,0v7.82A.74.74,0,0,1,82.43,39.08Z"/><path class="cls-10" d="M83.54,64.46l4.27,13.15h13.83a1.17,1.17,0,0,1,.68,2.11L91.14,87.84,95.41,101a1.16,1.16,0,0,1-1.79,1.3L82.43,94.17l-11.18,8.12a1.16,1.16,0,0,1-1.79-1.3l4.27-13.15L62.55,79.72a1.17,1.17,0,0,1,.68-2.11H77.06l4.27-13.15A1.16,1.16,0,0,1,83.54,64.46Z"/><path class="cls-5" d="M83,59.17l4.84,14.91h15.67a.56.56,0,0,1,.33,1L91.2,84.31,96,99.21a.56.56,0,0,1-.86.63L82.5,90.63,69.82,99.84a.56.56,0,0,1-.86-.63l4.84-14.9L61.12,75.1a.56.56,0,0,1,.33-1H77.12L82,59.17A.57.57,0,0,1,83,59.17Z"/><path class="cls-11" d="M95.51,100.7a1.36,1.36,0,0,1-.77-.25L82.5,91.56l-12.24,8.89a1.31,1.31,0,0,1-2-1.47l4.68-14.39L60.68,75.7a1.31,1.31,0,0,1,.77-2.37H76.58l4.67-14.39A1.32,1.32,0,0,1,82.5,58h0a1.32,1.32,0,0,1,1.25.91l4.67,14.39h15.13a1.31,1.31,0,0,1,.77,2.37L92.08,84.59,96.76,99a1.33,1.33,0,0,1-.48,1.47A1.36,1.36,0,0,1,95.51,100.7Zm-13-10.82a.79.79,0,0,1,.44.14L95.16,98.9,90.49,84.54a.76.76,0,0,1,.27-.84L103,74.83H87.88a.74.74,0,0,1-.71-.52L82.5,60,77.83,74.31a.74.74,0,0,1-.71.52H62L74.24,83.7a.76.76,0,0,1,.27.84L69.84,98.9,82.06,90A.79.79,0,0,1,82.5,89.88Zm21-15h0ZM82.32,59.4h0Z"/><polygon class="cls-12" points="83.65 61.05 87.88 74.08 105.28 74.08 91.2 84.31 96.58 100.86 82.5 90.63 82.5 59.82 83.65 61.05"/><path class="cls-11" d="M69.41,100.77a1.25,1.25,0,0,1-.75-.25,1.27,1.27,0,0,1-.46-1.42l4.72-14.51-12.35-9a1.29,1.29,0,0,1-.46-1.43,1.27,1.27,0,0,1,1.21-.87H76.58l4.71-14.51a1.27,1.27,0,0,1,2.42,0h0l4.71,14.51h15.26a1.27,1.27,0,0,1,1.21.87,1.29,1.29,0,0,1-.46,1.43l-12.35,9L96.8,99.1a1.27,1.27,0,0,1-2,1.42l-12.34-9-12.34,9A1.25,1.25,0,0,1,69.41,100.77ZM82.5,89.88a.79.79,0,0,1,.44.14L95.16,98.9,90.49,84.54a.76.76,0,0,1,.27-.84L103,74.83H87.88a.74.74,0,0,1-.71-.52L82.5,60,77.83,74.31a.74.74,0,0,1-.71.52H62L74.24,83.7a.76.76,0,0,1,.27.84L69.85,98.9,82.06,90A.79.79,0,0,1,82.5,89.88Zm-.22-30.6Z"/><path class="cls-11" d="M82.5,91.38a.76.76,0,0,1-.75-.75V85.07a.75.75,0,0,1,1.5,0v5.56A.76.76,0,0,1,82.5,91.38Z"/><circle class="cls-5" cx="82.5" cy="81.44" r="3.63"/><path class="cls-11" d="M82.5,85.82a4.38,4.38,0,1,1,4.38-4.38A4.38,4.38,0,0,1,82.5,85.82Zm0-7.26a2.88,2.88,0,1,0,2.88,2.88A2.88,2.88,0,0,0,82.5,78.56Z"/></g></g></g></g></svg>