<svg xmlns="http://www.w3.org/2000/svg" viewBox="0 0 165 165"><defs><style>.cls-1{isolation:isolate;}.cls-2{fill:none;}.cls-3{fill:#efefef;}.cls-4{fill:#2f2f2f;}.cls-10,.cls-5,.cls-7{fill:#abadac;}.cls-5{opacity:0.2;}.cls-6{fill:#fafafa;}.cls-7{opacity:0.25;}.cls-11,.cls-7{mix-blend-mode:multiply;}.cls-8{fill:#ffc20e;}.cls-9{fill:#fff3cf;}.cls-11{fill:#e2af24;opacity:0.35;}</style></defs><title>national-csirts-265px-wide</title><g class="cls-1"><g id="Layer_2" data-name="Layer 2"><g id="artwork"><rect class="cls-2" width="165" height="165"/><g id="national_CSIRTs_white_bg" data-name="national CSIRTs white bg"><rect class="cls-3" x="64.77" y="129.57" width="35.39" height="12.12"/><path class="cls-4" d="M100.91,142.44H64V128.82h36.89Zm-35.39-1.5H99.41V130.32H65.52Z"/><rect class="cls-5" x="148.14" y="48.23" width="4.35" height="73.72"/><polygon class="cls-3" points="20.52 91.37 42.73 69.16 39.04 89.21 20.52 91.37"/><polygon class="cls-3" points="92.04 61.7 102.59 91.31 73.46 76.18 92.04 61.7"/><polygon class="cls-6" points="51.46 101.63 73.41 76.18 59.81 113.15 51.46 101.63"/><polygon class="cls-6" points="38.83 89.14 42.73 69.16 51.5 101.63 38.83 89.14"/><path class="cls-4" d="M152.18,123.29H12.82a1.65,1.65,0,0,1-1.64-1.65V48.53a1.65,1.65,0,0,1,1.64-1.65H152.18a1.65,1.65,0,0,1,1.64,1.65v73.11A1.65,1.65,0,0,1,152.18,123.29ZM12.82,48.38a.15.15,0,0,0-.14.15v73.11a.15.15,0,0,0,.14.15H152.18a.15.15,0,0,0,.14-.15V48.53a.15.15,0,0,0-.14-.15Z"/><path class="cls-4" d="M86.76,126.54H78.17a.5.5,0,0,1-.5-.5.5.5,0,0,1,.5-.5h8.59a.5.5,0,0,1,.5.5A.5.5,0,0,1,86.76,126.54Z"/><path class="cls-4" d="M107.9,142.44H57a.75.75,0,0,1,0-1.5H107.9a.75.75,0,0,1,0,1.5Z"/><rect class="cls-4" x="44.77" y="86.62" width="1" height="17.6" transform="translate(-54.28 60.14) rotate(-45.1)"/><circle cx="12.35" cy="126.09" r="0.94"/><circle cx="15.69" cy="126.09" r="0.94"/><circle cx="19.02" cy="126.09" r="0.94"/><polygon class="cls-6" points="91.53 61.07 102.61 91.14 126.24 70.88 91.53 61.07"/><path class="cls-4" d="M60,114.21l-9.13-12.6,24-27.84Zm-7.86-12.55,7.57,10.44L72,78.6Z"/><rect class="cls-4" x="15.92" y="79.76" width="31.41" height="1" transform="translate(-47.49 45.87) rotate(-45)"/><path class="cls-4" d="M59,114.69,72.06,78.57l-20,23.19.17.64L20.37,91.84l.31-1,30.1,10L42,68.48l31.25,7.15.06-.07.29.15.49.11,0,.12,27.62,14.4L91.25,61l34.86,9.34.19-.16.22.27.4.1-.1.25,16,19-32.93,19.48L125,72.61l-21.8,18.91,0,.09-.33.17-.21.19-.07,0Zm14.78-37.8-13,35.72,40.75-21.24Zm52.66-5.08L112,106.9l29.35-17.36Zm-83-2,8.31,30.76,20.8-24.1Zm49.4-7.4,10,28.08L125.2,71.1Z"/><polygon class="cls-4" points="20.57 91.87 20.48 90.87 38.95 89.2 42.24 69.08 43.23 69.24 39.81 90.13 20.57 91.87"/><path class="cls-4" d="M156.81,130.32H8.19a4.05,4.05,0,0,1-4-4V43.89a4.05,4.05,0,0,1,4.05-4H156.81a4.05,4.05,0,0,1,4.05,4v82.39A4.05,4.05,0,0,1,156.81,130.32ZM8.19,41.35a2.55,2.55,0,0,0-2.55,2.54v82.39a2.55,2.55,0,0,0,2.55,2.54H156.81a2.55,2.55,0,0,0,2.55-2.54V43.89a2.55,2.55,0,0,0-2.55-2.54Z"/><path class="cls-7" d="M82.39,95.66h0C100.51,81.3,111,60.3,111,38.2V37.08a1.4,1.4,0,0,0-1.52-1.34l-3.17.14A31.45,31.45,0,0,1,82.39,26.7h0a31.48,31.48,0,0,1-23.87,9.18l-3.17-.14a1.41,1.41,0,0,0-1.52,1.34V38.2c0,22.1,10.44,43.1,28.56,57.46Z"/><path class="cls-8" d="M82.46,90.25h0C100,76.33,110.15,56,110.15,34.55V33.46a1.36,1.36,0,0,0-1.48-1.3l-3.07.14a30.49,30.49,0,0,1-23.14-8.9h0a30.48,30.48,0,0,1-23.14,8.9l-3.06-.14a1.36,1.36,0,0,0-1.48,1.3v1.09c0,21.42,10.12,41.78,27.68,55.7Z"/><path class="cls-8" d="M61,50.52a66.14,66.14,0,0,1-2.07-14.26h1.14a37,37,0,0,0,22.4-7.46,37,37,0,0,0,22.41,7.47l1.14,0c-.65,18.58-9.1,36.11-23.55,48.94A72.41,72.41,0,0,1,69.91,70.67c-.49-.75-1-1.51-1.42-2.27-.62-1-1.21-2.09-1.78-3.16A67.16,67.16,0,0,1,63,56.83"/><path class="cls-9" d="M82.47,86a.73.73,0,0,1-.5-.19A73,73,0,0,1,69.28,71.08c-.49-.76-1-1.52-1.43-2.29-.63-1.05-1.23-2.12-1.8-3.19a69.47,69.47,0,0,1-3.8-8.51.75.75,0,0,1,.45-1,.74.74,0,0,1,1,.44,67.18,67.18,0,0,0,3.71,8.32c.56,1,1.15,2.1,1.76,3.12.46.76.92,1.51,1.41,2.25A70.71,70.71,0,0,0,82.47,84.19C96.33,71.65,104.39,55,105.23,37a37.93,37.93,0,0,1-22.77-7.27A38.12,38.12,0,0,1,59.7,37a65.29,65.29,0,0,0,2,13.32.75.75,0,0,1-.54.91.76.76,0,0,1-.92-.54,67,67,0,0,1-2.09-14.43.75.75,0,0,1,.77-.77A36.28,36.28,0,0,0,82,28.22a.74.74,0,0,1,.91,0A36.29,36.29,0,0,0,106,35.51a.77.77,0,0,1,.56.22.73.73,0,0,1,.22.55C106.1,55.14,97.65,72.71,83,85.76A.72.72,0,0,1,82.47,86Z"/><rect class="cls-7" x="65.36" y="130.16" width="34.2" height="4.29"/><path class="cls-10" d="M8.39,79.11A.37.37,0,0,1,8,78.74V58.51a.38.38,0,1,1,.75,0V78.74A.37.37,0,0,1,8.39,79.11Z"/><path class="cls-10" d="M8.39,96.33A.38.38,0,0,1,8,96V83.31a.38.38,0,1,1,.75,0V96A.38.38,0,0,1,8.39,96.33Z"/><path class="cls-10" d="M155.08,126.51H110.82a.38.38,0,1,1,0-.75h44.26a1.29,1.29,0,0,0,1.28-1.28v-11.6a.37.37,0,0,1,.37-.37.38.38,0,0,1,.38.37v11.6A2,2,0,0,1,155.08,126.51Z"/><path class="cls-10" d="M156.73,108.79a.37.37,0,0,1-.37-.37v-8a.37.37,0,0,1,.37-.37.38.38,0,0,1,.38.37v8A.38.38,0,0,1,156.73,108.79Z"/><path class="cls-11" d="M82.47,90.16h0c17.56-13.92,27.68-34.28,27.68-55.7V33.37a1.36,1.36,0,0,0-1.48-1.3l-3.06.14a30.46,30.46,0,0,1-23.14-8.9h0"/><circle class="cls-8" cx="82.46" cy="56.52" r="12.15"/><path class="cls-9" d="M82.47,69.41A12.9,12.9,0,1,1,95.36,56.52,12.9,12.9,0,0,1,82.47,69.41Zm0-24.29a11.4,11.4,0,1,0,11.39,11.4A11.41,11.41,0,0,0,82.47,45.12Z"/><ellipse class="cls-8" cx="82.46" cy="56.52" rx="6.31" ry="12.15"/><path class="cls-9" d="M82.47,69.41c-4,0-7.06-5.66-7.06-12.89s3.1-12.9,7.06-12.9,7,5.67,7,12.9S86.42,69.41,82.47,69.41Zm0-24.29c-3,0-5.56,5.22-5.56,11.4s2.54,11.39,5.56,11.39S88,62.69,88,56.52,85.48,45.12,82.47,45.12Z"/><line class="cls-8" x1="70.32" y1="56.52" x2="94.61" y2="56.52"/><path class="cls-9" d="M94.61,57.27H70.32a.75.75,0,0,1,0-1.5H94.61a.75.75,0,0,1,0,1.5Z"/><line class="cls-8" x1="82.46" y1="44.37" x2="82.46" y2="68.29"/><path class="cls-9" d="M82.47,69a.74.74,0,0,1-.75-.75V44.37a.75.75,0,0,1,1.5,0V68.29A.75.75,0,0,1,82.47,69Z"/><path class="cls-8" d="M72.29,49.88C74.46,51.15,78.21,52,82.46,52s7.89-.81,10.08-2.05"/><path class="cls-9" d="M82.47,52.74c-4.25,0-8.19-.82-10.56-2.21a.76.76,0,0,1-.26-1,.74.74,0,0,1,1-.27c2.15,1.26,5.81,2,9.8,2s7.54-.73,9.7-2a.75.75,0,1,1,.74,1.3C90.53,51.94,86.63,52.74,82.47,52.74Z"/><path class="cls-8" d="M92.65,63.32c-2.17-1.27-5.91-2.11-10.17-2.11s-7.89.81-10.07,2"/><path class="cls-9" d="M92.65,64.07a.75.75,0,0,1-.38-.1c-2.14-1.26-5.8-2-9.79-2s-7.54.73-9.7,2a.75.75,0,0,1-1-.29.74.74,0,0,1,.28-1c2.37-1.35,6.28-2.15,10.44-2.15s8.19.83,10.55,2.21a.75.75,0,0,1-.38,1.4Z"/><path class="cls-9" d="M82.47,86a.73.73,0,0,1-.5-.19A73,73,0,0,1,69.28,71.08c-.49-.76-1-1.52-1.43-2.29-.63-1.05-1.23-2.12-1.8-3.19a69.47,69.47,0,0,1-3.8-8.51.75.75,0,0,1,.45-1,.74.74,0,0,1,1,.44,67.18,67.18,0,0,0,3.71,8.32c.56,1,1.15,2.1,1.76,3.12.46.76.92,1.51,1.41,2.25A70.71,70.71,0,0,0,82.47,84.19C96.33,71.65,104.39,55,105.23,37a37.93,37.93,0,0,1-22.77-7.27A38.12,38.12,0,0,1,59.7,37a65.29,65.29,0,0,0,2,13.32.75.75,0,0,1-.54.91.76.76,0,0,1-.92-.54,67,67,0,0,1-2.09-14.43.75.75,0,0,1,.77-.77A36.28,36.28,0,0,0,82,28.22a.74.74,0,0,1,.91,0A36.29,36.29,0,0,0,106,35.51a.77.77,0,0,1,.56.22.73.73,0,0,1,.22.55C106.1,55.14,97.65,72.71,83,85.76A.72.72,0,0,1,82.47,86Z"/><line class="cls-8" x1="82.46" y1="29.2" x2="82.46" y2="37.26"/><path class="cls-9" d="M82.47,38a.74.74,0,0,1-.75-.75V29.2a.75.75,0,0,1,1.5,0v8.06A.75.75,0,0,1,82.47,38Z"/><line class="cls-8" x1="82.46" y1="78.76" x2="82.46" y2="84.46"/><path class="cls-9" d="M82.47,85.21a.75.75,0,0,1-.75-.75v-5.7a.75.75,0,0,1,1.5,0v5.7A.76.76,0,0,1,82.47,85.21Z"/><circle class="cls-8" cx="60.06" cy="113.04" r="2.16"/><circle class="cls-8" cx="51.71" cy="101.52" r="2.16"/><circle class="cls-8" cx="39.58" cy="89.55" r="2.16"/><circle class="cls-8" cx="21.12" cy="91.25" r="2.16"/><circle class="cls-8" cx="42.94" cy="69.54" r="2.16"/><circle class="cls-8" cx="102.26" cy="91.03" r="2.16"/><circle class="cls-8" cx="126.05" cy="71.05" r="2.16"/><circle class="cls-8" cx="141.83" cy="89.55" r="2.16"/><circle class="cls-8" cx="111.15" cy="107.97" r="2.16"/></g></g></g></g></svg>