<svg xmlns="http://www.w3.org/2000/svg" viewBox="0 0 165 165"><defs><style>.cls-1{fill:none;}.cls-2,.cls-4{fill:#acadac;}.cls-3{fill:#2f2f2f;}.cls-4{opacity:0.2;}.cls-5{fill:#fafafa;}.cls-6{fill:#222223;}.cls-7{fill:#fff;}.cls-8{fill:#ffc20e;}.cls-9{fill:#dedede;}.cls-10{fill:#efefef;}</style></defs><title>network-reporting-165px-wide</title><g id="Layer_2" data-name="Layer 2"><g id="artwork"><rect class="cls-1" width="165" height="165"/><g id="network-reporting_white_bg" data-name="network-reporting white bg"><path class="cls-2" d="M65.41,128.25a2.17,2.17,0,0,1-1.78-.87,8.74,8.74,0,0,0-1-.85c-1.44-1.13-3.24-2.53-3.17-4.1,0-.81,0-3.83,0-6.75,0-3.08-.08-6.27,0-7.34a4.7,4.7,0,0,1,1.37-2.9c.47-.56.68-.85.6-1.07a15.54,15.54,0,0,0-2.6-2.88,19.25,19.25,0,0,1-2.73-3L55.74,98a4.52,4.52,0,0,1-.9-2.7A4.28,4.28,0,0,0,54,93.57a3,3,0,0,1-.76-1.63c0-.18-.09-.71-.16-1.17-.34-2.06-.52-3.46,0-4.15.2-.26.52-.61.86-1a10.84,10.84,0,0,0,1.18-1.42,4.61,4.61,0,0,0,.2-2.32,10.09,10.09,0,0,0-1.5-.57,7,7,0,0,1-3-1.5,23.58,23.58,0,0,1-1.49-2.2l-.31-.5c-.53-.25-2.64-1-4.21-1.55-3.54-1.25-3.84-1.37-4-1.61s-.55-.41-.89-.65c-1.78-1.27-2.68-2-3-2.47a6.67,6.67,0,0,1-.5-2.18,9,9,0,0,0-.18-1.13,2,2,0,0,0-.6-.59,8.21,8.21,0,0,1-.75,1.09l-.08.12a1.87,1.87,0,0,1-3.07-.85c-.42-.63-2.43-3.69-3.63-5.14a.75.75,0,1,1,1.16-1c1.38,1.68,3.7,5.23,3.8,5.38a1,1,0,0,1,.11.29.28.28,0,0,0,.13.21.65.65,0,0,0,.38,0l0,0a5.48,5.48,0,0,0,.67-1,.83.83,0,0,1,.09-.67.85.85,0,0,1,.8-.33,3.94,3.94,0,0,1,2.4,2,8,8,0,0,1,.24,1.39,6.41,6.41,0,0,0,.32,1.63,19.66,19.66,0,0,0,2.52,2c.65.46.92.66,1.08.8.4.19,2.09.78,3.46,1.27,4.42,1.56,4.62,1.67,4.84,2,.08.11.25.37.45.7a21.57,21.57,0,0,0,1.38,2,8.6,8.6,0,0,0,2.36,1,6.71,6.71,0,0,1,2,.88c1,.84.48,3,.22,3.86a6.28,6.28,0,0,1-1.51,2c-.31.33-.59.65-.77.88a12.32,12.32,0,0,0,.28,3,10,10,0,0,1,.18,1.42,4.33,4.33,0,0,0,.48.77,5.25,5.25,0,0,1,1.14,2.47A3.35,3.35,0,0,0,57,97.25l.28.47a19.6,19.6,0,0,0,2.5,2.69c1.66,1.62,2.68,2.65,3,3.46.37,1-.29,1.84-.87,2.54a3.34,3.34,0,0,0-1,2c0,1,0,4.21,0,7.27s.07,6,0,6.84,1.67,2.13,2.59,2.85a7.06,7.06,0,0,1,1.3,1.15.75.75,0,0,0,.62.25c.05-.12.12-.24.19-.38a4,4,0,0,0,.39-.85,3.35,3.35,0,0,1,.42-1,1.3,1.3,0,0,0,.18-.36,2.83,2.83,0,0,1-.2-.26,4.7,4.7,0,0,1-.46-.82c-.27-.73,0-1.15,4.9-5.38,1.35-1.17,3-2.63,3.26-3a9.55,9.55,0,0,1,1.15-1.5,11.76,11.76,0,0,0,1.1-1.39,9.08,9.08,0,0,0,1-3.44c.06-.65.78-1.29,3.61-3.49a29.1,29.1,0,0,0,3.19-2.68c0-.89.85-3,2.38-6.29a8.21,8.21,0,0,0,.87-2.25,82.8,82.8,0,0,0-7.67-3.59c-4.61-2-4.81-2.12-5-2.51a10.9,10.9,0,0,1-.32-3.07c0-.72-.09-1.74-.15-2.24-1.83-.68-11.57-3.65-17.69-5.49a.75.75,0,0,1-.3-.17L53.7,74.3a14,14,0,0,1-3.46-1.52c-.48-.48-.35-1.29.11-3.31l.13-.59-.8.09-.13,0a2.45,2.45,0,0,0-.34.63l-.23.5c-.37.72-1.34.89-3,.5-2.15-.51-2.15-1.07-2.15-1.38,0-.08-.26-.82-.44-1.36a11,11,0,0,1-.69-2.48c0-.51.4-1.12,1.36-2.37.17-.21.31-.4.39-.51.2-.3.41-.61,4.26-1,3.63-.32,4-.14,4.1-.08.38.19.59.52,1.71,3.31l.3.74a2.21,2.21,0,0,0,.69-.2c0-.48-.09-2.24-.14-3.12,0-.64-.07-1.17-.07-1.37s0-.94,3.58-4.15a29.09,29.09,0,0,1,2-3.86c.41-.55,1.44-.8,3.73-1.3,1.38-.31,4.95-1.1,5.32-1.79a16,16,0,0,0-2.37-2.28.76.76,0,0,1-.27-.64c.09-1,.44-3.51,1.92-3.62a2.26,2.26,0,0,1,1.89.56c.63-.35,1.88-1.18,3.73-2.49l.06-.05a32.94,32.94,0,0,0-3.65-3.37,9.84,9.84,0,0,0-3.47-1.07c-.6,0-.72-.06-1.68-.54S63.39,34.87,59.31,33a.75.75,0,0,1,.62-1.37c4.11,1.85,6,2.8,6.88,3.25s.76.38,1,.38a10.92,10.92,0,0,1,4.33,1.35s4.54,3.56,4.52,4.79a.93.93,0,0,1-.38.69l-.54.38c-4.21,3-4.6,3-5.09,2.89a.89.89,0,0,1-.52-.47c0-.07-.1-.26-.76-.21a5.22,5.22,0,0,0-.5,1.86c2.63,2.21,2.63,2.85,2.63,3.12,0,1.87-3.17,2.57-6.52,3.31a15.52,15.52,0,0,0-2.91.8,32.18,32.18,0,0,0-1.87,3.66.88.88,0,0,1-.18.25A25.84,25.84,0,0,0,56.82,61c0,.23,0,.66.07,1.17.17,3,.16,3.54,0,3.86-.29.73-1.54,1-2.06,1.05a1.19,1.19,0,0,1-1.26-.61c-.07-.14-.24-.56-.45-1.07-.27-.67-.79-2-1.06-2.48a39.48,39.48,0,0,0-6.48.62l-.34.45a13.14,13.14,0,0,0-1,1.49c.07.34.4,1.35.61,2s.37,1.15.44,1.41a6.19,6.19,0,0,0,2.42.49c0-.1.1-.2.14-.3.28-.62.62-1.4,1.53-1.51l.12,0c1.27-.16,2.06-.23,2.45.35.24.36.16.7-.13,2a16,16,0,0,0-.37,2,29.45,29.45,0,0,0,2.89,1.13.92.92,0,0,1,.27.16l2.56,2.36c18,5.4,18.16,5.65,18.35,5.9s.27.68.4,3.14c0,.78.1,1.9.16,2.37.61.33,2.54,1.17,4.27,1.92,7.61,3.3,8.41,3.8,8.54,4.53.19,1-.72,2.82-1,3.35a34.85,34.85,0,0,0-2.23,5.65c.14.71-.58,1.37-3.76,3.83a27.2,27.2,0,0,0-3,2.57,10.48,10.48,0,0,1-1.18,4,13.28,13.28,0,0,1-1.24,1.56,7.47,7.47,0,0,0-1,1.24c-.24.44-1.17,1.27-3.58,3.37-1.52,1.31-3.73,3.24-4.35,4l.16.24a1.79,1.79,0,0,1,.44,1.35,2.41,2.41,0,0,1-.37.89,2,2,0,0,0-.26.56,5.29,5.29,0,0,1-.52,1.2c-.07.14-.15.26-.18.35a1.12,1.12,0,0,1-1,.77A1.87,1.87,0,0,1,65.41,128.25ZM84.16,102.5s0,0,0,0ZM33.57,67.26h0ZM75.19,41.59h0Z"/><path class="cls-3" d="M78,138.3a55,55,0,1,1,40.43-92.16l-1.11,1A53.45,53.45,0,1,0,78,136.8a53,53,0,0,0,42.75-21.36l1.2.9A54.52,54.52,0,0,1,78,138.3Z"/><path class="cls-4" d="M149.45,84.93v38a2.09,2.09,0,0,1-2.1,2.09H90.13a2.09,2.09,0,0,1-2.1-2.09v-38Z"/><path class="cls-5" d="M144.5,79.24h4.85v39.25a.8.8,0,0,1-.81.8H88.74a.8.8,0,0,1-.81-.8V79.24h5"/><path class="cls-3" d="M148.54,120H88.74a1.56,1.56,0,0,1-1.56-1.55v-40H93V80H88.68v38.5l59.86.05L148.6,80h-4.1v-1.5h5.6v40A1.56,1.56,0,0,1,148.54,120Z"/><polygon class="cls-6" points="92.89 79.24 88.28 79.24 92.89 84.11 92.89 79.24"/><polygon class="cls-6" points="144.58 79.24 149.31 79.24 144.59 84.14 144.58 79.24"/><polyline class="cls-7" points="144.59 53.39 144.59 84.14 130.81 97.93 106.62 97.93 92.89 84.11 92.89 53.39"/><polygon class="cls-3" points="131.12 98.68 106.31 98.68 92.14 84.42 92.14 53.39 93.64 53.39 93.64 83.8 106.93 97.18 130.5 97.18 143.84 83.83 143.84 53.39 145.34 53.39 145.34 84.46 131.12 98.68"/><circle class="cls-8" cx="104.82" cy="82.13" r="5.76"/><path class="cls-7" d="M103.94,84.76a.71.71,0,0,1-.53-.22l-1.7-1.69a.75.75,0,0,1,0-1.06.74.74,0,0,1,1.06,0L103.94,83l3-3.06a.75.75,0,0,1,1.06,0,.74.74,0,0,1,0,1.06l-3.58,3.59A.74.74,0,0,1,103.94,84.76Z"/><path class="cls-3" d="M137.71,64.16H115.86a.75.75,0,1,1,0-1.5h21.85a.75.75,0,0,1,0,1.5Z"/><path class="cls-3" d="M132.86,68.54h-17a.75.75,0,0,1,0-1.5h17a.75.75,0,0,1,0,1.5Z"/><path class="cls-3" d="M137.71,80.78H115.86a.75.75,0,1,1,0-1.5h21.85a.75.75,0,0,1,0,1.5Z"/><path class="cls-3" d="M132.86,85.16h-17a.75.75,0,1,1,0-1.5h17a.75.75,0,0,1,0,1.5Z"/><rect class="cls-2" x="83.47" y="107.68" width="27.92" height="1.5" transform="translate(-48.33 110.32) rotate(-48.8)"/><polygon class="cls-3" points="131.12 98.68 106.31 98.68 87.4 79.77 88.46 78.71 106.93 97.18 130.5 97.18 148.82 78.71 149.88 79.77 131.12 98.68"/><path class="cls-3" d="M148.24,120H89.05a1.87,1.87,0,0,1-1.87-1.86V79.24a.75.75,0,0,1,.75-.75h4.84a.75.75,0,0,1,0,1.5H88.68v38.19a.37.37,0,0,0,.37.36h59.19a.36.36,0,0,0,.36-.36V80h-4a.75.75,0,0,1,0-1.5h4.77a.75.75,0,0,1,.75.75v38.94A1.87,1.87,0,0,1,148.24,120Z"/><rect class="cls-2" x="139.13" y="94.54" width="1.5" height="27.67" transform="translate(-36.8 118.21) rotate(-40.95)"/><path class="cls-2" d="M112.69,114.19h-12.4a.38.38,0,0,1-.38-.38.37.37,0,0,1,.38-.37h12.4a.37.37,0,0,1,.38.37A.38.38,0,0,1,112.69,114.19Z"/><path class="cls-2" d="M121.35,114.19H116.4a.38.38,0,0,1-.38-.38.37.37,0,0,1,.38-.37h4.95a.37.37,0,0,1,.38.37A.38.38,0,0,1,121.35,114.19Z"/><path class="cls-8" d="M50.59,46.75a.8.8,0,0,1-.26,0,.74.74,0,0,1-.44-1C57.81,24.51,71.27,11.17,81.9,14c6,1.62,9.83,6.91,11.9,16.64a.75.75,0,1,1-1.46.31c-2-9.12-5.39-14-10.83-15.5-9.85-2.64-22.57,10.31-30.22,30.8A.74.74,0,0,1,50.59,46.75Z"/><path class="cls-8" d="M68.12,115.81a.76.76,0,0,1-.43-.14,157.67,157.67,0,0,1-16.28-13.84C37.91,88.33,27,73.9,20.56,61.18,14,48.23,13,38.51,17.71,33.82c4.89-4.89,15.14-3.6,28.86,3.61l1.07.59a.75.75,0,0,1,.29,1,.75.75,0,0,1-1,.3l-1-.59C33,32,23.1,30.56,18.77,34.88c-4.13,4.13-3,13.48,3.13,25.63,6.33,12.57,17.18,26.87,30.57,40.26a155.93,155.93,0,0,0,16.09,13.68.74.74,0,0,1,.17,1A.72.72,0,0,1,68.12,115.81Z"/><path class="cls-8" d="M120.73,46.62h-.14a.76.76,0,0,1-.6-.87c2.21-12,1.11-20-3-22.19s-10.89,1.27-19.24,9.54a.75.75,0,0,1-1-1.07c9-8.89,16.24-12.28,21-9.8S123.87,33,121.47,46A.76.76,0,0,1,120.73,46.62Z"/><path class="cls-8" d="M43.63,151.39a9.3,9.3,0,0,1-3.76-.77c-11.41-5.06-9.91-33.46,3.57-67.54l1.64-4a.76.76,0,0,1,1-.41.75.75,0,0,1,.41,1l-1.64,4c-12.74,32.22-14.66,61-4.35,65.61,5.57,2.46,14.24-2.38,23.79-13.28a.75.75,0,0,1,1.13,1C57.11,146.42,49.56,151.39,43.63,151.39Z"/><path class="cls-8" d="M63.52,116.47a.74.74,0,0,1-.74-.65.75.75,0,0,1,.65-.84l3.95-.51-.51-4a.74.74,0,0,1,.64-.84.75.75,0,0,1,.84.65L69,115a.75.75,0,0,1-.65.84l-4.69.61Z"/><path class="cls-8" d="M50.44,47.48a1,1,0,0,1-.23,0,.75.75,0,0,1-.44-.38l-2-4a.75.75,0,0,1,1.35-.66l1.63,3.34,3.48-1.88a.76.76,0,0,1,1,.31.74.74,0,0,1-.31,1L50.8,47.39A.74.74,0,0,1,50.44,47.48Z"/><path class="cls-8" d="M47.86,83.41a.77.77,0,0,1-.68-.42l-1.64-3.34-3.48,1.88a.75.75,0,0,1-.71-1.32L45.52,78a.78.78,0,0,1,.58,0,.74.74,0,0,1,.45.38l2,4a.75.75,0,0,1-.34,1A.8.8,0,0,1,47.86,83.41Z"/><path class="cls-2" d="M102.37,35.78c-1.66-.89-5.19-2.32-5.22-2.34a53.19,53.19,0,0,0-7.25-2.2l.33-1.47a55.49,55.49,0,0,1,7.47,2.28c.16.06,3.65,1.48,5.38,2.41Z"/><path class="cls-3" d="M44,42.11,43,41a55.59,55.59,0,0,1,7.06-5l.76,1.29A55,55,0,0,0,44,42.11Z"/><path class="cls-9" d="M97.15,46.22h43.17a4.26,4.26,0,0,1,4.26,4.26v4.57a0,0,0,0,1,0,0H92.89a0,0,0,0,1,0,0V50.49A4.26,4.26,0,0,1,97.15,46.22Z"/><path class="cls-3" d="M145.34,55.81H92.14V50.49a5,5,0,0,1,5-5h43.17a5,5,0,0,1,5,5Zm-51.7-1.5h50.2V50.49A3.53,3.53,0,0,0,140.32,47H97.15a3.52,3.52,0,0,0-3.51,3.52Z"/><circle class="cls-2" cx="99.07" cy="50.85" r="1.16"/><circle class="cls-2" cx="103.12" cy="50.85" r="1.16"/><circle class="cls-2" cx="107.11" cy="50.85" r="1.16"/><path class="cls-3" d="M103.92,36.61A53.47,53.47,0,0,0,78,29.9V28.4a55,55,0,0,1,26.67,6.9Z"/><path class="cls-3" d="M70.6,137.81a54.49,54.49,0,0,1-9.37-2.1l.46-1.43a54.34,54.34,0,0,0,9.11,2.05Z"/><polygon class="cls-10" points="130.81 97.93 149.35 79.24 149.35 119.29 130.81 97.93"/><path class="cls-3" d="M149.35,120a.76.76,0,0,1-.57-.26L130.24,98.42a.74.74,0,0,1,0-1l18.54-18.69a.75.75,0,0,1,1.28.53v40.05a.74.74,0,0,1-.49.7A.75.75,0,0,1,149.35,120ZM131.83,98l16.77,19.32V81.06Z"/><polygon class="cls-10" points="106.7 97.93 88.16 79.24 88.16 119.29 106.7 97.93"/><path class="cls-3" d="M88.16,120a.75.75,0,0,1-.26-.05.74.74,0,0,1-.49-.7V79.24a.75.75,0,0,1,1.28-.53L107.23,97.4a.74.74,0,0,1,0,1L88.73,119.78A.76.76,0,0,1,88.16,120Zm.75-39v36.22L105.68,98Z"/><circle class="cls-8" cx="104.88" cy="65.92" r="5.76"/><path class="cls-7" d="M107.3,69.09a.79.79,0,0,1-.53-.22L101.93,64a.75.75,0,0,1,0-1.06A.74.74,0,0,1,103,63l4.84,4.84a.74.74,0,0,1,0,1.06A.77.77,0,0,1,107.3,69.09Z"/><path class="cls-7" d="M102.46,69.09a.79.79,0,0,1-.53-.22.75.75,0,0,1,0-1.06L106.77,63A.75.75,0,0,1,107.83,64L103,68.87A.77.77,0,0,1,102.46,69.09Z"/></g></g></g></svg>