<svg xmlns="http://www.w3.org/2000/svg" viewBox="0 0 250 199.6"><defs><style>.cls-1{fill:none;}.cls-2{fill:#ffc113;}.cls-3{fill:#010101;}</style></defs><title>shadowman-CTA</title><g id="Layer_2" data-name="Layer 2"><g id="Layer_1-2" data-name="Layer 1"><rect class="cls-1" width="250" height="199.6"/><g id="Layer_1-2-2" data-name="Layer 1-2"><polygon class="cls-2" points="212.53 13.86 152.88 29.84 156.82 11.27 101.55 26.08 100.09 32.9 92.32 69.49 65.67 76.63 60.28 102 88.04 90.78 89.37 96.7 96.94 100.06 91.68 102.23 39.37 123.36 37.47 132.58 66.94 144.5 175.45 188.33 212.53 13.86"/><polygon class="cls-3" points="91.62 117.77 91.68 102.23 39.37 123.36 37.47 132.58 102.03 158.67 116.49 132.95 91.62 117.77"/><polygon class="cls-3" points="139.94 131.59 138.81 173.53 175.45 188.33 186.87 134.58 152.29 120.95 139.94 131.59"/><polygon class="cls-3" points="132.36 142.45 121.76 135.92 116.09 146 119.76 151.17 114.21 163.59 130.14 170.03 129.7 149.91 132.36 142.45"/><polygon class="cls-3" points="187.15 50.74 188.65 43.68 114.16 63.64 137.47 46.35 138.81 40.05 125.14 43.81 147.34 26 148.63 19.9 100.09 32.9 92.32 69.49 65.67 76.63 60.28 102 88.04 90.78 89.37 96.7 96.94 100.06 96.94 113.15 135.01 128.28 144.47 120.14 131.58 118.96 134.26 114.88 137.62 115.02 144.49 108.93 133.83 108.28 136.36 104.14 145.46 104.63 150.93 105.8 146.18 98.75 140.39 98.92 137.55 97.44 140.07 91.91 147.77 91.58 143.16 72.15 147.22 66.88 187.15 50.74"/></g></g></g></svg>