<svg xmlns="http://www.w3.org/2000/svg" viewBox="0 0 35 35.18"><defs><style>.cls-1{fill:#efefef;}.cls-1,.cls-3{stroke:#2f2f2f;}.cls-1,.cls-2,.cls-3{stroke-linecap:round;stroke-linejoin:round;stroke-width:1.25px;}.cls-2,.cls-3,.cls-4{fill:none;}.cls-2{stroke:#ffc20e;}</style></defs><title>media</title><g id="Layer_2" data-name="Layer 2"><g id="artwork"><circle class="cls-1" cx="17.5" cy="10.94" r="2.04"/><path class="cls-2" d="M13,15.33a6.38,6.38,0,1,1,9,0"/><path class="cls-2" d="M10.35,18.08a10.19,10.19,0,1,1,14.31,0"/><polyline class="cls-3" points="26.65 34.56 17.47 13.29 17.47 13.29 8.35 34.56"/><line class="cls-3" x1="14.47" y1="31.77" x2="17.54" y2="14.11"/><line class="cls-3" x1="20.44" y1="31.77" x2="17.37" y2="14.11"/><line class="cls-3" x1="9.77" y1="31.77" x2="14.47" y2="31.77"/><line class="cls-3" x1="20.64" y1="31.77" x2="25.34" y2="31.77"/><line class="cls-3" x1="10.98" y1="28.69" x2="23.91" y2="28.69"/><line class="cls-3" x1="12.26" y1="25.53" x2="22.79" y2="25.53"/><line class="cls-3" x1="13.45" y1="22.94" x2="21.59" y2="22.94"/><line class="cls-3" x1="14.64" y1="20.35" x2="20.39" y2="20.35"/><rect class="cls-4" y="0.09" width="35" height="35"/></g></g></svg>