<svg xmlns="http://www.w3.org/2000/svg" viewBox="0 0 35 35.03"><defs><style>.cls-1{isolation:isolate;}.cls-2{fill:#efefef;}.cls-2,.cls-3,.cls-4,.cls-5,.cls-6{stroke:#2f2f2f;stroke-width:1.25px;}.cls-2,.cls-3,.cls-4,.cls-5,.cls-6,.cls-7{stroke-linecap:round;stroke-linejoin:round;}.cls-3{fill:#fafafa;}.cls-4{fill:#fff;}.cls-5{fill:#ffc20e;}.cls-6,.cls-7,.cls-9{fill:none;}.cls-7{stroke:#acadac;stroke-width:0.5px;}.cls-8{fill:#e2af24;opacity:0.35;mix-blend-mode:multiply;}</style></defs><title>press</title><g class="cls-1"><g id="Layer_2" data-name="Layer 2"><g id="artwork"><polyline class="cls-2" points="32.42 29.91 7.28 29.91 7.28 0.63 32.41 0.63 32.41 29.91"/><polyline class="cls-3" points="30.12 32.07 4.98 32.07 4.98 2.79 30.11 2.79 30.11 32.07"/><polyline class="cls-4" points="27.72 34.41 2.58 34.41 2.58 5.12 27.71 5.12 27.71 34.41"/><rect class="cls-5" x="7.32" y="9.36" width="15.66" height="7.17"/><line class="cls-6" x1="7.59" y1="19.81" x2="13.31" y2="19.81"/><line class="cls-6" x1="16.85" y1="19.81" x2="22.57" y2="19.81"/><line class="cls-6" x1="7.59" y1="22.73" x2="13.31" y2="22.73"/><line class="cls-6" x1="16.85" y1="22.73" x2="22.57" y2="22.73"/><line class="cls-6" x1="7.59" y1="25.66" x2="13.31" y2="25.66"/><line class="cls-6" x1="16.85" y1="25.66" x2="22.57" y2="25.66"/><line class="cls-6" x1="16.85" y1="28.58" x2="22.57" y2="28.58"/><line class="cls-7" x1="7.78" y1="31.56" x2="4.82" y2="31.56"/><line class="cls-7" x1="17.19" y1="31.56" x2="10.02" y2="31.56"/><rect class="cls-8" x="19.14" y="10" width="2.99" height="5.82"/><line class="cls-7" x1="21.92" y1="7.38" x2="25.26" y2="7.38"/><rect class="cls-9" y="0.02" width="35" height="35"/></g></g></g></svg>