<svg xmlns="http://www.w3.org/2000/svg" viewBox="0 0 35 35"><defs><style>.cls-1{fill:#fafafa;}.cls-1,.cls-11,.cls-3,.cls-4,.cls-5,.cls-7{stroke:#2f2f2f;stroke-width:1.25px;}.cls-1,.cls-3,.cls-5,.cls-7{stroke-miterlimit:10;}.cls-2{fill:#2f2f2f;}.cls-3{fill:#fff;}.cls-10,.cls-12,.cls-4,.cls-5,.cls-6{fill:none;}.cls-10,.cls-11,.cls-4,.cls-6{stroke-linecap:round;stroke-linejoin:round;}.cls-6{stroke:#acadac;stroke-width:0.5px;}.cls-7{fill:#dedede;}.cls-8{fill:#acadac;}.cls-9{fill:#ffc20e;}.cls-10{stroke:#fff;}.cls-11{fill:#efefef;}</style></defs><title>report_2</title><g id="Layer_2" data-name="Layer 2"><g id="artwork"><g id="reports"><path class="cls-1" d="M31.36,12.73H34V33.78a.43.43,0,0,1-.43.43H1.46A.43.43,0,0,1,1,33.78v-21h2.7"/><polygon class="cls-2" points="3.69 12.73 1.22 12.73 3.69 15.35 3.69 12.73"/><polygon class="cls-2" points="31.41 12.73 33.94 12.73 31.41 15.37 31.41 12.73"/><polyline class="cls-3" points="31.41 4.63 31.41 15.37 24.02 22.75 11.05 22.75 3.69 15.35 3.69 4.63"/><line class="cls-4" x1="17.85" y1="10.21" x2="27.44" y2="10.21"/><line class="cls-4" x1="17.85" y1="13.22" x2="27.44" y2="13.22"/><line class="cls-4" x1="17.85" y1="16.29" x2="25.43" y2="16.29"/><polyline class="cls-5" points="1.03 12.73 11.05 22.75 24.02 22.75 33.97 12.73"/><line class="cls-6" x1="7.66" y1="31.27" x2="14.31" y2="31.27"/><line class="cls-6" x1="16.3" y1="31.27" x2="18.95" y2="31.27"/><path class="cls-7" d="M5.76.79H29.34a2.07,2.07,0,0,1,2.07,2.07V5.53a0,0,0,0,1,0,0H3.69a0,0,0,0,1,0,0V2.86A2.07,2.07,0,0,1,5.76.79Z"/><circle class="cls-8" cx="7" cy="3.27" r="0.62"/><circle class="cls-8" cx="9.18" cy="3.27" r="0.62"/><circle class="cls-8" cx="11.32" cy="3.27" r="0.62"/><circle class="cls-9" cx="10.94" cy="13.25" r="4.05"/><line class="cls-10" x1="9.24" y1="11.55" x2="12.65" y2="14.96"/><line class="cls-10" x1="12.65" y1="11.55" x2="9.24" y2="14.96"/><polygon class="cls-11" points="24.02 22.75 33.97 12.73 33.97 34.21 24.02 22.75"/><polygon class="cls-11" points="11.1 22.75 1.15 12.73 1.15 34.21 11.1 22.75"/></g><rect class="cls-12" width="35" height="35"/></g></g></svg>