<?xml version="1.0" encoding="utf-8"?>
<!-- Generator: Adobe Illustrator 22.1.0, SVG Export Plug-In . SVG Version: 6.00 Build 0)  -->
<svg version="1.1" id="Layer_1" xmlns="http://www.w3.org/2000/svg" xmlns:xlink="http://www.w3.org/1999/xlink" x="0px" y="0px"
	 viewBox="0 0 215.8 154.4" style="enable-background:new 0 0 215.8 154.4;" xml:space="preserve">
<style type="text/css">
	.st0{fill:none;stroke:#FFC20E;stroke-width:1.5;stroke-miterlimit:10;}
	.st1{opacity:0.15;fill:#ABADAC;}
	.st2{fill:none;stroke:#FFC20E;stroke-width:1.5;stroke-linecap:round;stroke-linejoin:round;stroke-miterlimit:10;}
	.st3{fill:#FFC20E;}
	.st4{fill:none;stroke:#ABADAC;stroke-width:0.75;stroke-linecap:round;stroke-linejoin:round;stroke-miterlimit:10;}
	.st5{fill:none;stroke:#2F2F2F;stroke-width:1.5;stroke-linecap:round;stroke-miterlimit:10;}
	.st6{fill:#2F2F2F;}
	.st7{fill:#EFEFEF;stroke:#2F2F2F;stroke-width:1.5;stroke-linecap:round;stroke-linejoin:round;stroke-miterlimit:10;}
	.st8{fill:none;stroke:#2F2F2F;stroke-linecap:round;stroke-linejoin:round;stroke-miterlimit:10;}
	.st9{fill:none;stroke:#2F2F2F;stroke-miterlimit:10;}
	.st10{fill:none;stroke:#2F2F2F;stroke-width:1.5;stroke-linecap:round;stroke-linejoin:round;stroke-miterlimit:10;}
	.st11{fill:none;stroke:#2F2F2F;stroke-width:1.5;stroke-miterlimit:10;}
	.st12{fill:#EFEFEF;}
	.st13{fill:none;stroke:#FFC20E;stroke-width:0.75;stroke-linecap:round;stroke-linejoin:round;stroke-miterlimit:10;}
	.st14{fill:#FFF3CF;stroke:#FFC20E;stroke-width:0.75;stroke-linecap:round;stroke-linejoin:round;stroke-miterlimit:10;}
	.st15{fill:none;stroke:#757575;stroke-width:0.75;stroke-linecap:round;stroke-linejoin:round;stroke-miterlimit:10;}
</style>
<title>industry-sectors-light-bg</title>
<g id="Industry_Sectors_white_bg_1_">
	<g id="Healthcare_2_">
		<path class="st0" d="M174.8,109h-12.3V96.7c0-0.4-0.4-0.8-0.8-0.8h-16.6c-0.4,0-0.8,0.4-0.8,0.8V109H132c-0.4,0-0.8,0.4-0.8,0.8
			v16.6c0,0.4,0.4,0.8,0.8,0.8h12.3v12.3c0,0.4,0.4,0.8,0.8,0.8h16.6c0.4,0,0.8-0.4,0.8-0.8v-12.3h12.3c0.4,0,0.8-0.4,0.8-0.8v-16.6
			C175.6,109.4,175.3,109,174.8,109z"/>
		<rect x="145.1" y="134.2" class="st1" width="16.7" height="5.3"/>
		<rect x="161.8" y="121.2" class="st1" width="13" height="5.3"/>
	</g>
	<g id="ISPs_2_">
		<g>
			<path class="st2" d="M55.2,19.8c4-4,10.5-4,14.5,0"/>
			<path class="st2" d="M48.1,12.6c8-8,20.9-8,28.8,0"/>
			<path class="st2" d="M51.6,16.1c6-6,15.8-6,21.8,0"/>
		</g>
		<g>
			<g id="Mobile_1_">
				<g id="mobile_1_">
					<rect x="46.8" y="31.5" class="st3" width="1.6" height="6"/>
					<rect x="46.8" y="39.7" class="st3" width="1.6" height="6"/>
					<rect x="67.5" y="31.8" class="st1" width="3.8" height="24.1"/>
					<line class="st4" x1="72" y1="59.9" x2="72" y2="63.4"/>
					<path class="st5" d="M52.8,52.2V32c0-0.1,0.1-0.2,0.2-0.2h18.5c0.1,0,0.2,0.1,0.2,0.2v24h-19"/>
					<g>
						<path class="st6" d="M72.8,26.5c1.2,0,2.1,1,2.1,2.1v0.2v35.7c0,1.2-1,2.1-2.1,2.1h-21c-1.2,0-2.1-1-2.1-2.1v-0.2V28.7
							c0-1.2,1-2.1,2.1-2.1H72.8 M72.8,25h-21c-2,0-3.6,1.6-3.6,3.6v35.7v0.2c0,2,1.6,3.6,3.6,3.6h21c2,0,3.6-1.6,3.6-3.6V28.9v-0.2
							C76.4,26.7,74.8,25,72.8,25L72.8,25z"/>
					</g>
					<circle class="st7" cx="62.3" cy="61.9" r="2.1"/>
				</g>
			</g>
			<line class="st8" x1="59.8" y1="28.9" x2="64.6" y2="28.9"/>
		</g>
	</g>
	<g id="Financial_2_">
		<polyline class="st9" points="126.9,27.3 153.4,9 181.3,28.2 125.6,28.2 		"/>
		<polyline class="st10" points="181.3,28.2 153.4,9 125.6,28.2 		"/>
		<rect x="123.5" y="32.9" class="st11" width="6.7" height="27"/>
		<rect x="138.2" y="32.9" class="st11" width="6.7" height="27"/>
		<rect x="162.5" y="32.9" class="st11" width="6.7" height="27"/>
		<rect x="177.1" y="32.9" class="st11" width="6.7" height="27"/>
		<line class="st5" x1="118.9" y1="32.9" x2="187.9" y2="32.9"/>
		<line class="st5" x1="118.9" y1="64.3" x2="187.9" y2="64.3"/>
		<line class="st5" x1="121.7" y1="59.9" x2="132.1" y2="59.9"/>
		<line class="st5" x1="136.3" y1="59.9" x2="146.8" y2="59.9"/>
		<line class="st5" x1="160.6" y1="59.9" x2="171.1" y2="59.9"/>
		<line class="st5" x1="175.2" y1="59.9" x2="185.7" y2="59.9"/>
		<g>
			<path class="st2" d="M153.7,47.4c-1.7,0-3-1.4-3-3s1.4-3,3-3c1.7,0,3,1.4,3,3"/>
			<path class="st2" d="M153.7,47.4c1.7,0,3,1.4,3,3c0,1.7-1.4,3-3,3c-1.7,0-3-1.4-3-3"/>
			<line class="st2" x1="153.7" y1="41.3" x2="153.7" y2="38.9"/>
			<line class="st2" x1="153.7" y1="53.5" x2="153.7" y2="56.2"/>
		</g>
		<line class="st4" x1="141.5" y1="38.1" x2="141.5" y2="56.4"/>
		<line class="st4" x1="180.5" y1="38.1" x2="180.5" y2="56.4"/>
		<line class="st4" x1="165.8" y1="38.1" x2="165.8" y2="56.4"/>
		<line class="st4" x1="126.9" y1="38.1" x2="126.9" y2="56.4"/>
		<polyline class="st4" points="174.2,28.2 169.9,25.2 153.4,13.9 136.7,25.4 132.7,28.2 		"/>
		<line class="st5" x1="118.9" y1="28.5" x2="187.9" y2="28.5"/>
	</g>
	<g id="Education_2_">
		<polygon class="st1" points="80.7,132.6 71.3,136.7 71.3,124.6 80.9,120.4 		"/>
		<polygon class="st12" points="61.8,124.6 61.8,128.9 96.6,113.3 96.6,109.3 		"/>
		<line class="st10" x1="61.8" y1="124.6" x2="61.8" y2="128.2"/>
		<polygon class="st10" points="61.8,124.6 27,109.3 61.8,95.4 96.6,109.3 		"/>
		<polyline class="st10" points="96.6,109.3 96.6,113.4 61.8,128.7 27,113 27,109.3 		"/>
		<path class="st13" d="M58.8,105v1.7c0,0.9,1.6,1.6,3.5,1.6c1.9,0,3.5-0.7,3.5-1.6V105"/>
		<path class="st13" d="M65.8,106.9c0.3-0.2,21,7.9,21,7.9v18.6"/>
		<path class="st3" d="M89.5,131.4c0-1.5-1.2-2.7-2.7-2.7c-1.5,0-2.7,1.2-2.7,2.7v1.8h5.4V131.4z"/>
		<g>
			<line class="st13" x1="86.9" y1="132" x2="86.9" y2="140.9"/>
		</g>
		<g>
			<line class="st13" x1="84.5" y1="132" x2="84.5" y2="139.8"/>
		</g>
		<g>
			<line class="st13" x1="89.2" y1="132" x2="89.2" y2="139.8"/>
		</g>
		<path class="st10" d="M42.8,125.2l0.1,5.4c0,1.2,0.8,2.3,1.9,2.8l17,7.5l17-7.5c1.1-0.5,1.9-1.6,1.9-2.9l0.1-9.8"/>
		<line class="st10" x1="61.8" y1="140.9" x2="61.8" y2="136"/>
		<line class="st4" x1="47.1" y1="114" x2="36.4" y2="109.3"/>
		<line class="st4" x1="52.4" y1="116.3" x2="49.1" y2="114.8"/>
		<ellipse class="st14" cx="62.3" cy="105" rx="3.5" ry="1.6"/>
	</g>
	<path class="st15" d="M108.2,154.3"/>
	<line class="st4" x1="108.2" y1="0.5" x2="108.2" y2="72.8"/>
	<line class="st4" x1="108.2" y1="81.3" x2="108.2" y2="153.6"/>
	<line class="st4" x1="108" y1="77.2" x2="16.2" y2="77.2"/>
	<line class="st4" x1="199.6" y1="77.2" x2="107.8" y2="77.2"/>
</g>
</svg>
