<svg width="39" height="39" xmlns="http://www.w3.org/2000/svg"><path d="M21.531 19.5l-4.676-5.09a1.04 1.04 0 0 1 0-1.459c.398-.4 1.046-.4 1.442 0L24 18.77a1.037 1.037 0 0 1 0 1.456l-5.701 5.818a1.01 1.01 0 0 1-1.443 0 1.037 1.037 0 0 1 0-1.457l4.676-5.086zM19.5 0C30.27 0 39 8.73 39 19.5 39 30.272 30.27 39 19.5 39S0 30.272 0 19.5C0 8.73 8.73 0 19.5 0zm0 36.47c9.37 0 16.97-7.598 16.97-16.97S28.87 2.53 19.5 2.53c-9.374 0-16.97 7.598-16.97 16.97-.001 9.372 7.596 16.97 16.97 16.97z" fill="#ABABAB"/></svg>