<svg width="64" height="62" xmlns="http://www.w3.org/2000/svg"><g fill="none" fill-rule="evenodd"><path fill="#ABABAB" d="M42.501 0L21.653 5.508l-2.607 12.11-8.948 2.367-2.854 13.257-6.016 2.4L0 41.501l50.3 20.065L63.5.254 41.18 6.158z"/><path fill="#231F20" d="M20.61 35.308l.02-5.155-17.562 7.006-.641 3.06 21.678 8.648 4.855-8.524zm16.224 4.582l-.38 13.904 12.302 4.908 3.836-17.82-11.613-4.52zm-2.544 3.6l-3.56-2.165-1.903 3.342 1.23 1.713-1.861 4.119 5.348 2.133-.147-6.671z"/><path fill="#231F20" d="M52.685 13.086l.505-2.342-25.013 6.619 7.829-5.735.449-2.084-4.589 1.244 7.45-5.906.435-2.021-16.295 4.311-2.611 12.13-8.95 2.367-1.81 8.412 9.325-3.719.446 1.96 2.542 1.113v4.342l12.78 5.015 3.175-2.697-4.327-.393.904-1.35 1.126.044 2.304-2.019-3.579-.214.85-1.374 3.055.162 1.84.386-1.6-2.334-1.941.056-.955-.49.849-1.834 2.586-.11-1.55-6.44 1.364-1.75z"/></g></svg>