<svg width="21" height="21" xmlns="http://www.w3.org/2000/svg"><g fill="none" fill-rule="evenodd"><path d="M10.5 0C16.299 0 21 4.701 21 10.5S16.299 21 10.5 21 0 16.299 0 10.5 4.701 0 10.5 0z" fill="#2F2F2F"/><path d="M15.82 8.104l-.878-.915A.585.585 0 0 0 14.503 7a.585.585 0 0 0-.438.189l-4.233 4.424-1.897-1.987a.585.585 0 0 0-.438-.188.585.585 0 0 0-.439.188l-.877.916A.638.638 0 0 0 6 11c0 .18.06.332.18.458l2.336 2.438.878.915c.12.126.266.189.438.189a.585.585 0 0 0 .439-.189l.877-.915L15.82 9.02a.638.638 0 0 0 .18-.458c0-.18-.06-.332-.18-.458z" fill="#EAE5E5"/></g></svg>