<svg width="11" height="16" xmlns="http://www.w3.org/2000/svg"><path d="M10.97 14.127H0V16h10.97v-1.873zm-.181-7.492a.707.707 0 0 0-1.019 0l-3.573 3.673V.741A.73.73 0 0 0 5.477 0a.73.73 0 0 0-.721.74v9.568L1.23 6.685a.706.706 0 0 0-1.019 0 .755.755 0 0 0 0 1.048l4.756 4.887a.695.695 0 0 0 .052.05l.026.02.03.022.032.02.03.017c.01.007.021.012.032.017l.031.015.032.012c.012.004.023.009.035.012l.032.009.036.009.038.006.032.004a.713.713 0 0 0 .142 0c.01 0 .02-.003.032-.004.012-.003.025-.004.037-.006l.036-.01.033-.008.034-.012a.273.273 0 0 0 .064-.027c.01-.005.021-.01.032-.017l.03-.017c.01-.007.02-.012.03-.02l.032-.023.025-.02a.777.777 0 0 0 .076-.075l.026-.023 4.755-4.888a.756.756 0 0 0 0-1.048z" fill="#FFF"/></svg>