<svg width="11" height="16" xmlns="http://www.w3.org/2000/svg"><path d="M11 14H0v2h11v-2zm-.211-7.28a.7.7 0 0 0-1.019 0l-3.573 3.72V.75c0-.414-.323-.75-.72-.75-.399 0-.721.336-.721.75v9.69L1.23 6.77a.7.7 0 0 0-1.019 0 .771.771 0 0 0 0 1.06l4.756 4.95a.699.699 0 0 0 .052.05l.026.02.03.024.032.02.03.017c.01.007.021.012.032.017l.031.015c.01.005.022.008.032.012.012.005.023.01.035.013l.032.009.036.008.038.007.032.004a.704.704 0 0 0 .142 0c.01 0 .02-.003.032-.004l.037-.007.036-.008.033-.01a.23.23 0 0 0 .034-.012.271.271 0 0 0 .064-.027c.01-.005.021-.01.032-.017l.03-.017.03-.02.032-.024.025-.02a.782.782 0 0 0 .076-.076l.026-.024 4.755-4.95a.772.772 0 0 0 0-1.06z"/></svg>