<svg width="53" height="43" xmlns="http://www.w3.org/2000/svg"><path d="M47.573 10.704c.023.466.032.938.032 1.403C47.605 26.458 36.668 43 16.669 43A30.79 30.79 0 0 1 0 38.12c.853.1 1.717.152 2.592.152a21.85 21.85 0 0 0 13.504-4.644A10.882 10.882 0 0 1 5.939 26.09a11.13 11.13 0 0 0 4.912-.187c-4.975-1-8.722-5.387-8.722-10.65v-.135a10.86 10.86 0 0 0 4.925 1.36A10.852 10.852 0 0 1 2.215 7.44c0-1.987.536-3.854 1.475-5.459 5.36 6.572 13.377 10.891 22.412 11.346a10.949 10.949 0 0 1-.279-2.476C25.823 4.857 30.688 0 36.693 0c3.129 0 5.955 1.314 7.94 3.425A21.919 21.919 0 0 0 51.536.791a10.9 10.9 0 0 1-4.782 6.005c2.2-.265 4.292-.843 6.245-1.709a21.94 21.94 0 0 1-5.427 5.617z" fill="#222223"/></svg>