<svg width="33" height="33" xmlns="http://www.w3.org/2000/svg"><path d="M16.5 18.219l4.307-3.957a.88.88 0 0 1 1.234 0 .86.86 0 0 1 0 1.22l-4.922 4.825a.878.878 0 0 1-1.233 0l-4.922-4.825a.855.855 0 0 1 0-1.22.878.878 0 0 1 1.232 0L16.5 18.22zM33 16.5C33 25.613 25.613 33 16.5 33 7.385 33 0 25.613 0 16.5S7.385 0 16.5 0C25.613 0 33 7.387 33 16.5zm-30.858 0c0 7.929 6.428 14.358 14.358 14.358 7.93 0 14.358-6.43 14.358-14.358 0-7.932-6.428-14.358-14.358-14.358C8.57 2.14 2.142 8.568 2.142 16.5z" fill="#FFC41E"/></svg>