<svg width="27" height="27" xmlns="http://www.w3.org/2000/svg"><path d="M14.906 13.5l-3.237 3.524a.72.72 0 0 0 0 1.01.704.704 0 0 0 .999 0l3.947-4.028a.718.718 0 0 0 0-1.008L12.668 8.97a.7.7 0 0 0-.999 0 .718.718 0 0 0 0 1.009l3.237 3.521zM13.5 27C20.956 27 27 20.956 27 13.5 27 6.043 20.956 0 13.5 0S0 6.043 0 13.5C0 20.956 6.044 27 13.5 27zm0-25.248c6.487 0 11.748 5.26 11.748 11.748 0 6.488-5.261 11.748-11.748 11.748-6.49 0-11.748-5.26-11.748-11.748C1.751 7.012 7.01 1.752 13.5 1.752z" fill="#EAE5E5"/></svg>