<svg width="180" height="25" xmlns="http://www.w3.org/2000/svg" xmlns:xlink="http://www.w3.org/1999/xlink"><defs><path id="a" d="M.677.375h7.408V7.8H.677z"/><path id="c" d="M.775.375h7.408V7.8H.775z"/><path id="e" d="M.11.375h6.792V7.8H.109z"/><path id="g" d="M.042.375h6.467V7.8H.042z"/><path id="i" d="M.099.375H6.89V7.8H.1z"/><path id="k" d="M.234.375h6.75V7.8H.234z"/><path id="m" d="M.319.529h7.35V7.8H.32z"/><path id="o" d="M.179.375H6.97V7.8H.18z"/><path id="q" d="M.996.375H7.79V7.8H.996z"/><path id="s" d="M.215.375h6.792V7.8H.215z"/></defs><g fill="none" fill-rule="evenodd"><path fill="#2F2F2F" d="M2.152.3L.284 8.952 0 10.262h5.326l.282-1.31H1.62L3.488.3zm6.741 0l-.338 1.568H9.93L10.268.3zm-2.126 9.963h1.336L9.64 3.144H8.305zm6.796-3.251c-1.095 0-1.544-.49-1.336-1.456.21-.974.872-1.468 1.968-1.468 1.08 0 1.542.508 1.334 1.468-.21.966-.87 1.456-1.966 1.456zm-1.023 4.976c-1.291 0-1.744-.23-1.617-.819.114-.523.57-.9 1.25-1.033h1.949c.655 0 .954.286.842.804-.163.756-.843 1.048-2.424 1.048zm4.093-8.844c-.343 0-.689-.035-1.054-.073-.378-.04-.77-.079-1.174-.079-1.85 0-3.213.988-3.556 2.578-.19.879.037 1.58.64 1.992-.4.352-.684.8-.775 1.222-.07.318.021.627.26.9-.997.418-1.343 1.099-1.453 1.614-.252 1.167.624 1.735 2.677 1.735 2.456 0 3.86-.74 4.175-2.194.25-1.15-.39-1.811-1.75-1.811h-2.171c-.362 0-.523-.168-.458-.473.049-.219.182-.462.352-.637.283.074.614.113.984.113 1.916 0 3.205-.888 3.54-2.438.121-.566.046-1.06-.212-1.417h1.297l.222-1.032h-1.544zm29.525 3.868c-1.096 0-1.545-.49-1.337-1.456.21-.974.872-1.468 1.968-1.468 1.08 0 1.542.508 1.334 1.468-.209.966-.87 1.456-1.965 1.456zm-1.022 4.976c-1.293 0-1.746-.23-1.619-.819.114-.523.57-.9 1.25-1.033h1.95c.655 0 .954.286.841.804-.163.756-.843 1.048-2.422 1.048zm4.091-8.844c-.343 0-.688-.035-1.053-.073-.379-.04-.77-.079-1.174-.079-1.85 0-3.214.988-3.557 2.578-.189.879.037 1.58.642 1.992-.4.352-.685.8-.777 1.222-.069.318.021.627.262.9-.999.418-1.343 1.099-1.454 1.614-.253 1.167.623 1.735 2.676 1.735 2.456 0 3.86-.74 4.176-2.194.249-1.15-.39-1.811-1.751-1.811h-2.17c-.362 0-.524-.168-.458-.473a1.41 1.41 0 0 1 .351-.637c.283.074.614.113.985.113 1.915 0 3.204-.888 3.539-2.438.122-.566.046-1.06-.212-1.417h1.297l.224-1.032h-1.546zM23.52 2.992c-.963 0-2.113.52-2.882.892L21.412.3h-1.337l-2.152 9.963h1.337l1.131-5.237c1.11-.509 1.929-.823 2.556-.823.723 0 1.026.366.876 1.06l-1.08 5h1.336l1.125-5.205c.287-1.332-.31-2.066-1.684-2.066m5.88-1.366h-1.35l-.328 1.519h-1.12l-.255 1.172h1.122l-.964 4.467c-.314 1.452.577 1.62 1.273 1.62.48 0 1.082-.092 1.66-.193l.099-.016.26-1.21-.16.047a4.05 4.05 0 0 1-1.08.175c-.534 0-.746-.223-.647-.678l.91-4.212h2.245l.255-1.172h-2.248l.328-1.519zm1.877 8.637h1.335l1.538-7.119h-1.335zm1.773-8.335h1.376l.338-1.567H33.39zm7.275 1.064c-.742 0-1.658.284-2.952.914l.165-.762h-1.272l-1.538 7.12h1.337l1.129-5.23c1.142-.558 1.979-.831 2.558-.831.744 0 1.03.347.877 1.06l-1.08 5h1.335l1.122-5.192c.29-1.342-.307-2.079-1.68-2.079m17.667-1.366h-1.35l-.329 1.519-.986-.003-.254 1.175h.988l-.965 4.467c-.314 1.452.577 1.62 1.273 1.62.48 0 1.083-.092 1.66-.193l.099-.016.26-1.21-.16.047c-.369.11-.771.175-1.08.175-.534 0-.746-.223-.647-.678l.91-4.212h2.246l.254-1.172h-2.248l.329-1.519zm7.335 1.366c-.963 0-2.114.52-2.883.892L63.219.3h-1.335l-2.154 9.963h1.337L62.2 5.026c1.11-.509 1.928-.823 2.556-.823.722 0 1.025.366.876 1.06l-1.08 5h1.337l1.123-5.205c.289-1.332-.31-2.066-1.683-2.066m6.683 1.121c1.173 0 1.603.622 1.345 1.954h-3.702c.307-1.226 1.18-1.954 2.357-1.954m.294-1.12c-2.16 0-3.633 1.313-4.15 3.698-.54 2.507.347 3.726 2.715 3.726.942 0 1.748-.131 2.785-.454l.084-.026.263-1.211-.166.053c-.847.272-1.795.44-2.474.44-1.57 0-2.182-.671-1.92-2.107h5.064l.137-.638c.507-2.343-.258-3.481-2.338-3.481m15.787 4.91c-.264 1.22-1.538 1.317-1.922 1.317-.602 0-1.576-.168-1.333-1.29l1.032-4.785h-1.283l-.978 4.529a5.036 5.036 0 0 0-.114.715c-.91.559-1.63.83-2.196.83-.552 0-1.17-.18-.985-1.034l1.088-5.04h-1.337L79 8.082c-.33 1.526.3 2.335 1.82 2.335 1.054 0 1.991-.517 2.848-1.095.357.726 1.102 1.095 2.22 1.095 1.913 0 3.208-.907 3.549-2.487l1.034-4.785h-1.35l-1.027 4.758zm7.539-.868l-.303 1.4c-.59.39-1.465.772-2.142.772-.47 0-1.23-.142-1.027-1.087.156-.72.7-1.085 1.614-1.085h1.858zm-.44-4.042c-.743 0-1.838.12-2.661.295l-.095.02-.259 1.198.155-.04a10.775 10.775 0 0 1 2.363-.315c1.05 0 1.474.397 1.298 1.214l-.135.626h-1.976c-1.642 0-2.8.824-3.1 2.207-.338 1.57.727 2.13 1.839 2.13.742 0 1.588-.277 2.58-.843l-.087.777h1.17l1.043-4.833c.34-1.57-.418-2.436-2.135-2.436zm8.895.232c-.593 1.092-1.185 2.189-1.778 3.286a675.9 675.9 0 0 1-1.264 2.343 824.48 824.48 0 0 1-.266-2.47 611.28 611.28 0 0 0-.342-3.16l-.01-.08h-1.452l1.203 7.119-1.331 2.615h1.414l5.308-9.734h-1.438l-.044.08zM22.878 16.013h-1.35L21.2 17.53h-.986l-.255 1.171h.99l-.967 4.468c-.314 1.451.577 1.62 1.273 1.62.482 0 1.083-.092 1.66-.192l.1-.018.26-1.21-.162.049a4.11 4.11 0 0 1-1.08.174c-.533 0-.745-.222-.645-.677l.909-4.214h2.247l.253-1.171H22.55l.328-1.518z"/><g transform="translate(23.824 17.002)"><mask id="b" fill="#fff"><use xlink:href="#a"/></mask><path d="M3.848 6.615c-1.825 0-1.912-1.374-1.662-2.527.249-1.154.924-2.528 2.73-2.528 1.826 0 1.91 1.374 1.663 2.528-.25 1.153-.925 2.527-2.73 2.527M5.183.375c-1.075 0-3.65.362-4.375 3.713C.085 7.438 2.505 7.8 3.58 7.8s3.65-.362 4.374-3.712C8.677.738 6.257.375 5.183.375" fill="#2F2F2F" mask="url(#b)"/></g><path d="M40.395 21.42l-.303 1.4c-.59.39-1.466.773-2.143.773-.471 0-1.23-.142-1.026-1.087.156-.721.698-1.085 1.613-1.085h1.859zm-.441-4.042c-.744 0-1.838.12-2.66.296l-.096.021-.26 1.197.157-.041a10.765 10.765 0 0 1 2.363-.315c1.048 0 1.474.398 1.297 1.214l-.135.627h-1.976c-1.642 0-2.801.824-3.1 2.206-.339 1.572.728 2.13 1.838 2.13.744 0 1.589-.276 2.583-.843l-.09.779h1.17l1.045-4.834c.339-1.571-.42-2.437-2.136-2.437zm16.386-.001c-.81 0-1.758.324-2.976 1.017-.178-.658-.765-1.017-1.662-1.017-.917 0-1.915.442-2.795.906l.162-.752H47.8l-1.54 7.119h1.335l1.13-5.232c.967-.504 1.705-.817 2.374-.817.745 0 1.03.343.88 1.047l-1.081 5.002h1.335l1.013-4.683c.037-.176.076-.354.105-.538 1.002-.542 1.826-.828 2.385-.828.753 0 1.045.343.892 1.047l-1.08 5.002h1.336l1.11-5.14c.298-1.375-.29-2.133-1.655-2.133" fill="#2F2F2F"/><g transform="translate(58.235 17.002)"><mask id="d" fill="#fff"><use xlink:href="#c"/></mask><path d="M3.946 6.615c-1.825 0-1.913-1.374-1.664-2.527.25-1.154.925-2.528 2.73-2.528 1.826 0 1.912 1.374 1.663 2.528-.249 1.153-.924 2.527-2.73 2.527M5.282.375c-1.074 0-3.65.362-4.373 3.713C.184 7.438 2.602 7.8 3.678 7.8c1.073 0 3.648-.362 4.372-3.712C8.774.738 6.355.375 5.281.375" fill="#2F2F2F" mask="url(#d)"/></g><path d="M70.05 18.5l-.306.175.246-1.144h-1.297l-1.538 7.118h1.336l1.03-4.766c1.093-.519 1.897-.893 2.893-1.04l.101-.014.294-1.359-.129.012c-.996.086-1.827.56-2.63 1.019" fill="#2F2F2F"/><g transform="translate(72.47 17.002)"><mask id="f" fill="#fff"><use xlink:href="#e"/></mask><path d="M4.118 1.496c1.173 0 1.603.623 1.345 1.955H1.76c.307-1.227 1.18-1.955 2.357-1.955m.294-1.12c-2.16 0-3.633 1.312-4.15 3.7C-.277 6.581.61 7.8 2.978 7.8c.943 0 1.749-.131 2.785-.454l.085-.026.262-1.211-.166.053c-.847.27-1.794.44-2.473.44-1.57 0-2.183-.671-1.92-2.108h5.063l.138-.637C7.257 1.516 6.492.375 4.41.375" fill="#2F2F2F" mask="url(#f)"/></g><g transform="translate(83.059 17.002)"><mask id="h" fill="#fff"><use xlink:href="#g"/></mask><path d="M3.855 3.413c-.97-.129-1.511-.235-1.358-.946.097-.448.393-.906 1.848-.906.437 0 1.016.062 1.772.19l.13.021L6.509.56 6.415.544a12.375 12.375 0 0 0-1.931-.17c-1.903 0-3.07.742-3.373 2.145-.371 1.726 1.075 1.938 1.94 2.064 1.052.15 1.548.254 1.393.972-.157.732-.715 1.074-1.754 1.074-.566 0-1.387-.074-2.25-.205l-.13-.017-.268 1.241.102.01a23.79 23.79 0 0 0 2.36.143c2.34 0 3.1-1.25 3.326-2.298.378-1.753-.98-1.948-1.975-2.09" fill="#2F2F2F" mask="url(#h)"/></g><g transform="translate(90 17.002)"><mask id="j" fill="#fff"><use xlink:href="#i"/></mask><path d="M4.107 1.496c1.173 0 1.603.623 1.345 1.955H1.75c.307-1.227 1.18-1.955 2.357-1.955m.294-1.12c-2.16 0-3.634 1.312-4.149 3.7C-.289 6.581.599 7.8 2.967 7.8c.942 0 1.748-.131 2.784-.454l.085-.026.262-1.211-.165.053c-.847.27-1.795.44-2.474.44-1.57 0-2.183-.671-1.92-2.108h5.063l.138-.637C7.247 1.516 6.482.375 4.4.375" fill="#2F2F2F" mask="url(#j)"/></g><g transform="translate(97.618 17.002)"><mask id="l" fill="#fff"><use xlink:href="#k"/></mask><path d="M4.728.375c-1.07 0-3.637.363-4.36 3.712C-.358 7.438 2.052 7.8 3.124 7.8c.768 0 1.507-.108 2.327-.338l.088-.024.263-1.222-.16.046c-.802.232-1.47.34-2.103.34-1.51 0-2.147-.893-1.796-2.516.354-1.644 1.351-2.513 2.881-2.513.785 0 1.457.187 1.955.35l.14.047.264-1.219-.076-.026a6.56 6.56 0 0 0-2.18-.351" fill="#2F2F2F" mask="url(#l)"/></g><g transform="translate(104.559 17.002)"><mask id="n" fill="#fff"><use xlink:href="#m"/></mask><path d="M5.201 5.77c-1.042.528-1.948.82-2.555.82-.733 0-1.029-.357-.876-1.061l1.08-5H1.514L.389 5.735c-.288 1.33.315 2.066 1.697 2.066.754 0 1.755-.308 2.975-.914l-.07.76h1.14L7.67.528H6.333L5.201 5.771z" fill="#2F2F2F" mask="url(#n)"/></g><path d="M115.443 18.5c-.103.06-.204.118-.306.175l.248-1.144h-1.297l-1.54 7.118h1.337l1.03-4.766c1.093-.519 1.898-.893 2.893-1.04l.102-.014.292-1.359-.128.012c-.997.086-1.828.56-2.631 1.019" fill="#2F2F2F"/><g transform="translate(117.794 17.002)"><mask id="p" fill="#fff"><use xlink:href="#o"/></mask><path d="M4.188 1.496c1.172 0 1.602.623 1.344 1.955H1.83c.307-1.227 1.18-1.955 2.358-1.955M4.48.376C2.32.376.847 1.688.331 4.076-.209 6.581.68 7.8 3.047 7.8c.942 0 1.748-.131 2.784-.454l.085-.026.262-1.211-.165.053c-.847.27-1.795.44-2.474.44-1.57 0-2.183-.671-1.92-2.108h5.063l.138-.637C7.327 1.516 6.562.375 4.481.375" fill="#2F2F2F" mask="url(#p)"/></g><path fill="#2F2F2F" d="M128.82 24.65h1.335l2.139-9.903h-1.336zm8.782-7.273c-.744 0-1.659.284-2.953.916l.164-.762h-1.27l-1.539 7.119h1.337l1.13-5.23c1.141-.56 1.978-.831 2.558-.831.742 0 1.03.346.876 1.06l-1.08 5h1.335l1.123-5.192c.29-1.341-.308-2.08-1.681-2.08m5.878-1.364l-1.347-.01-.33 1.528-.985-.008-.256 1.18h.989l-.966 4.467c-.314 1.451.577 1.62 1.273 1.62.482 0 1.083-.092 1.66-.192l.099-.018.26-1.21-.16.049a4.11 4.11 0 0 1-1.08.174c-.534 0-.746-.222-.647-.677l.91-4.214h2.247l.253-1.171h-2.248l.329-1.518z"/><g transform="translate(144.265 17.002)"><mask id="r" fill="#fff"><use xlink:href="#q"/></mask><path d="M5.005 1.496c1.173 0 1.603.623 1.345 1.955H2.648c.307-1.227 1.18-1.955 2.357-1.955M5.3.376c-2.16 0-3.635 1.312-4.15 3.7C.61 6.581 1.497 7.8 3.865 7.8c.943 0 1.749-.131 2.785-.454l.085-.026.262-1.211-.166.053c-.847.27-1.795.44-2.473.44-1.57 0-2.183-.671-1.92-2.108H7.5l.138-.637C8.144 1.516 7.379.375 5.298.375" fill="#2F2F2F" mask="url(#r)"/></g><path d="M155.79 18.5c-.103.06-.203.118-.305.175l.246-1.144h-1.296l-1.54 7.118h1.338l1.03-4.766c1.093-.519 1.897-.893 2.893-1.04l.101-.014.293-1.359-.128.012c-.997.086-1.828.56-2.632 1.019m8.19-1.124c-.744 0-1.659.284-2.953.916l.164-.762h-1.27l-1.538 7.119h1.336l1.13-5.23c1.141-.56 1.978-.831 2.558-.831.742 0 1.03.346.876 1.06l-1.08 5h1.335l1.123-5.192c.29-1.341-.307-2.08-1.681-2.08" fill="#2F2F2F"/><g transform="translate(166.441 17.002)"><mask id="t" fill="#fff"><use xlink:href="#s"/></mask><path d="M4.223 1.496c1.173 0 1.603.623 1.345 1.955h-3.7c.305-1.227 1.179-1.955 2.355-1.955m.294-1.12c-2.16 0-3.633 1.312-4.149 3.7C-.173 6.581.715 7.8 3.083 7.8c.942 0 1.748-.131 2.786-.454l.083-.026.262-1.211-.165.053c-.846.27-1.795.44-2.474.44-1.57 0-2.183-.671-1.92-2.108h5.063l.138-.637C7.363 1.516 6.598.375 4.517.375" fill="#2F2F2F" mask="url(#t)"/></g><path d="M179.41 18.703l.252-1.172h-2.246l.329-1.518h-1.35l-.329 1.518-.987.003-.253 1.169h.988l-.965 4.468c-.314 1.45.576 1.62 1.273 1.62.48 0 1.081-.094 1.66-.194l.098-.017.262-1.209-.163.048a4.1 4.1 0 0 1-1.079.174c-.533 0-.745-.222-.647-.678l.91-4.212h2.247z" fill="#2F2F2F"/></g></svg>